P2
100 100
255
127 127 127 127 127 127 127 127 127 127 127 127 127 127 127 127 127 127 127 127 127 127 127 127 127 127 127 127 127 127 127 127 127 127 127 127 127 127 127 127 127 127 127 127 127 127 127 127 127 127 127 127 127 127 127 127 127 127 127 127 127 127 127 127 127 127 127 127 127 127 127 127 127 127 127 127 127 127 127 127 127 127 127 127 127 127 127 127 127 127 127 127 127 127 127 127 127 127 127 127 
127 127 127 127 127 127 127 127 127 127 127 127 127 127 127 127 127 127 127 127 127 127 127 127 127 127 127 127 127 127 127 127 127 127 127 127 127 127 127 127 127 127 127 127 127 127 127 127 127 127 127 127 127 127 127 127 127 127 127 127 127 127 127 127 127 127 127 127 127 127 127 127 127 127 127 127 127 127 127 127 127 127 127 127 127 127 127 127 127 127 127 127 127 127 127 127 127 127 127 127 
127 127 127 127 127 127 127 127 127 127 127 127 127 127 127 127 127 127 127 127 127 127 127 127 127 127 127 127 127 127 127 127 127 127 127 127 127 127 127 127 127 127 127 127 127 127 127 127 127 127 127 127 127 127 127 127 127 127 127 127 127 127 127 127 127 127 127 127 127 127 127 127 127 127 127 127 127 127 127 127 127 127 127 127 127 127 127 127 127 127 127 127 127 127 127 127 127 127 127 127 
127 127 127 127 127 127 127 127 127 127 127 127 127 127 127 127 127 127 127 127 127 127 127 127 127 127 127 127 127 127 127 127 127 127 127 127 127 127 127 127 127 127 127 127 127 127 127 127 127 127 127 127 127 127 127 127 127 127 127 127 127 127 127 127 127 127 127 127 127 127 127 127 127 127 127 127 127 127 127 127 127 127 127 127 127 127 127 127 127 127 127 127 127 127 127 127 127 127 127 127 
127 127 127 127 127 127 127 127 127 127 127 127 127 127 127 127 127 127 127 127 127 127 127 127 127 127 127 127 127 127 127 127 127 127 127 127 127 127 127 127 127 127 127 127 127 127 127 127 127 127 127 127 127 127 127 127 127 127 127 127 127 127 127 127 127 127 127 127 127 127 127 127 127 127 127 127 127 127 127 127 127 127 127 127 127 127 127 127 127 127 127 127 127 127 127 127 127 127 127 127 
127 127 127 127 127 127 127 127 127 127 127 127 127 127 127 127 127 127 127 127 127 127 127 127 127 127 127 127 127 127 127 127 127 127 127 127 127 127 127 127 127 127 127 127 127 127 127 127 127 127 127 127 127 127 127 127 127 127 127 127 127 127 127 127 127 127 127 127 127 127 127 127 127 127 127 127 127 127 127 127 127 127 127 127 127 127 127 127 127 127 127 127 127 127 127 127 127 127 127 127 
127 127 127 127 127 127 127 127 127 127 127 127 127 127 127 127 127 127 127 127 127 127 127 127 127 127 127 127 127 127 127 127 127 127 127 127 127 127 127 127 127 127 127 127 127 127 127 127 127 127 127 127 127 127 127 127 127 127 127 127 127 127 127 127 127 127 127 127 127 127 127 127 127 127 127 127 127 127 127 127 127 127 127 127 127 127 127 127 127 127 127 127 127 127 127 127 127 127 127 127 
127 127 127 127 127 127 127 127 127 127 127 127 127 127 127 127 127 127 127 127 127 127 127 127 127 127 127 127 127 127 127 127 127 127 127 127 127 127 127 127 127 127 127 127 127 127 127 127 127 127 127 127 127 127 127 127 127 127 127 127 127 127 127 127 127 127 127 127 127 127 127 127 127 127 127 127 127 127 127 127 127 127 127 127 127 127 127 127 127 127 127 127 127 127 127 127 127 127 127 127 
127 127 127 127 127 127 127 127 127 127 127 127 127 127 127 127 127 127 127 127 127 127 127 127 127 127 127 127 127 127 127 127 127 127 127 127 127 127 127 127 127 127 127 127 127 128 128 128 128 128 128 128 128 128 128 127 127 127 127 127 127 127 127 127 127 127 127 127 127 127 127 127 127 127 127 127 127 127 127 127 127 127 127 127 127 127 127 127 127 127 127 127 127 127 127 127 127 127 127 127 
127 127 127 127 127 127 127 127 127 127 127 127 127 127 127 127 127 127 127 127 127 127 127 127 127 127 127 127 127 127 127 127 127 127 127 127 127 127 127 127 128 128 128 128 128 128 128 128 128 128 128 128 128 128 128 128 128 128 128 128 127 127 127 127 127 127 127 127 127 127 127 127 127 127 127 127 127 127 127 127 127 127 127 127 127 127 127 127 127 127 127 127 127 127 127 127 127 127 127 127 
127 127 127 127 127 127 127 127 127 127 127 127 127 127 127 127 127 127 127 127 127 127 127 127 127 127 127 127 127 127 127 127 127 127 127 127 128 128 128 128 128 128 128 128 128 128 128 128 129 129 129 129 128 128 128 128 128 128 128 128 128 128 128 128 127 127 127 127 127 127 127 127 127 127 127 127 127 127 127 127 127 127 127 127 127 127 127 127 127 127 127 127 127 127 127 127 127 127 127 127 
127 127 127 127 127 127 127 127 127 127 127 127 127 127 127 127 127 127 127 127 127 127 127 127 127 127 127 127 127 127 127 127 127 127 128 128 128 128 128 128 128 129 129 129 129 129 129 129 129 129 129 129 129 129 129 129 129 129 129 128 128 128 128 128 128 128 127 127 127 127 127 127 127 127 127 127 127 127 127 127 127 127 127 127 127 127 127 127 127 127 127 127 127 127 127 127 127 127 127 127 
127 127 127 127 127 127 127 127 127 127 127 127 127 127 127 127 127 127 127 127 127 127 127 127 127 127 127 127 127 127 127 127 128 128 128 128 128 128 129 129 129 129 129 130 130 130 130 130 130 130 130 130 130 130 130 130 130 129 129 129 129 129 128 128 128 128 128 128 127 127 127 127 127 127 127 127 127 127 127 127 127 127 127 127 127 127 127 127 127 127 127 127 127 127 127 127 127 127 127 127 
127 127 127 127 127 127 127 127 127 127 127 127 127 127 127 127 127 127 127 127 127 127 127 127 127 127 127 127 127 127 128 128 128 128 128 129 129 129 129 130 130 130 130 131 131 131 131 131 131 131 131 131 131 131 131 131 131 130 130 130 130 129 129 129 129 128 128 128 128 128 127 127 127 127 127 127 127 127 127 127 127 127 127 127 127 127 127 127 127 127 127 127 127 127 127 127 127 127 127 127 
127 127 127 127 127 127 127 127 127 127 127 127 127 127 127 127 127 127 127 127 127 127 127 127 127 127 127 127 128 128 128 128 128 129 129 129 130 130 130 131 131 131 131 132 132 132 132 132 133 133 133 133 132 132 132 132 132 131 131 131 131 130 130 130 129 129 129 128 128 128 128 128 127 127 127 127 127 127 127 127 127 127 127 127 127 127 127 127 127 127 127 127 127 127 127 127 127 127 127 127 
127 127 127 127 127 127 127 127 127 127 127 127 127 127 127 127 127 127 127 127 127 127 127 127 127 127 128 128 128 128 128 129 129 129 130 130 131 131 131 132 132 133 133 133 133 134 134 134 134 134 134 134 134 134 134 133 133 133 133 132 132 131 131 131 130 130 129 129 129 128 128 128 128 128 127 127 127 127 127 127 127 127 127 127 127 127 127 127 127 127 127 127 127 127 127 127 127 127 127 127 
127 127 127 127 127 127 127 127 127 127 127 127 127 127 127 127 127 127 127 127 127 127 127 127 127 128 128 128 128 129 129 129 130 130 131 131 132 132 133 133 134 134 135 135 135 136 136 136 136 136 136 136 136 136 136 135 135 135 134 134 133 133 132 132 131 131 130 130 129 129 129 128 128 128 128 127 127 127 127 127 127 127 127 127 127 127 127 127 127 127 127 127 127 127 127 127 127 127 127 127 
127 127 127 127 127 127 127 127 127 127 127 127 127 127 127 127 127 127 127 127 127 127 127 127 128 128 128 128 129 129 130 130 131 131 132 132 133 134 134 135 136 136 137 137 138 138 138 139 139 139 139 139 139 138 138 138 137 137 136 136 135 134 134 133 132 132 131 131 130 130 129 129 128 128 128 128 127 127 127 127 127 127 127 127 127 127 127 127 127 127 127 127 127 127 127 127 127 127 127 127 
127 127 127 127 127 127 127 127 127 127 127 127 127 127 127 127 127 127 127 127 127 127 127 128 128 128 129 129 129 130 131 131 132 132 133 134 135 135 136 137 138 139 139 140 140 141 141 142 142 142 142 142 142 141 141 140 140 139 139 138 137 136 135 135 134 133 132 132 131 131 130 129 129 129 128 128 128 127 127 127 127 127 127 127 127 127 127 127 127 127 127 127 127 127 127 127 127 127 127 127 
127 127 127 127 127 127 127 127 127 127 127 127 127 127 127 127 127 127 127 127 127 128 128 128 128 129 129 130 130 131 132 132 133 134 135 136 137 138 139 140 140 141 142 143 144 144 145 145 145 145 145 145 145 145 144 144 143 142 141 140 140 139 138 137 136 135 134 133 132 132 131 130 130 129 129 128 128 128 128 127 127 127 127 127 127 127 127 127 127 127 127 127 127 127 127 127 127 127 127 127 
127 127 127 127 127 127 127 127 127 127 127 127 127 127 127 127 127 127 127 127 128 128 128 128 129 129 130 130 131 132 133 134 135 136 137 138 139 140 141 143 144 145 146 147 147 148 149 149 149 150 150 149 149 149 148 147 147 146 145 144 143 141 140 139 138 137 136 135 134 133 132 131 130 130 129 129 128 128 128 128 127 127 127 127 127 127 127 127 127 127 127 127 127 127 127 127 127 127 127 127 
127 127 127 127 127 127 127 127 127 127 127 127 127 127 127 127 127 127 127 128 128 128 128 129 129 130 131 131 132 133 134 135 136 138 139 140 142 143 145 146 147 149 150 151 152 153 153 154 154 154 154 154 154 153 153 152 151 150 149 147 146 145 143 142 140 139 138 136 135 134 133 132 131 131 130 129 129 128 128 128 128 127 127 127 127 127 127 127 127 127 127 127 127 127 127 127 127 127 127 127 
127 127 127 127 127 127 127 127 127 127 127 127 127 127 127 127 127 127 127 128 128 128 129 129 130 131 132 132 134 135 136 137 139 140 142 143 145 147 148 150 151 153 154 155 157 158 158 159 159 160 160 159 159 158 158 157 155 154 153 151 150 148 147 145 143 142 140 139 137 136 135 134 132 132 131 130 129 129 128 128 128 127 127 127 127 127 127 127 127 127 127 127 127 127 127 127 127 127 127 127 
127 127 127 127 127 127 127 127 127 127 127 127 127 127 127 127 127 127 128 128 128 129 129 130 131 132 133 134 135 136 138 139 141 143 145 147 148 150 152 154 156 158 159 161 162 163 164 165 165 165 165 165 165 164 163 162 161 159 158 156 154 152 150 148 147 145 143 141 139 138 136 135 134 133 132 131 130 129 129 128 128 128 127 127 127 127 127 127 127 127 127 127 127 127 127 127 127 127 127 127 
127 127 127 127 127 127 127 127 127 127 127 127 127 127 127 127 127 128 128 128 129 129 130 131 132 133 134 135 137 138 140 142 144 146 148 150 152 155 157 159 161 163 165 167 168 169 170 171 172 172 172 172 171 170 169 168 167 165 163 161 159 157 155 152 150 148 146 144 142 140 138 137 135 134 133 132 131 130 129 129 128 128 128 127 127 127 127 127 127 127 127 127 127 127 127 127 127 127 127 127 
127 127 127 127 127 127 127 127 127 127 127 127 127 127 127 127 128 128 128 129 129 130 131 132 133 134 135 137 139 140 142 145 147 149 152 154 157 160 162 165 167 169 171 173 175 176 177 178 179 179 179 179 178 177 176 175 173 171 169 167 165 162 160 157 154 152 149 147 145 142 140 139 137 135 134 133 132 131 130 129 129 128 128 128 127 127 127 127 127 127 127 127 127 127 127 127 127 127 127 127 
127 127 127 127 127 127 127 127 127 127 127 127 127 127 127 128 128 128 129 129 130 131 132 133 134 135 137 139 141 143 145 148 150 153 156 159 162 165 168 170 173 175 178 180 182 183 184 185 186 186 186 186 185 184 183 182 180 178 175 173 170 168 165 162 159 156 153 150 148 145 143 141 139 137 135 134 133 132 131 130 129 129 128 128 128 127 127 127 127 127 127 127 127 127 127 127 127 127 127 127 
127 127 127 127 127 127 127 127 127 127 127 127 127 127 127 128 128 128 129 130 130 131 132 134 135 137 139 141 143 146 148 151 154 157 161 164 167 170 174 177 180 182 185 187 189 191 192 193 194 194 194 194 193 192 191 189 187 185 182 180 177 174 170 167 164 161 157 154 151 148 146 143 141 139 137 135 134 132 131 130 130 129 128 128 128 127 127 127 127 127 127 127 127 127 127 127 127 127 127 127 
127 127 127 127 127 127 127 127 127 127 127 127 127 127 128 128 128 129 129 130 131 132 134 135 137 139 141 143 146 149 152 155 158 162 165 169 173 176 180 183 186 189 192 194 197 198 200 201 202 202 202 202 201 200 198 197 194 192 189 186 183 180 176 173 169 165 162 158 155 152 149 146 143 141 139 137 135 134 132 131 130 129 129 128 128 128 127 127 127 127 127 127 127 127 127 127 127 127 127 127 
127 127 127 127 127 127 127 127 127 127 127 127 127 127 128 128 129 129 130 131 132 133 135 136 138 140 143 146 149 152 155 159 163 167 171 175 179 183 186 190 193 197 199 202 204 206 208 209 210 210 210 210 209 208 206 204 202 199 197 193 190 186 183 179 175 171 167 163 159 155 152 149 146 143 140 138 136 135 133 132 131 130 129 129 128 128 127 127 127 127 127 127 127 127 127 127 127 127 127 127 
127 127 127 127 127 127 127 127 127 127 127 127 127 128 128 128 129 130 131 132 133 134 136 138 140 142 145 148 152 155 159 163 167 172 176 180 185 189 193 197 201 204 207 210 212 214 215 217 217 218 218 217 217 215 214 212 210 207 204 201 197 193 189 185 180 176 172 167 163 159 155 152 148 145 142 140 138 136 134 133 132 131 130 129 128 128 128 127 127 127 127 127 127 127 127 127 127 127 127 127 
127 127 127 127 127 127 127 127 127 127 127 127 127 128 128 129 129 130 131 132 134 135 137 139 142 145 148 151 155 159 163 168 172 177 182 186 191 195 200 204 208 211 214 217 219 221 223 224 225 225 225 225 224 223 221 219 217 214 211 208 204 200 195 191 186 182 177 172 168 163 159 155 151 148 145 142 139 137 135 134 132 131 130 129 129 128 128 127 127 127 127 127 127 127 127 127 127 127 127 127 
127 127 127 127 127 127 127 127 127 127 127 127 128 128 128 129 130 131 132 133 135 136 139 141 144 147 150 154 158 163 167 172 177 182 187 192 197 202 206 211 215 218 221 224 226 228 230 231 232 232 232 232 231 230 228 226 224 221 218 215 211 206 202 197 192 187 182 177 172 167 163 158 154 150 147 144 141 139 136 135 133 132 131 130 129 128 128 128 127 127 127 127 127 127 127 127 127 127 127 127 
127 127 127 127 127 127 127 127 127 127 127 127 128 128 129 129 130 131 132 134 136 138 140 143 146 149 153 157 162 167 172 177 182 188 193 198 203 208 213 217 221 225 228 231 233 235 236 237 238 238 238 238 237 236 235 233 231 228 225 221 217 213 208 203 198 193 188 182 177 172 167 162 157 153 149 146 143 140 138 136 134 132 131 130 129 129 128 128 127 127 127 127 127 127 127 127 127 127 127 127 
127 127 127 127 127 127 127 127 127 127 127 128 128 128 129 130 131 132 133 135 137 139 142 145 148 152 156 161 165 171 176 182 187 193 199 204 210 215 219 224 227 231 234 236 239 240 242 243 243 244 244 243 243 242 240 239 236 234 231 227 224 219 215 210 204 199 193 187 182 176 171 165 161 156 152 148 145 142 139 137 135 133 132 131 130 129 128 128 128 127 127 127 127 127 127 127 127 127 127 127 
127 127 127 127 127 127 127 127 127 127 127 128 128 129 129 130 131 132 134 136 138 140 143 147 150 154 159 164 169 175 180 186 192 198 204 210 215 220 225 229 233 236 239 242 244 245 246 247 248 248 248 248 247 246 245 244 242 239 236 233 229 225 220 215 210 204 198 192 186 180 175 169 164 159 154 150 147 143 140 138 136 134 132 131 130 129 129 128 128 127 127 127 127 127 127 127 127 127 127 127 
127 127 127 127 127 127 127 127 127 127 128 128 128 129 130 131 132 133 135 137 139 142 145 148 152 157 162 167 173 179 185 191 197 203 210 215 221 226 231 235 238 241 244 246 247 249 250 250 251 251 251 251 250 250 249 247 246 244 241 238 235 231 226 221 215 210 203 197 191 185 179 173 167 162 157 152 148 145 142 139 137 135 133 132 131 130 129 128 128 128 127 127 127 127 127 127 127 127 127 127 
127 127 127 127 127 127 127 127 127 127 128 128 128 129 130 131 132 134 135 138 140 143 147 150 155 160 165 170 176 183 189 195 202 208 215 220 226 231 235 239 243 245 247 249 250 251 252 252 253 253 253 253 252 252 251 250 249 247 245 243 239 235 231 226 220 215 208 202 195 189 183 176 170 165 160 155 150 147 143 140 138 135 134 132 131 130 129 128 128 128 127 127 127 127 127 127 127 127 127 127 
127 127 127 127 127 127 127 127 127 127 128 128 129 129 130 131 133 134 136 139 141 145 148 152 157 162 168 174 180 186 193 200 206 213 219 225 231 235 240 243 246 248 250 252 252 253 253 253 253 253 253 253 253 253 253 252 252 250 248 246 243 240 235 231 225 219 213 206 200 193 186 180 174 168 162 157 152 148 145 141 139 136 134 133 131 130 129 129 128 128 127 127 127 127 127 127 127 127 127 127 
127 127 127 127 127 127 127 127 127 127 128 128 129 130 131 132 133 135 137 140 143 146 150 154 159 165 170 177 183 190 197 204 211 217 224 229 235 239 243 246 249 251 252 253 253 253 253 253 253 253 253 253 253 253 253 253 253 252 251 249 246 243 239 235 229 224 217 211 204 197 190 183 177 170 165 159 154 150 146 143 140 137 135 133 132 131 130 129 128 128 127 127 127 127 127 127 127 127 127 127 
127 127 127 127 127 127 127 127 127 128 128 128 129 130 131 132 134 136 138 140 144 147 151 156 161 167 173 180 186 193 201 208 215 221 227 233 238 243 246 249 251 252 253 253 253 253 253 252 252 252 252 252 252 253 253 253 253 253 252 251 249 246 243 238 233 227 221 215 208 201 193 186 180 173 167 161 156 151 147 144 140 138 136 134 132 131 130 129 128 128 128 127 127 127 127 127 127 127 127 127 
127 127 127 127 127 127 127 127 127 128 128 129 129 130 131 133 134 136 139 141 145 149 153 158 163 169 175 182 189 197 204 211 218 225 231 236 241 245 248 251 252 253 253 253 253 252 251 250 250 249 249 250 250 251 252 253 253 253 253 252 251 248 245 241 236 231 225 218 211 204 197 189 182 175 169 163 158 153 149 145 141 139 136 134 133 131 130 129 129 128 128 127 127 127 127 127 127 127 127 127 
127 127 127 127 127 127 127 127 127 128 128 129 129 130 131 133 135 137 139 142 146 150 154 159 165 171 178 185 192 199 207 214 221 228 234 239 244 247 250 252 253 253 253 252 251 250 249 248 247 246 246 247 248 249 250 251 252 253 253 253 252 250 247 244 239 234 228 221 214 207 199 192 185 178 171 165 159 154 150 146 142 139 137 135 133 131 130 129 129 128 128 127 127 127 127 127 127 127 127 127 
127 127 127 127 127 127 127 127 127 128 128 129 130 131 132 133 135 137 140 143 147 151 155 161 167 173 180 187 194 202 210 217 224 231 236 242 246 249 252 253 253 253 252 251 249 248 246 245 244 243 243 244 245 246 248 249 251 252 253 253 253 252 249 246 242 236 231 224 217 210 202 194 187 180 173 167 161 155 151 147 143 140 137 135 133 132 131 130 129 128 128 127 127 127 127 127 127 127 127 127 
127 127 127 127 127 127 127 127 127 128 128 129 130 131 132 133 135 138 140 144 147 152 157 162 168 175 182 189 197 204 212 219 226 233 239 244 247 250 252 253 253 253 251 249 247 245 243 241 240 239 239 240 241 243 245 247 249 251 253 253 253 252 250 247 244 239 233 226 219 212 204 197 189 182 175 168 162 157 152 147 144 140 138 135 133 132 131 130 129 128 128 127 127 127 127 127 127 127 127 127 
127 127 127 127 127 127 127 127 128 128 128 129 130 131 132 134 136 138 141 144 148 153 158 163 169 176 183 191 198 206 214 221 228 235 240 245 249 251 253 253 253 252 250 248 245 242 240 238 237 236 236 237 238 240 242 245 248 250 252 253 253 253 251 249 245 240 235 228 221 214 206 198 191 183 176 169 163 158 153 148 144 141 138 136 134 132 131 130 129 128 128 128 127 127 127 127 127 127 127 127 
127 127 127 127 127 127 127 127 128 128 128 129 130 131 132 134 136 138 141 145 149 153 158 164 170 177 184 192 200 208 215 223 230 236 242 246 250 252 253 253 253 251 249 246 243 240 237 235 234 233 233 234 235 237 240 243 246 249 251 253 253 253 252 250 246 242 236 230 223 215 208 200 192 184 177 170 164 158 153 149 145 141 138 136 134 132 131 130 129 128 128 128 127 127 127 127 127 127 127 127 
127 127 127 127 127 127 127 127 128 128 128 129 130 131 132 134 136 139 142 145 149 154 159 165 171 178 185 193 201 209 217 224 231 237 243 247 250 252 253 253 252 250 248 245 241 238 235 233 231 230 230 231 233 235 238 241 245 248 250 252 253 253 252 250 247 243 237 231 224 217 209 201 193 185 178 171 165 159 154 149 145 142 139 136 134 132 131 130 129 128 128 128 127 127 127 127 127 127 127 127 
127 127 127 127 127 127 127 127 128 128 129 129 130 131 133 134 136 139 142 145 149 154 159 165 172 179 186 194 202 210 217 225 232 238 243 248 251 253 253 253 252 250 247 244 240 237 234 231 229 228 228 229 231 234 237 240 244 247 250 252 253 253 253 251 248 243 238 232 225 217 210 202 194 186 179 172 165 159 154 149 145 142 139 136 134 133 131 130 129 129 128 128 127 127 127 127 127 127 127 127 
127 127 127 127 127 127 127 127 128 128 129 129 130 131 133 134 136 139 142 145 150 154 160 165 172 179 186 194 202 210 218 225 232 238 244 248 251 253 253 253 252 249 246 243 239 236 233 230 228 228 228 228 230 233 236 239 243 246 249 252 253 253 253 251 248 244 238 232 225 218 210 202 194 186 179 172 165 160 154 150 145 142 139 136 134 133 131 130 129 129 128 128 127 127 127 127 127 127 127 127 
127 127 127 127 127 127 127 127 128 128 129 129 130 131 133 134 136 139 142 145 150 154 160 165 172 179 186 194 202 210 218 225 232 238 244 248 251 253 253 253 252 249 246 243 239 236 233 230 228 228 228 228 230 233 236 239 243 246 249 252 253 253 253 251 248 244 238 232 225 218 210 202 194 186 179 172 165 160 154 150 145 142 139 136 134 133 131 130 129 129 128 128 127 127 127 127 127 127 127 127 
127 127 127 127 127 127 127 127 128 128 129 129 130 131 133 134 136 139 142 145 149 154 159 165 172 179 186 194 202 210 217 225 232 238 243 248 251 253 253 253 252 250 247 244 240 237 234 231 229 228 228 229 231 234 237 240 244 247 250 252 253 253 253 251 248 243 238 232 225 217 210 202 194 186 179 172 165 159 154 149 145 142 139 136 134 133 131 130 129 129 128 128 127 127 127 127 127 127 127 127 
127 127 127 127 127 127 127 127 128 128 128 129 130 131 132 134 136 139 142 145 149 154 159 165 171 178 185 193 201 209 217 224 231 237 243 247 250 252 253 253 252 250 248 245 241 238 235 233 231 230 230 231 233 235 238 241 245 248 250 252 253 253 252 250 247 243 237 231 224 217 209 201 193 185 178 171 165 159 154 149 145 142 139 136 134 132 131 130 129 128 128 128 127 127 127 127 127 127 127 127 
127 127 127 127 127 127 127 127 128 128 128 129 130 131 132 134 136 138 141 145 149 153 158 164 170 177 184 192 200 208 215 223 230 236 242 246 250 252 253 253 253 251 249 246 243 240 237 235 234 233 233 234 235 237 240 243 246 249 251 253 253 253 252 250 246 242 236 230 223 215 208 200 192 184 177 170 164 158 153 149 145 141 138 136 134 132 131 130 129 128 128 128 127 127 127 127 127 127 127 127 
127 127 127 127 127 127 127 127 128 128 128 129 130 131 132 134 136 138 141 144 148 153 158 163 169 176 183 191 198 206 214 221 228 235 240 245 249 251 253 253 253 252 250 248 245 242 240 238 237 236 236 237 238 240 242 245 248 250 252 253 253 253 251 249 245 240 235 228 221 214 206 198 191 183 176 169 163 158 153 148 144 141 138 136 134 132 131 130 129 128 128 128 127 127 127 127 127 127 127 127 
127 127 127 127 127 127 127 127 127 128 128 129 130 131 132 133 135 138 140 144 147 152 157 162 168 175 182 189 197 204 212 219 226 233 239 244 247 250 252 253 253 253 251 249 247 245 243 241 240 239 239 240 241 243 245 247 249 251 253 253 253 252 250 247 244 239 233 226 219 212 204 197 189 182 175 168 162 157 152 147 144 140 138 135 133 132 131 130 129 128 128 127 127 127 127 127 127 127 127 127 
127 127 127 127 127 127 127 127 127 128 128 129 130 131 132 133 135 137 140 143 147 151 155 161 167 173 180 187 194 202 210 217 224 231 236 242 246 249 252 253 253 253 252 251 249 248 246 245 244 243 243 244 245 246 248 249 251 252 253 253 253 252 249 246 242 236 231 224 217 210 202 194 187 180 173 167 161 155 151 147 143 140 137 135 133 132 131 130 129 128 128 127 127 127 127 127 127 127 127 127 
127 127 127 127 127 127 127 127 127 128 128 129 129 130 131 133 135 137 139 142 146 150 154 159 165 171 178 185 192 199 207 214 221 228 234 239 244 247 250 252 253 253 253 252 251 250 249 248 247 246 246 247 248 249 250 251 252 253 253 253 252 250 247 244 239 234 228 221 214 207 199 192 185 178 171 165 159 154 150 146 142 139 137 135 133 131 130 129 129 128 128 127 127 127 127 127 127 127 127 127 
127 127 127 127 127 127 127 127 127 128 128 129 129 130 131 133 134 136 139 141 145 149 153 158 163 169 175 182 189 197 204 211 218 225 231 236 241 245 248 251 252 253 253 253 253 252 251 250 250 249 249 250 250 251 252 253 253 253 253 252 251 248 245 241 236 231 225 218 211 204 197 189 182 175 169 163 158 153 149 145 141 139 136 134 133 131 130 129 129 128 128 127 127 127 127 127 127 127 127 127 
127 127 127 127 127 127 127 127 127 128 128 128 129 130 131 132 134 136 138 140 144 147 151 156 161 167 173 180 186 193 201 208 215 221 227 233 238 243 246 249 251 252 253 253 253 253 253 252 252 252 252 252 252 253 253 253 253 253 252 251 249 246 243 238 233 227 221 215 208 201 193 186 180 173 167 161 156 151 147 144 140 138 136 134 132 131 130 129 128 128 128 127 127 127 127 127 127 127 127 127 
127 127 127 127 127 127 127 127 127 127 128 128 129 130 131 132 133 135 137 140 143 146 150 154 159 165 170 177 183 190 197 204 211 217 224 229 235 239 243 246 249 251 252 253 253 254 253 253 253 253 253 253 253 253 253 253 253 252 251 249 246 243 239 235 229 224 217 211 204 197 190 183 177 170 165 159 154 150 146 143 140 137 135 133 132 131 130 129 128 128 127 127 127 127 127 127 127 127 127 127 
127 127 127 127 127 127 127 127 127 127 128 128 129 129 130 131 133 134 136 139 141 145 148 152 157 162 168 174 180 186 193 200 206 213 219 225 231 235 240 243 246 248 250 252 252 253 253 253 253 253 253 253 253 253 253 252 252 250 248 246 243 240 235 231 225 219 213 206 200 193 186 180 174 168 162 157 152 148 145 141 139 136 134 133 131 130 129 129 128 128 127 127 127 127 127 127 127 127 127 127 
127 127 127 127 127 127 127 127 127 127 128 128 128 129 130 131 132 134 135 138 140 143 147 150 155 160 165 170 176 183 189 195 202 208 215 220 226 231 235 239 243 245 247 249 250 251 252 252 253 253 253 253 252 252 251 250 249 247 245 243 239 235 231 226 220 215 208 202 195 189 183 176 170 165 160 155 150 147 143 140 138 135 134 132 131 130 129 128 128 128 127 127 127 127 127 127 127 127 127 127 
127 127 127 127 127 127 127 127 127 127 128 128 128 129 130 131 132 133 135 137 139 142 145 148 152 157 162 167 173 179 185 191 197 203 210 215 221 226 231 235 238 241 244 246 247 249 250 250 251 251 251 251 250 250 249 247 246 244 241 238 235 231 226 221 215 210 203 197 191 185 179 173 167 162 157 152 148 145 142 139 137 135 133 132 131 130 129 128 128 128 127 127 127 127 127 127 127 127 127 127 
127 127 127 127 127 127 127 127 127 127 127 128 128 129 129 130 131 132 134 136 138 140 143 147 150 154 159 164 169 175 180 186 192 198 204 210 215 220 225 229 233 236 239 242 244 245 246 247 248 248 248 248 247 246 245 244 242 239 236 233 229 225 220 215 210 204 198 192 186 180 175 169 164 159 154 150 147 143 140 138 136 134 132 131 130 129 129 128 128 127 127 127 127 127 127 127 127 127 127 127 
127 127 127 127 127 127 127 127 127 127 127 128 128 128 129 130 131 132 133 135 137 139 142 145 148 152 156 161 165 171 176 182 187 193 199 204 210 215 219 224 227 231 234 236 239 240 242 243 243 244 244 243 243 242 240 239 236 234 231 227 224 219 215 210 204 199 193 187 182 176 171 165 161 156 152 148 145 142 139 137 135 133 132 131 130 129 128 128 128 127 127 127 127 127 127 127 127 127 127 127 
127 127 127 127 127 127 127 127 127 127 127 127 128 128 129 129 130 131 132 134 136 138 140 143 146 149 153 157 162 167 172 177 182 188 193 198 203 208 213 217 221 225 228 231 233 235 236 237 238 238 238 238 237 236 235 233 231 228 225 221 217 213 208 203 198 193 188 182 177 172 167 162 157 153 149 146 143 140 138 136 134 132 131 130 129 129 128 128 127 127 127 127 127 127 127 127 127 127 127 127 
127 127 127 127 127 127 127 127 127 127 127 127 128 128 128 129 130 131 132 133 135 136 139 141 144 147 150 154 158 163 167 172 177 182 187 192 197 202 206 211 215 218 221 224 226 228 230 231 232 232 232 232 231 230 228 226 224 221 218 215 211 206 202 197 192 187 182 177 172 167 163 158 154 150 147 144 141 139 136 135 133 132 131 130 129 128 128 128 127 127 127 127 127 127 127 127 127 127 127 127 
127 127 127 127 127 127 127 127 127 127 127 127 127 128 128 129 129 130 131 132 134 135 137 139 142 145 148 151 155 159 163 168 172 177 182 186 191 195 200 204 208 211 214 217 219 221 223 224 225 225 225 225 224 223 221 219 217 214 211 208 204 200 195 191 186 182 177 172 168 163 159 155 151 148 145 142 139 137 135 134 132 131 130 129 129 128 128 127 127 127 127 127 127 127 127 127 127 127 127 127 
127 127 127 127 127 127 127 127 127 127 127 127 127 128 128 128 129 130 131 132 133 134 136 138 140 142 145 148 152 155 159 163 167 172 176 180 185 189 193 197 201 204 207 210 212 214 215 217 217 218 218 217 217 215 214 212 210 207 204 201 197 193 189 185 180 176 172 167 163 159 155 152 148 145 142 140 138 136 134 133 132 131 130 129 128 128 128 127 127 127 127 127 127 127 127 127 127 127 127 127 
127 127 127 127 127 127 127 127 127 127 127 127 127 127 128 128 129 129 130 131 132 133 135 136 138 140 143 146 149 152 155 159 163 167 171 175 179 183 186 190 193 197 199 202 204 206 208 209 210 210 210 210 209 208 206 204 202 199 197 193 190 186 183 179 175 171 167 163 159 155 152 149 146 143 140 138 136 135 133 132 131 130 129 129 128 128 127 127 127 127 127 127 127 127 127 127 127 127 127 127 
127 127 127 127 127 127 127 127 127 127 127 127 127 127 128 128 128 129 129 130 131 132 134 135 137 139 141 143 146 149 152 155 158 162 165 169 173 176 180 183 186 189 192 194 197 198 200 201 202 202 202 202 201 200 198 197 194 192 189 186 183 180 176 173 169 165 162 158 155 152 149 146 143 141 139 137 135 134 132 131 130 129 129 128 128 128 127 127 127 127 127 127 127 127 127 127 127 127 127 127 
127 127 127 127 127 127 127 127 127 127 127 127 127 127 127 128 128 128 129 130 130 131 132 134 135 137 139 141 143 146 148 151 154 157 161 164 167 170 174 177 180 182 185 187 189 191 192 193 194 194 194 194 193 192 191 189 187 185 182 180 177 174 170 167 164 161 157 154 151 148 146 143 141 139 137 135 134 132 131 130 130 129 128 128 128 127 127 127 127 127 127 127 127 127 127 127 127 127 127 127 
127 127 127 127 127 127 127 127 127 127 127 127 127 127 127 128 128 128 129 129 130 131 132 133 134 135 137 139 141 143 145 148 150 153 156 159 162 165 168 170 173 175 178 180 182 183 184 185 186 186 186 186 185 184 183 182 180 178 175 173 170 168 165 162 159 156 153 150 148 145 143 141 139 137 135 134 133 132 131 130 129 129 128 128 128 127 127 127 127 127 127 127 127 127 127 127 127 127 127 127 
127 127 127 127 127 127 127 127 127 127 127 127 127 127 127 127 128 128 128 129 129 130 131 132 133 134 135 137 139 140 142 145 147 149 152 154 157 160 162 165 167 169 171 173 175 176 177 178 179 179 179 179 178 177 176 175 173 171 169 167 165 162 160 157 154 152 149 147 145 142 140 139 137 135 134 133 132 131 130 129 129 128 128 128 127 127 127 127 127 127 127 127 127 127 127 127 127 127 127 127 
127 127 127 127 127 127 127 127 127 127 127 127 127 127 127 127 127 128 128 128 129 129 130 131 132 133 134 135 137 138 140 142 144 146 148 150 152 155 157 159 161 163 165 167 168 169 170 171 172 172 172 172 171 170 169 168 167 165 163 161 159 157 155 152 150 148 146 144 142 140 138 137 135 134 133 132 131 130 129 129 128 128 128 127 127 127 127 127 127 127 127 127 127 127 127 127 127 127 127 127 
127 127 127 127 127 127 127 127 127 127 127 127 127 127 127 127 127 127 128 128 128 129 129 130 131 132 133 134 135 136 138 139 141 143 145 147 148 150 152 154 156 158 159 161 162 163 164 165 165 165 165 165 165 164 163 162 161 159 158 156 154 152 150 148 147 145 143 141 139 138 136 135 134 133 132 131 130 129 129 128 128 128 127 127 127 127 127 127 127 127 127 127 127 127 127 127 127 127 127 127 
127 127 127 127 127 127 127 127 127 127 127 127 127 127 127 127 127 127 127 128 128 128 129 129 130 131 132 132 134 135 136 137 139 140 142 143 145 147 148 150 151 153 154 155 157 158 158 159 159 160 160 159 159 158 158 157 155 154 153 151 150 148 147 145 143 142 140 139 137 136 135 134 132 132 131 130 129 129 128 128 128 127 127 127 127 127 127 127 127 127 127 127 127 127 127 127 127 127 127 127 
127 127 127 127 127 127 127 127 127 127 127 127 127 127 127 127 127 127 127 128 128 128 128 129 129 130 131 131 132 133 134 135 136 138 139 140 142 143 145 146 147 149 150 151 152 153 153 154 154 154 154 154 154 153 153 152 151 150 149 147 146 145 143 142 140 139 138 136 135 134 133 132 131 131 130 129 129 128 128 128 128 127 127 127 127 127 127 127 127 127 127 127 127 127 127 127 127 127 127 127 
127 127 127 127 127 127 127 127 127 127 127 127 127 127 127 127 127 127 127 127 128 128 128 128 129 129 130 130 131 132 133 134 135 136 137 138 139 140 141 143 144 145 146 147 147 148 149 149 149 150 150 149 149 149 148 147 147 146 145 144 143 141 140 139 138 137 136 135 134 133 132 131 130 130 129 129 128 128 128 128 127 127 127 127 127 127 127 127 127 127 127 127 127 127 127 127 127 127 127 127 
127 127 127 127 127 127 127 127 127 127 127 127 127 127 127 127 127 127 127 127 127 128 128 128 128 129 129 130 130 131 132 132 133 134 135 136 137 138 139 140 140 141 142 143 144 144 145 145 145 145 145 145 145 145 144 144 143 142 141 140 140 139 138 137 136 135 134 133 132 132 131 130 130 129 129 128 128 128 128 127 127 127 127 127 127 127 127 127 127 127 127 127 127 127 127 127 127 127 127 127 
127 127 127 127 127 127 127 127 127 127 127 127 127 127 127 127 127 127 127 127 127 127 127 128 128 128 129 129 129 130 131 131 132 132 133 134 135 135 136 137 138 139 139 140 140 141 141 142 142 142 142 142 142 141 141 140 140 139 139 138 137 136 135 135 134 133 132 132 131 131 130 129 129 129 128 128 128 127 127 127 127 127 127 127 127 127 127 127 127 127 127 127 127 127 127 127 127 127 127 127 
127 127 127 127 127 127 127 127 127 127 127 127 127 127 127 127 127 127 127 127 127 127 127 127 128 128 128 128 129 129 130 130 131 131 132 132 133 134 134 135 136 136 137 137 138 138 138 139 139 139 139 139 139 138 138 138 137 137 136 136 135 134 134 133 132 132 131 131 130 130 129 129 128 128 128 128 127 127 127 127 127 127 127 127 127 127 127 127 127 127 127 127 127 127 127 127 127 127 127 127 
127 127 127 127 127 127 127 127 127 127 127 127 127 127 127 127 127 127 127 127 127 127 127 127 127 128 128 128 128 129 129 129 130 130 131 131 132 132 133 133 134 134 135 135 135 136 136 136 136 136 136 136 136 136 136 135 135 135 134 134 133 133 132 132 131 131 130 130 129 129 129 128 128 128 128 127 127 127 127 127 127 127 127 127 127 127 127 127 127 127 127 127 127 127 127 127 127 127 127 127 
127 127 127 127 127 127 127 127 127 127 127 127 127 127 127 127 127 127 127 127 127 127 127 127 127 127 128 128 128 128 128 129 129 129 130 130 131 131 131 132 132 133 133 133 133 134 134 134 134 134 134 134 134 134 134 133 133 133 133 132 132 131 131 131 130 130 129 129 129 128 128 128 128 128 127 127 127 127 127 127 127 127 127 127 127 127 127 127 127 127 127 127 127 127 127 127 127 127 127 127 
127 127 127 127 127 127 127 127 127 127 127 127 127 127 127 127 127 127 127 127 127 127 127 127 127 127 127 127 128 128 128 128 128 129 129 129 130 130 130 131 131 131 131 132 132 132 132 132 133 133 133 133 132 132 132 132 132 131 131 131 131 130 130 130 129 129 129 128 128 128 128 128 127 127 127 127 127 127 127 127 127 127 127 127 127 127 127 127 127 127 127 127 127 127 127 127 127 127 127 127 
127 127 127 127 127 127 127 127 127 127 127 127 127 127 127 127 127 127 127 127 127 127 127 127 127 127 127 127 127 127 128 128 128 128 128 129 129 129 129 130 130 130 130 131 131 131 131 131 131 131 131 131 131 131 131 131 131 130 130 130 130 129 129 129 129 128 128 128 128 128 127 127 127 127 127 127 127 127 127 127 127 127 127 127 127 127 127 127 127 127 127 127 127 127 127 127 127 127 127 127 
127 127 127 127 127 127 127 127 127 127 127 127 127 127 127 127 127 127 127 127 127 127 127 127 127 127 127 127 127 127 127 127 128 128 128 128 128 128 129 129 129 129 129 130 130 130 130 130 130 130 130 130 130 130 130 130 130 129 129 129 129 129 128 128 128 128 128 128 127 127 127 127 127 127 127 127 127 127 127 127 127 127 127 127 127 127 127 127 127 127 127 127 127 127 127 127 127 127 127 127 
127 127 127 127 127 127 127 127 127 127 127 127 127 127 127 127 127 127 127 127 127 127 127 127 127 127 127 127 127 127 127 127 127 127 128 128 128 128 128 128 128 129 129 129 129 129 129 129 129 129 129 129 129 129 129 129 129 129 129 128 128 128 128 128 128 128 127 127 127 127 127 127 127 127 127 127 127 127 127 127 127 127 127 127 127 127 127 127 127 127 127 127 127 127 127 127 127 127 127 127 
127 127 127 127 127 127 127 127 127 127 127 127 127 127 127 127 127 127 127 127 127 127 127 127 127 127 127 127 127 127 127 127 127 127 127 127 128 128 128 128 128 128 128 128 128 128 128 128 129 129 129 129 128 128 128 128 128 128 128 128 128 128 128 128 127 127 127 127 127 127 127 127 127 127 127 127 127 127 127 127 127 127 127 127 127 127 127 127 127 127 127 127 127 127 127 127 127 127 127 127 
127 127 127 127 127 127 127 127 127 127 127 127 127 127 127 127 127 127 127 127 127 127 127 127 127 127 127 127 127 127 127 127 127 127 127 127 127 127 127 127 128 128 128 128 128 128 128 128 128 128 128 128 128 128 128 128 128 128 128 128 127 127 127 127 127 127 127 127 127 127 127 127 127 127 127 127 127 127 127 127 127 127 127 127 127 127 127 127 127 127 127 127 127 127 127 127 127 127 127 127 
127 127 127 127 127 127 127 127 127 127 127 127 127 127 127 127 127 127 127 127 127 127 127 127 127 127 127 127 127 127 127 127 127 127 127 127 127 127 127 127 127 127 127 127 127 128 128 128 128 128 128 128 128 128 128 127 127 127 127 127 127 127 127 127 127 127 127 127 127 127 127 127 127 127 127 127 127 127 127 127 127 127 127 127 127 127 127 127 127 127 127 127 127 127 127 127 127 127 127 127 
127 127 127 127 127 127 127 127 127 127 127 127 127 127 127 127 127 127 127 127 127 127 127 127 127 127 127 127 127 127 127 127 127 127 127 127 127 127 127 127 127 127 127 127 127 127 127 127 127 127 127 127 127 127 127 127 127 127 127 127 127 127 127 127 127 127 127 127 127 127 127 127 127 127 127 127 127 127 127 127 127 127 127 127 127 127 127 127 127 127 127 127 127 127 127 127 127 127 127 127 
127 127 127 127 127 127 127 127 127 127 127 127 127 127 127 127 127 127 127 127 127 127 127 127 127 127 127 127 127 127 127 127 127 127 127 127 127 127 127 127 127 127 127 127 127 127 127 127 127 127 127 127 127 127 127 127 127 127 127 127 127 127 127 127 127 127 127 127 127 127 127 127 127 127 127 127 127 127 127 127 127 127 127 127 127 127 127 127 127 127 127 127 127 127 127 127 127 127 127 127 
127 127 127 127 127 127 127 127 127 127 127 127 127 127 127 127 127 127 127 127 127 127 127 127 127 127 127 127 127 127 127 127 127 127 127 127 127 127 127 127 127 127 127 127 127 127 127 127 127 127 127 127 127 127 127 127 127 127 127 127 127 127 127 127 127 127 127 127 127 127 127 127 127 127 127 127 127 127 127 127 127 127 127 127 127 127 127 127 127 127 127 127 127 127 127 127 127 127 127 127 
127 127 127 127 127 127 127 127 127 127 127 127 127 127 127 127 127 127 127 127 127 127 127 127 127 127 127 127 127 127 127 127 127 127 127 127 127 127 127 127 127 127 127 127 127 127 127 127 127 127 127 127 127 127 127 127 127 127 127 127 127 127 127 127 127 127 127 127 127 127 127 127 127 127 127 127 127 127 127 127 127 127 127 127 127 127 127 127 127 127 127 127 127 127 127 127 127 127 127 127 
127 127 127 127 127 127 127 127 127 127 127 127 127 127 127 127 127 127 127 127 127 127 127 127 127 127 127 127 127 127 127 127 127 127 127 127 127 127 127 127 127 127 127 127 127 127 127 127 127 127 127 127 127 127 127 127 127 127 127 127 127 127 127 127 127 127 127 127 127 127 127 127 127 127 127 127 127 127 127 127 127 127 127 127 127 127 127 127 127 127 127 127 127 127 127 127 127 127 127 127 
127 127 127 127 127 127 127 127 127 127 127 127 127 127 127 127 127 127 127 127 127 127 127 127 127 127 127 127 127 127 127 127 127 127 127 127 127 127 127 127 127 127 127 127 127 127 127 127 127 127 127 127 127 127 127 127 127 127 127 127 127 127 127 127 127 127 127 127 127 127 127 127 127 127 127 127 127 127 127 127 127 127 127 127 127 127 127 127 127 127 127 127 127 127 127 127 127 127 127 127 
127 127 127 127 127 127 127 127 127 127 127 127 127 127 127 127 127 127 127 127 127 127 127 127 127 127 127 127 127 127 127 127 127 127 127 127 127 127 127 127 127 127 127 127 127 127 127 127 127 127 127 127 127 127 127 127 127 127 127 127 127 127 127 127 127 127 127 127 127 127 127 127 127 127 127 127 127 127 127 127 127 127 127 127 127 127 127 127 127 127 127 127 127 127 127 127 127 127 127 127 
127 127 127 127 127 127 127 127 127 127 127 127 127 127 127 127 127 127 127 127 127 127 127 127 127 127 127 127 127 127 127 127 127 127 127 127 127 127 127 127 127 127 127 127 127 127 127 127 127 127 127 127 127 127 127 127 127 127 127 127 127 127 127 127 127 127 127 127 127 127 127 127 127 127 127 127 127 127 127 127 127 127 127 127 127 127 127 127 127 127 127 127 127 127 127 127 127 127 127 127 
