P2
100 100
255
127 127 127 127 127 127 127 127 127 127 127 127 127 127 127 127 127 127 127 127 127 127 127 127 127 127 127 127 127 127 127 127 127 127 127 127 127 127 127 127 127 127 127 127 127 127 127 127 127 127 127 127 127 127 127 127 127 127 127 127 127 127 127 127 127 127 127 127 127 127 127 127 127 127 127 127 127 127 127 127 127 127 127 127 127 127 127 127 127 127 127 127 127 127 127 127 127 127 127 127 
127 127 127 127 127 127 127 127 127 127 127 127 127 127 127 127 127 127 127 127 127 127 127 127 127 127 127 127 127 127 127 127 127 127 127 127 127 127 127 127 127 127 127 127 127 127 127 127 127 127 127 127 127 127 127 127 127 127 127 127 127 127 127 127 127 127 127 127 127 127 127 127 127 127 127 127 127 127 127 127 127 127 127 127 127 127 127 127 127 127 127 127 127 127 127 127 127 127 127 127 
127 127 127 127 127 127 127 127 127 127 127 127 127 127 127 127 127 127 127 127 127 127 127 127 127 127 127 127 127 127 127 127 127 127 127 127 127 127 127 127 127 127 127 127 127 127 127 127 127 127 127 127 127 127 127 127 127 127 127 127 127 127 127 127 127 127 127 127 127 127 127 127 127 127 127 127 127 127 127 127 127 127 127 127 127 127 127 127 127 127 127 127 127 127 127 127 127 127 127 127 
127 127 127 127 127 127 127 127 127 127 127 127 127 127 127 127 127 127 127 127 127 127 127 127 127 127 127 127 127 127 127 127 127 127 127 127 127 127 127 127 127 127 127 128 128 128 128 128 128 128 128 128 128 128 128 128 128 127 127 127 127 127 127 127 127 127 127 127 127 127 127 127 127 127 127 127 127 127 127 127 127 127 127 127 127 127 127 127 127 127 127 127 127 127 127 127 127 127 127 127 
127 127 127 127 127 127 127 127 127 127 127 127 127 127 127 127 127 127 127 127 127 127 127 127 127 127 127 127 127 127 127 127 127 127 127 127 127 128 128 128 128 128 128 128 128 128 128 128 128 128 128 128 128 128 128 128 128 128 128 128 128 128 128 127 127 127 127 127 127 127 127 127 127 127 127 127 127 127 127 127 127 127 127 127 127 127 127 127 127 127 127 127 127 127 127 127 127 127 127 127 
127 127 127 127 127 127 127 127 127 127 127 127 127 127 127 127 127 127 127 127 127 127 127 127 127 127 127 127 127 127 127 127 127 127 128 128 128 128 128 128 128 128 129 129 129 129 129 129 129 129 129 129 129 129 129 129 129 129 128 128 128 128 128 128 128 128 127 127 127 127 127 127 127 127 127 127 127 127 127 127 127 127 127 127 127 127 127 127 127 127 127 127 127 127 127 127 127 127 127 127 
127 127 127 127 127 127 127 127 127 127 127 127 127 127 127 127 127 127 127 127 127 127 127 127 127 127 127 127 127 127 127 128 128 128 128 128 128 128 129 129 129 129 129 129 129 130 130 130 130 130 130 130 130 130 130 129 129 129 129 129 129 129 128 128 128 128 128 128 128 127 127 127 127 127 127 127 127 127 127 127 127 127 127 127 127 127 127 127 127 127 127 127 127 127 127 127 127 127 127 127 
127 127 127 127 127 127 127 127 127 127 127 127 127 127 127 127 127 127 127 127 127 127 127 127 127 127 127 127 127 128 128 128 128 128 128 129 129 129 129 130 130 130 130 130 130 131 131 131 131 131 131 131 131 131 131 130 130 130 130 130 130 129 129 129 129 128 128 128 128 128 128 127 127 127 127 127 127 127 127 127 127 127 127 127 127 127 127 127 127 127 127 127 127 127 127 127 127 127 127 127 
127 127 127 127 127 127 127 127 127 127 127 127 127 127 127 127 127 127 127 127 127 127 127 127 127 127 127 128 128 128 128 128 129 129 129 129 130 130 130 131 131 131 131 132 132 132 132 132 132 132 132 132 132 132 132 132 132 131 131 131 131 130 130 130 129 129 129 129 128 128 128 128 128 127 127 127 127 127 127 127 127 127 127 127 127 127 127 127 127 127 127 127 127 127 127 127 127 127 127 127 
127 127 127 127 127 127 127 127 127 127 127 127 127 127 127 127 127 127 127 127 127 127 127 127 127 128 128 128 128 128 129 129 129 130 130 130 131 131 131 132 132 132 133 133 133 133 134 134 134 134 134 134 134 134 133 133 133 133 132 132 132 131 131 131 130 130 130 129 129 129 128 128 128 128 128 127 127 127 127 127 127 127 127 127 127 127 127 127 127 127 127 127 127 127 127 127 127 127 127 127 
127 127 127 127 127 127 127 127 127 127 127 127 127 127 127 127 127 127 127 127 127 127 127 127 128 128 128 128 129 129 129 130 130 131 131 131 132 132 133 133 134 134 134 135 135 135 136 136 136 136 136 136 136 136 135 135 135 134 134 134 133 133 132 132 131 131 131 130 130 129 129 129 128 128 128 128 127 127 127 127 127 127 127 127 127 127 127 127 127 127 127 127 127 127 127 127 127 127 127 127 
127 127 127 127 127 127 127 127 127 127 127 127 127 127 127 127 127 127 127 127 127 127 128 128 128 128 129 129 129 130 130 131 131 132 132 133 133 134 135 135 136 136 137 137 137 138 138 138 138 139 139 138 138 138 138 137 137 137 136 136 135 135 134 133 133 132 132 131 131 130 130 129 129 129 128 128 128 128 127 127 127 127 127 127 127 127 127 127 127 127 127 127 127 127 127 127 127 127 127 127 
127 127 127 127 127 127 127 127 127 127 127 127 127 127 127 127 127 127 127 127 127 128 128 128 128 129 129 130 130 131 131 132 132 133 134 134 135 136 137 137 138 139 139 140 140 141 141 141 141 142 142 141 141 141 141 140 140 139 139 138 137 137 136 135 134 134 133 132 132 131 131 130 130 129 129 128 128 128 128 127 127 127 127 127 127 127 127 127 127 127 127 127 127 127 127 127 127 127 127 127 
127 127 127 127 127 127 127 127 127 127 127 127 127 127 127 127 127 127 127 127 128 128 128 129 129 129 130 130 131 132 132 133 134 135 136 137 137 138 139 140 141 142 142 143 144 144 145 145 145 145 145 145 145 145 144 144 143 142 142 141 140 139 138 137 137 136 135 134 133 132 132 131 130 130 129 129 129 128 128 128 127 127 127 127 127 127 127 127 127 127 127 127 127 127 127 127 127 127 127 127 
127 127 127 127 127 127 127 127 127 127 127 127 127 127 127 127 127 127 127 128 128 128 129 129 130 130 131 131 132 133 134 135 136 137 138 139 140 141 142 143 144 145 146 147 148 148 149 149 149 149 149 149 149 149 148 148 147 146 145 144 143 142 141 140 139 138 137 136 135 134 133 132 131 131 130 130 129 129 128 128 128 127 127 127 127 127 127 127 127 127 127 127 127 127 127 127 127 127 127 127 
127 127 127 127 127 127 127 127 127 127 127 127 127 127 127 127 127 128 128 128 128 129 129 130 130 131 132 133 134 135 136 137 138 139 141 142 143 144 146 147 148 149 150 151 152 153 153 154 154 154 154 154 154 153 153 152 151 150 149 148 147 146 144 143 142 141 139 138 137 136 135 134 133 132 131 130 130 129 129 128 128 128 128 127 127 127 127 127 127 127 127 127 127 127 127 127 127 127 127 127 
127 127 127 127 127 127 127 127 127 127 127 127 127 127 127 127 128 128 128 128 129 129 130 131 131 132 133 134 135 137 138 139 141 142 144 145 147 148 150 151 153 154 155 156 157 158 159 159 160 160 160 160 159 159 158 157 156 155 154 153 151 150 148 147 145 144 142 141 139 138 137 135 134 133 132 131 131 130 129 129 128 128 128 128 127 127 127 127 127 127 127 127 127 127 127 127 127 127 127 127 
127 127 127 127 127 127 127 127 127 127 127 127 127 127 127 128 128 128 128 129 129 130 131 132 133 134 135 136 137 139 140 142 144 145 147 149 151 153 154 156 158 159 161 162 163 164 165 166 166 166 166 166 166 165 164 163 162 161 159 158 156 154 153 151 149 147 145 144 142 140 139 137 136 135 134 133 132 131 130 129 129 128 128 128 128 127 127 127 127 127 127 127 127 127 127 127 127 127 127 127 
127 127 127 127 127 127 127 127 127 127 127 127 127 127 127 128 128 128 129 129 130 131 132 133 134 135 136 138 140 141 143 145 147 149 151 153 156 158 160 162 164 165 167 168 170 171 172 172 173 173 173 173 172 172 171 170 168 167 165 164 162 160 158 156 153 151 149 147 145 143 141 140 138 136 135 134 133 132 131 130 129 129 128 128 128 127 127 127 127 127 127 127 127 127 127 127 127 127 127 127 
127 127 127 127 127 127 127 127 127 127 127 127 127 127 128 128 128 129 129 130 131 132 133 134 135 137 138 140 142 144 146 149 151 153 156 158 161 163 166 168 170 172 174 175 177 178 179 180 180 181 181 180 180 179 178 177 175 174 172 170 168 166 163 161 158 156 153 151 149 146 144 142 140 138 137 135 134 133 132 131 130 129 129 128 128 128 127 127 127 127 127 127 127 127 127 127 127 127 127 127 
127 127 127 127 127 127 127 127 127 127 127 127 127 128 128 128 129 129 130 131 132 133 134 136 137 139 141 143 145 148 150 153 155 158 161 164 167 169 172 174 177 179 181 183 185 186 187 188 188 189 189 188 188 187 186 185 183 181 179 177 174 172 169 167 164 161 158 155 153 150 148 145 143 141 139 137 136 134 133 132 131 130 129 129 128 128 128 127 127 127 127 127 127 127 127 127 127 127 127 127 
127 127 127 127 127 127 127 127 127 127 127 127 128 128 128 129 129 130 131 132 133 134 136 137 139 141 143 146 148 151 154 157 160 163 167 170 173 176 179 182 184 187 189 191 193 194 195 196 197 197 197 197 196 195 194 193 191 189 187 184 182 179 176 173 170 167 163 160 157 154 151 148 146 143 141 139 137 136 134 133 132 131 130 129 129 128 128 128 127 127 127 127 127 127 127 127 127 127 127 127 
127 127 127 127 127 127 127 127 127 127 127 128 128 128 129 129 130 131 132 133 134 136 137 139 142 144 146 149 152 155 159 162 166 169 173 176 180 183 186 189 192 195 197 199 201 203 204 205 205 206 206 205 205 204 203 201 199 197 195 192 189 186 183 180 176 173 169 166 162 159 155 152 149 146 144 142 139 137 136 134 133 132 131 130 129 129 128 128 128 127 127 127 127 127 127 127 127 127 127 127 
127 127 127 127 127 127 127 127 127 127 127 128 128 129 129 130 131 132 133 134 136 137 139 142 144 147 150 153 156 160 164 167 171 175 179 183 187 190 194 197 200 203 205 208 209 211 212 213 214 214 214 214 213 212 211 209 208 205 203 200 197 194 190 187 183 179 175 171 167 164 160 156 153 150 147 144 142 139 137 136 134 133 132 131 130 129 129 128 128 127 127 127 127 127 127 127 127 127 127 127 
127 127 127 127 127 127 127 127 127 127 128 128 128 129 130 130 131 133 134 135 137 139 142 144 147 150 153 157 161 165 169 173 177 182 186 190 194 198 202 205 208 211 214 216 218 219 221 222 222 223 223 222 222 221 219 218 216 214 211 208 205 202 198 194 190 186 182 177 173 169 165 161 157 153 150 147 144 142 139 137 135 134 133 131 130 130 129 128 128 128 127 127 127 127 127 127 127 127 127 127 
127 127 127 127 127 127 127 127 127 128 128 128 129 129 130 131 132 134 135 137 139 141 144 147 150 154 157 161 165 170 174 179 184 188 193 197 202 206 209 213 216 219 222 224 226 228 229 230 230 231 231 230 230 229 228 226 224 222 219 216 213 209 206 202 197 193 188 184 179 174 170 165 161 157 154 150 147 144 141 139 137 135 134 132 131 130 129 129 128 128 128 127 127 127 127 127 127 127 127 127 
127 127 127 127 127 127 127 127 127 128 128 129 129 130 131 132 133 135 136 138 141 143 146 150 153 157 161 166 171 175 180 185 190 195 200 205 209 213 217 221 224 227 229 232 233 235 236 237 238 238 238 238 237 236 235 233 232 229 227 224 221 217 213 209 205 200 195 190 185 180 175 171 166 161 157 153 150 146 143 141 138 136 135 133 132 131 130 129 129 128 128 127 127 127 127 127 127 127 127 127 
127 127 127 127 127 127 127 127 128 128 128 129 130 130 131 133 134 136 138 140 143 146 149 153 157 161 166 171 176 181 186 192 197 202 207 212 217 221 225 228 231 234 236 238 240 241 243 243 244 244 244 244 243 243 241 240 238 236 234 231 228 225 221 217 212 207 202 197 192 186 181 176 171 166 161 157 153 149 146 143 140 138 136 134 133 131 130 130 129 128 128 128 127 127 127 127 127 127 127 127 
127 127 127 127 127 127 127 127 128 128 129 129 130 131 132 134 135 137 140 142 145 148 152 156 161 165 171 176 181 187 193 198 204 209 214 219 224 228 232 235 238 240 243 244 246 247 248 248 249 249 249 249 248 248 247 246 244 243 240 238 235 232 228 224 219 214 209 204 198 193 187 181 176 171 165 161 156 152 148 145 142 140 137 135 134 132 131 130 129 129 128 128 127 127 127 127 127 127 127 127 
127 127 127 127 127 127 127 128 128 128 129 130 131 132 133 135 137 139 141 144 148 151 155 160 165 170 175 181 187 193 199 205 210 216 221 226 230 234 238 241 244 246 247 249 250 251 251 252 252 252 252 252 252 251 251 250 249 247 246 244 241 238 234 230 226 221 216 210 205 199 193 187 181 175 170 165 160 155 151 148 144 141 139 137 135 133 132 131 130 129 128 128 128 127 127 127 127 127 127 127 
127 127 127 127 127 127 127 128 128 129 129 130 131 132 134 136 138 140 143 146 150 154 159 164 169 174 180 186 193 199 205 211 217 222 228 232 236 240 243 246 248 250 251 252 253 253 253 253 253 253 253 253 253 253 253 253 252 251 250 248 246 243 240 236 232 228 222 217 211 205 199 193 186 180 174 169 164 159 154 150 146 143 140 138 136 134 132 131 130 129 129 128 128 127 127 127 127 127 127 127 
127 127 127 127 127 127 128 128 128 129 130 131 132 133 135 137 139 142 145 149 153 157 162 167 173 179 185 192 198 205 211 217 223 228 233 238 242 245 248 250 251 252 253 253 253 253 253 253 253 253 253 253 253 253 253 253 253 253 252 251 250 248 245 242 238 233 228 223 217 211 205 198 192 185 179 173 167 162 157 153 149 145 142 139 137 135 133 132 131 130 129 128 128 128 127 127 127 127 127 127 
127 127 127 127 127 127 128 128 129 129 130 131 132 134 136 138 141 144 147 151 155 160 166 171 177 184 190 197 204 210 217 223 229 234 239 243 246 249 251 252 253 253 253 253 252 252 251 251 250 250 250 250 251 251 252 252 253 253 253 253 252 251 249 246 243 239 234 229 223 217 210 204 197 190 184 177 171 166 160 155 151 147 144 141 138 136 134 132 131 130 129 129 128 128 127 127 127 127 127 127 
127 127 127 127 127 127 128 128 129 130 131 132 133 135 137 139 142 145 149 153 158 163 169 175 182 188 195 202 209 216 222 228 234 239 243 247 250 252 253 253 253 253 252 251 250 248 247 246 245 245 245 245 246 247 248 250 251 252 253 253 253 253 252 250 247 243 239 234 228 222 216 209 202 195 188 182 175 169 163 158 153 149 145 142 139 137 135 133 132 131 130 129 128 128 127 127 127 127 127 127 
127 127 127 127 127 128 128 128 129 130 131 132 134 136 138 141 144 147 151 156 161 167 173 179 186 193 200 207 214 221 228 233 239 243 247 250 252 253 253 253 252 251 249 247 245 243 241 239 238 238 238 238 239 241 243 245 247 249 251 252 253 253 253 252 250 247 243 239 233 228 221 214 207 200 193 186 179 173 167 161 156 151 147 144 141 138 136 134 132 131 130 129 128 128 128 127 127 127 127 127 
127 127 127 127 127 128 128 129 129 130 131 133 134 137 139 142 145 149 153 158 164 170 176 183 190 197 205 212 219 226 232 238 243 247 250 252 253 253 253 251 249 247 244 241 238 235 232 230 229 228 228 229 230 232 235 238 241 244 247 249 251 253 253 253 252 250 247 243 238 232 226 219 212 205 197 190 183 176 170 164 158 153 149 145 142 139 137 134 133 131 130 129 129 128 128 127 127 127 127 127 
127 127 127 127 127 128 128 129 130 131 132 133 135 137 140 143 147 151 156 161 167 173 180 187 194 202 209 217 224 230 236 242 246 250 252 253 253 253 251 248 245 241 237 233 229 225 222 220 218 217 217 218 220 222 225 229 233 237 241 245 248 251 253 253 253 252 250 246 242 236 230 224 217 209 202 194 187 180 173 167 161 156 151 147 143 140 137 135 133 132 131 130 129 128 128 127 127 127 127 127 
127 127 127 127 128 128 128 129 130 131 132 134 136 138 141 144 148 153 158 163 169 176 183 190 198 206 213 221 228 234 240 245 249 252 253 253 253 251 248 244 239 234 229 224 219 214 210 207 205 204 204 205 207 210 214 219 224 229 234 239 244 248 251 253 253 253 252 249 245 240 234 228 221 213 206 198 190 183 176 169 163 158 153 148 144 141 138 136 134 132 131 130 129 128 128 128 127 127 127 127 
127 127 127 127 128 128 129 129 130 131 133 135 137 139 142 146 150 154 160 166 172 179 186 194 202 209 217 225 232 238 243 248 251 253 253 253 251 248 243 238 232 226 220 213 207 202 197 193 191 189 189 191 193 197 202 207 213 220 226 232 238 243 248 251 253 253 253 251 248 243 238 232 225 217 209 202 194 186 179 172 166 160 154 150 146 142 139 137 135 133 131 130 129 129 128 128 127 127 127 127 
127 127 127 127 128 128 129 130 131 132 133 135 137 140 143 147 151 156 162 168 174 182 189 197 205 213 221 228 235 241 246 250 252 253 253 251 248 244 238 232 225 217 209 202 195 188 183 178 175 174 174 175 178 183 188 195 202 209 217 225 232 238 244 248 251 253 253 252 250 246 241 235 228 221 213 205 197 189 182 174 168 162 156 151 147 143 140 137 135 133 132 131 130 129 128 128 127 127 127 127 
127 127 127 127 128 128 129 130 131 132 134 136 138 141 144 148 153 158 164 170 177 184 192 200 208 216 224 231 238 244 248 251 253 253 252 249 245 239 232 225 216 207 198 189 181 174 168 163 159 158 158 159 163 168 174 181 189 198 207 216 225 232 239 245 249 252 253 253 251 248 244 238 231 224 216 208 200 192 184 177 170 164 158 153 148 144 141 138 136 134 132 131 130 129 128 128 127 127 127 127 
127 127 127 127 128 128 129 130 131 132 134 136 139 142 145 149 154 159 165 172 179 187 195 203 211 219 227 234 240 246 250 252 253 253 251 247 241 234 226 217 207 197 187 177 168 159 153 147 143 141 141 143 147 153 159 168 177 187 197 207 217 226 234 241 247 251 253 253 252 250 246 240 234 227 219 211 203 195 187 179 172 165 159 154 149 145 142 139 136 134 132 131 130 129 128 128 127 127 127 127 
127 127 127 127 128 129 129 130 131 133 134 137 139 142 146 150 155 161 167 174 181 189 197 205 214 222 229 236 243 247 251 253 253 252 249 244 237 229 220 209 198 187 175 164 154 145 138 132 128 126 126 128 132 138 145 154 164 175 187 198 209 220 229 237 244 249 252 253 253 251 247 243 236 229 222 214 205 197 189 181 174 167 161 155 150 146 142 139 137 134 133 131 130 129 129 128 127 127 127 127 
127 127 127 128 128 129 129 130 132 133 135 137 140 143 147 151 156 162 168 175 183 191 199 208 216 224 232 238 244 249 252 253 253 251 247 241 233 224 213 202 189 177 164 153 141 132 124 118 113 111 111 113 118 124 132 141 153 164 177 189 202 213 224 233 241 247 251 253 253 252 249 244 238 232 224 216 208 199 191 183 175 168 162 156 151 147 143 140 137 135 133 132 130 129 129 128 128 127 127 127 
127 127 127 128 128 129 129 130 132 133 135 137 140 144 148 152 157 163 170 177 185 193 201 209 218 226 233 240 246 250 253 253 252 250 245 238 229 219 207 195 181 168 154 141 130 120 111 104 100 97 97 100 104 111 120 130 141 154 168 181 195 207 219 229 238 245 250 252 253 253 250 246 240 233 226 218 209 201 193 185 177 170 163 157 152 148 144 140 137 135 133 132 130 129 129 128 128 127 127 127 
127 127 127 128 128 129 130 131 132 133 135 138 141 144 148 153 158 164 171 178 186 194 203 211 219 228 235 241 247 251 253 253 252 248 243 235 225 214 202 188 174 159 145 132 120 109 100 92 87 85 85 87 92 100 109 120 132 145 159 174 188 202 214 225 235 243 248 252 253 253 251 247 241 235 228 219 211 203 194 186 178 171 164 158 153 148 144 141 138 135 133 132 131 130 129 128 128 127 127 127 
127 127 127 128 128 129 130 131 132 134 136 138 141 145 149 153 159 165 172 179 187 195 204 212 221 229 236 243 248 251 253 253 251 247 241 232 222 210 197 183 168 153 138 124 111 100 90 82 77 74 74 77 82 90 100 111 124 138 153 168 183 197 210 222 232 241 247 251 253 253 251 248 243 236 229 221 212 204 195 187 179 172 165 159 153 149 145 141 138 136 134 132 131 130 129 128 128 127 127 127 
127 127 127 128 128 129 130 131 132 134 136 138 141 145 149 154 159 166 172 180 188 196 205 213 222 230 237 243 248 252 253 253 251 246 239 230 220 207 193 178 163 147 132 118 104 92 82 74 69 66 66 69 74 82 92 104 118 132 147 163 178 193 207 220 230 239 246 251 253 253 252 248 243 237 230 222 213 205 196 188 180 172 166 159 154 149 145 141 138 136 134 132 131 130 129 128 128 127 127 127 
127 127 127 128 128 129 130 131 132 134 136 138 141 145 149 154 160 166 173 180 188 197 205 214 222 230 238 244 249 252 253 253 250 245 238 229 218 205 191 175 159 143 128 113 100 87 77 69 63 61 61 63 69 77 87 100 113 128 143 159 175 191 205 218 229 238 245 250 253 253 252 249 244 238 230 222 214 205 197 188 180 173 166 160 154 149 145 141 138 136 134 132 131 130 129 128 128 127 127 127 
127 127 127 128 128 129 130 131 132 134 136 139 142 145 149 154 160 166 173 181 189 197 206 214 223 231 238 244 249 252 253 253 250 245 238 228 217 204 189 174 158 141 126 111 97 85 74 66 61 58 58 61 66 74 85 97 111 126 141 158 174 189 204 217 228 238 245 250 253 253 252 249 244 238 231 223 214 206 197 189 181 173 166 160 154 149 145 142 139 136 134 132 131 130 129 128 128 127 127 127 
127 127 127 128 128 129 130 131 132 134 136 139 142 145 149 154 160 166 173 181 189 197 206 214 223 231 238 244 249 252 253 253 250 245 238 228 217 204 189 174 158 141 126 111 97 85 74 66 61 58 58 61 66 74 85 97 111 126 141 158 174 189 204 217 228 238 245 250 253 253 252 249 244 238 231 223 214 206 197 189 181 173 166 160 154 149 145 142 139 136 134 132 131 130 129 128 128 127 127 127 
127 127 127 128 128 129 130 131 132 134 136 138 141 145 149 154 160 166 173 180 188 197 205 214 222 230 238 244 249 252 253 253 250 245 238 229 218 205 191 175 159 143 128 113 100 87 77 69 63 61 61 63 69 77 87 100 113 128 143 159 175 191 205 218 229 238 245 250 253 253 252 249 244 238 230 222 214 205 197 188 180 173 166 160 154 149 145 141 138 136 134 132 131 130 129 128 128 127 127 127 
127 127 127 128 128 129 130 131 132 134 136 138 141 145 149 154 159 166 172 180 188 196 205 213 222 230 237 243 248 252 253 253 251 246 239 230 220 207 193 178 163 147 132 118 104 92 82 74 69 66 66 69 74 82 92 104 118 132 147 163 178 193 207 220 230 239 246 251 253 253 252 248 243 237 230 222 213 205 196 188 180 172 166 159 154 149 145 141 138 136 134 132 131 130 129 128 128 127 127 127 
127 127 127 128 128 129 130 131 132 134 136 138 141 145 149 153 159 165 172 179 187 195 204 212 221 229 236 243 248 251 253 253 251 247 241 232 222 210 197 183 168 153 138 124 111 100 90 82 77 74 74 77 82 90 100 111 124 138 153 168 183 197 210 222 232 241 247 251 253 253 251 248 243 236 229 221 212 204 195 187 179 172 165 159 153 149 145 141 138 136 134 132 131 130 129 128 128 127 127 127 
127 127 127 128 128 129 130 131 132 133 135 138 141 144 148 153 158 164 171 178 186 194 203 211 219 228 235 241 247 251 253 253 252 248 243 235 225 214 202 188 174 159 145 132 120 109 100 92 87 85 85 87 92 100 109 120 132 145 159 174 188 202 214 225 235 243 248 252 253 253 251 247 241 235 228 219 211 203 194 186 178 171 164 158 153 148 144 141 138 135 133 132 131 130 129 128 128 127 127 127 
127 127 127 128 128 129 129 130 132 133 135 137 140 144 148 152 157 163 170 177 185 193 201 209 218 226 233 240 246 250 253 253 252 250 245 238 229 219 207 195 181 168 154 141 130 120 111 104 100 97 97 100 104 111 120 130 141 154 168 181 195 207 219 229 238 245 250 252 253 253 250 246 240 233 226 218 209 201 193 185 177 170 163 157 152 148 144 140 137 135 133 132 130 129 129 128 128 127 127 127 
127 127 127 128 128 129 129 130 132 133 135 137 140 143 147 151 156 162 168 175 183 191 199 208 216 224 232 238 244 249 252 253 253 251 247 241 233 224 213 202 189 177 164 153 141 132 124 118 113 111 111 113 118 124 132 141 153 164 177 189 202 213 224 233 241 247 251 253 253 252 249 244 238 232 224 216 208 199 191 183 175 168 162 156 151 147 143 140 137 135 133 132 130 129 129 128 128 127 127 127 
127 127 127 127 128 129 129 130 131 133 134 137 139 142 146 150 155 161 167 174 181 189 197 205 214 222 229 236 243 247 251 253 253 252 249 244 237 229 220 209 198 187 175 164 154 145 138 132 128 126 126 128 132 138 145 154 164 175 187 198 209 220 229 237 244 249 252 253 253 251 247 243 236 229 222 214 205 197 189 181 174 167 161 155 150 146 142 139 137 134 133 131 130 129 129 128 127 127 127 127 
127 127 127 127 128 128 129 130 131 132 134 136 139 142 145 149 154 159 165 172 179 187 195 203 211 219 227 234 240 246 250 252 253 253 251 247 241 234 226 217 207 197 187 177 168 159 153 147 143 141 141 143 147 153 159 168 177 187 197 207 217 226 234 241 247 251 253 253 252 250 246 240 234 227 219 211 203 195 187 179 172 165 159 154 149 145 142 139 136 134 132 131 130 129 128 128 127 127 127 127 
127 127 127 127 128 128 129 130 131 132 134 136 138 141 144 148 153 158 164 170 177 184 192 200 208 216 224 231 238 244 248 251 253 253 252 249 245 239 232 225 216 207 198 189 181 174 168 163 159 158 158 159 163 168 174 181 189 198 207 216 225 232 239 245 249 252 253 253 251 248 244 238 231 224 216 208 200 192 184 177 170 164 158 153 148 144 141 138 136 134 132 131 130 129 128 128 127 127 127 127 
127 127 127 127 128 128 129 130 131 132 133 135 137 140 143 147 151 156 162 168 174 182 189 197 205 213 221 228 235 241 246 250 252 253 253 251 248 244 238 232 225 217 209 202 195 188 183 178 175 174 174 175 178 183 188 195 202 209 217 225 232 238 244 248 251 253 253 252 250 246 241 235 228 221 213 205 197 189 182 174 168 162 156 151 147 143 140 137 135 133 132 131 130 129 128 128 127 127 127 127 
127 127 127 127 128 128 129 129 130 131 133 135 137 139 142 146 150 154 160 166 172 179 186 194 202 209 217 225 232 238 243 248 251 253 254 253 251 248 243 238 232 226 220 213 207 202 197 193 191 189 189 191 193 197 202 207 213 220 226 232 238 243 248 251 253 253 253 251 248 243 238 232 225 217 209 202 194 186 179 172 166 160 154 150 146 142 139 137 135 133 131 130 129 129 128 128 127 127 127 127 
127 127 127 127 128 128 128 129 130 131 132 134 136 138 141 144 148 153 158 163 169 176 183 190 198 206 213 221 228 234 240 245 249 252 253 253 253 251 248 244 239 234 229 224 219 214 210 207 205 204 204 205 207 210 214 219 224 229 234 239 244 248 251 253 253 253 252 249 245 240 234 228 221 213 206 198 190 183 176 169 163 158 153 148 144 141 138 136 134 132 131 130 129 128 128 128 127 127 127 127 
127 127 127 127 127 128 128 129 130 131 132 133 135 137 140 143 147 151 156 161 167 173 180 187 194 202 209 217 224 230 236 242 246 250 252 253 253 253 251 248 245 241 237 233 229 225 222 220 218 217 217 218 220 222 225 229 233 237 241 245 248 251 253 253 253 252 250 246 242 236 230 224 217 209 202 194 187 180 173 167 161 156 151 147 143 140 137 135 133 132 131 130 129 128 128 127 127 127 127 127 
127 127 127 127 127 128 128 129 129 130 131 133 134 137 139 142 145 149 153 158 164 170 176 183 190 197 205 212 219 226 232 238 243 247 250 252 253 253 253 251 249 247 244 241 238 235 232 230 229 228 228 229 230 232 235 238 241 244 247 249 251 253 253 253 252 250 247 243 238 232 226 219 212 205 197 190 183 176 170 164 158 153 149 145 142 139 137 134 133 131 130 129 129 128 128 127 127 127 127 127 
127 127 127 127 127 128 128 128 129 130 131 132 134 136 138 141 144 147 151 156 161 167 173 179 186 193 200 207 214 221 228 233 239 243 247 250 252 253 253 253 252 251 249 247 245 243 241 239 238 238 238 238 239 241 243 245 247 249 251 252 253 253 253 252 250 247 243 239 233 228 221 214 207 200 193 186 179 173 167 161 156 151 147 144 141 138 136 134 132 131 130 129 128 128 128 127 127 127 127 127 
127 127 127 127 127 127 128 128 129 130 131 132 133 135 137 139 142 145 149 153 158 163 169 175 182 188 195 202 209 216 222 228 234 239 243 247 250 252 253 253 253 253 252 251 250 248 247 246 245 245 245 245 246 247 248 250 251 252 253 253 253 253 252 250 247 243 239 234 228 222 216 209 202 195 188 182 175 169 163 158 153 149 145 142 139 137 135 133 132 131 130 129 128 128 127 127 127 127 127 127 
127 127 127 127 127 127 128 128 129 129 130 131 132 134 136 138 141 144 147 151 155 160 166 171 177 184 190 197 204 210 217 223 229 234 239 243 246 249 251 252 253 253 253 253 252 252 251 251 250 250 250 250 251 251 252 252 253 253 253 253 252 251 249 246 243 239 234 229 223 217 210 204 197 190 184 177 171 166 160 155 151 147 144 141 138 136 134 132 131 130 129 129 128 128 127 127 127 127 127 127 
127 127 127 127 127 127 128 128 128 129 130 131 132 133 135 137 139 142 145 149 153 157 162 167 173 179 185 192 198 205 211 217 223 228 233 238 242 245 248 250 251 252 253 253 253 253 253 253 253 253 253 253 253 253 253 253 253 253 252 251 250 248 245 242 238 233 228 223 217 211 205 198 192 185 179 173 167 162 157 153 149 145 142 139 137 135 133 132 131 130 129 128 128 128 127 127 127 127 127 127 
127 127 127 127 127 127 127 128 128 129 129 130 131 132 134 136 138 140 143 146 150 154 159 164 169 174 180 186 193 199 205 211 217 222 228 232 236 240 243 246 248 250 251 252 253 253 253 253 253 253 253 253 253 253 253 253 252 251 250 248 246 243 240 236 232 228 222 217 211 205 199 193 186 180 174 169 164 159 154 150 146 143 140 138 136 134 132 131 130 129 129 128 128 127 127 127 127 127 127 127 
127 127 127 127 127 127 127 128 128 128 129 130 131 132 133 135 137 139 141 144 148 151 155 160 165 170 175 181 187 193 199 205 210 216 221 226 230 234 238 241 244 246 247 249 250 251 251 252 252 252 252 252 252 251 251 250 249 247 246 244 241 238 234 230 226 221 216 210 205 199 193 187 181 175 170 165 160 155 151 148 144 141 139 137 135 133 132 131 130 129 128 128 128 127 127 127 127 127 127 127 
127 127 127 127 127 127 127 127 128 128 129 129 130 131 132 134 135 137 140 142 145 148 152 156 161 165 171 176 181 187 193 198 204 209 214 219 224 228 232 235 238 240 243 244 246 247 248 248 249 249 249 249 248 248 247 246 244 243 240 238 235 232 228 224 219 214 209 204 198 193 187 181 176 171 165 161 156 152 148 145 142 140 137 135 134 132 131 130 129 129 128 128 127 127 127 127 127 127 127 127 
127 127 127 127 127 127 127 127 128 128 128 129 130 130 131 133 134 136 138 140 143 146 149 153 157 161 166 171 176 181 186 192 197 202 207 212 217 221 225 228 231 234 236 238 240 241 243 243 244 244 244 244 243 243 241 240 238 236 234 231 228 225 221 217 212 207 202 197 192 186 181 176 171 166 161 157 153 149 146 143 140 138 136 134 133 131 130 130 129 128 128 128 127 127 127 127 127 127 127 127 
127 127 127 127 127 127 127 127 127 128 128 129 129 130 131 132 133 135 136 138 141 143 146 150 153 157 161 166 171 175 180 185 190 195 200 205 209 213 217 221 224 227 229 232 233 235 236 237 238 238 238 238 237 236 235 233 232 229 227 224 221 217 213 209 205 200 195 190 185 180 175 171 166 161 157 153 150 146 143 141 138 136 135 133 132 131 130 129 129 128 128 127 127 127 127 127 127 127 127 127 
127 127 127 127 127 127 127 127 127 128 128 128 129 129 130 131 132 134 135 137 139 141 144 147 150 154 157 161 165 170 174 179 184 188 193 197 202 206 209 213 216 219 222 224 226 228 229 230 230 231 231 230 230 229 228 226 224 222 219 216 213 209 206 202 197 193 188 184 179 174 170 165 161 157 154 150 147 144 141 139 137 135 134 132 131 130 129 129 128 128 128 127 127 127 127 127 127 127 127 127 
127 127 127 127 127 127 127 127 127 127 128 128 128 129 130 130 131 133 134 135 137 139 142 144 147 150 153 157 161 165 169 173 177 182 186 190 194 198 202 205 208 211 214 216 218 219 221 222 222 223 223 222 222 221 219 218 216 214 211 208 205 202 198 194 190 186 182 177 173 169 165 161 157 153 150 147 144 142 139 137 135 134 133 131 130 130 129 128 128 128 127 127 127 127 127 127 127 127 127 127 
127 127 127 127 127 127 127 127 127 127 127 128 128 129 129 130 131 132 133 134 136 137 139 142 144 147 150 153 156 160 164 167 171 175 179 183 187 190 194 197 200 203 205 208 209 211 212 213 214 214 214 214 213 212 211 209 208 205 203 200 197 194 190 187 183 179 175 171 167 164 160 156 153 150 147 144 142 139 137 136 134 133 132 131 130 129 129 128 128 127 127 127 127 127 127 127 127 127 127 127 
127 127 127 127 127 127 127 127 127 127 127 128 128 128 129 129 130 131 132 133 134 136 137 139 142 144 146 149 152 155 159 162 166 169 173 176 180 183 186 189 192 195 197 199 201 203 204 205 205 206 206 205 205 204 203 201 199 197 195 192 189 186 183 180 176 173 169 166 162 159 155 152 149 146 144 142 139 137 136 134 133 132 131 130 129 129 128 128 128 127 127 127 127 127 127 127 127 127 127 127 
127 127 127 127 127 127 127 127 127 127 127 127 128 128 128 129 129 130 131 132 133 134 136 137 139 141 143 146 148 151 154 157 160 163 167 170 173 176 179 182 184 187 189 191 193 194 195 196 197 197 197 197 196 195 194 193 191 189 187 184 182 179 176 173 170 167 163 160 157 154 151 148 146 143 141 139 137 136 134 133 132 131 130 129 129 128 128 128 127 127 127 127 127 127 127 127 127 127 127 127 
127 127 127 127 127 127 127 127 127 127 127 127 127 128 128 128 129 129 130 131 132 133 134 136 137 139 141 143 145 148 150 153 155 158 161 164 167 169 172 174 177 179 181 183 185 186 187 188 188 189 189 188 188 187 186 185 183 181 179 177 174 172 169 167 164 161 158 155 153 150 148 145 143 141 139 137 136 134 133 132 131 130 129 129 128 128 128 127 127 127 127 127 127 127 127 127 127 127 127 127 
127 127 127 127 127 127 127 127 127 127 127 127 127 127 128 128 128 129 129 130 131 132 133 134 135 137 138 140 142 144 146 149 151 153 156 158 161 163 166 168 170 172 174 175 177 178 179 180 180 181 181 180 180 179 178 177 175 174 172 170 168 166 163 161 158 156 153 151 149 146 144 142 140 138 137 135 134 133 132 131 130 129 129 128 128 128 127 127 127 127 127 127 127 127 127 127 127 127 127 127 
127 127 127 127 127 127 127 127 127 127 127 127 127 127 127 128 128 128 129 129 130 131 132 133 134 135 136 138 140 141 143 145 147 149 151 153 156 158 160 162 164 165 167 168 170 171 172 172 173 173 173 173 172 172 171 170 168 167 165 164 162 160 158 156 153 151 149 147 145 143 141 140 138 136 135 134 133 132 131 130 129 129 128 128 128 127 127 127 127 127 127 127 127 127 127 127 127 127 127 127 
127 127 127 127 127 127 127 127 127 127 127 127 127 127 127 128 128 128 128 129 129 130 131 132 133 134 135 136 137 139 140 142 144 145 147 149 151 153 154 156 158 159 161 162 163 164 165 166 166 166 166 166 166 165 164 163 162 161 159 158 156 154 153 151 149 147 145 144 142 140 139 137 136 135 134 133 132 131 130 129 129 128 128 128 128 127 127 127 127 127 127 127 127 127 127 127 127 127 127 127 
127 127 127 127 127 127 127 127 127 127 127 127 127 127 127 127 128 128 128 128 129 129 130 131 131 132 133 134 135 137 138 139 141 142 144 145 147 148 150 151 153 154 155 156 157 158 159 159 160 160 160 160 159 159 158 157 156 155 154 153 151 150 148 147 145 144 142 141 139 138 137 135 134 133 132 131 131 130 129 129 128 128 128 128 127 127 127 127 127 127 127 127 127 127 127 127 127 127 127 127 
127 127 127 127 127 127 127 127 127 127 127 127 127 127 127 127 127 128 128 128 128 129 129 130 130 131 132 133 134 135 136 137 138 139 141 142 143 144 146 147 148 149 150 151 152 153 153 154 154 154 154 154 154 153 153 152 151 150 149 148 147 146 144 143 142 141 139 138 137 136 135 134 133 132 131 130 130 129 129 128 128 128 128 127 127 127 127 127 127 127 127 127 127 127 127 127 127 127 127 127 
127 127 127 127 127 127 127 127 127 127 127 127 127 127 127 127 127 127 127 128 128 128 129 129 130 130 131 131 132 133 134 135 136 137 138 139 140 141 142 143 144 145 146 147 148 148 149 149 149 149 149 149 149 149 148 148 147 146 145 144 143 142 141 140 139 138 137 136 135 134 133 132 131 131 130 130 129 129 128 128 128 127 127 127 127 127 127 127 127 127 127 127 127 127 127 127 127 127 127 127 
127 127 127 127 127 127 127 127 127 127 127 127 127 127 127 127 127 127 127 127 128 128 128 129 129 129 130 130 131 132 132 133 134 135 136 137 137 138 139 140 141 142 142 143 144 144 145 145 145 145 145 145 145 145 144 144 143 142 142 141 140 139 138 137 137 136 135 134 133 132 132 131 130 130 129 129 129 128 128 128 127 127 127 127 127 127 127 127 127 127 127 127 127 127 127 127 127 127 127 127 
127 127 127 127 127 127 127 127 127 127 127 127 127 127 127 127 127 127 127 127 127 128 128 128 128 129 129 130 130 131 131 132 132 133 134 134 135 136 137 137 138 139 139 140 140 141 141 141 141 142 142 141 141 141 141 140 140 139 139 138 137 137 136 135 134 134 133 132 132 131 131 130 130 129 129 128 128 128 128 127 127 127 127 127 127 127 127 127 127 127 127 127 127 127 127 127 127 127 127 127 
127 127 127 127 127 127 127 127 127 127 127 127 127 127 127 127 127 127 127 127 127 127 128 128 128 128 129 129 129 130 130 131 131 132 132 133 133 134 135 135 136 136 137 137 137 138 138 138 138 139 139 138 138 138 138 137 137 137 136 136 135 135 134 133 133 132 132 131 131 130 130 129 129 129 128 128 128 128 127 127 127 127 127 127 127 127 127 127 127 127 127 127 127 127 127 127 127 127 127 127 
127 127 127 127 127 127 127 127 127 127 127 127 127 127 127 127 127 127 127 127 127 127 127 127 128 128 128 128 129 129 129 130 130 131 131 131 132 132 133 133 134 134 134 135 135 135 136 136 136 136 136 136 136 136 135 135 135 134 134 134 133 133 132 132 131 131 131 130 130 129 129 129 128 128 128 128 127 127 127 127 127 127 127 127 127 127 127 127 127 127 127 127 127 127 127 127 127 127 127 127 
127 127 127 127 127 127 127 127 127 127 127 127 127 127 127 127 127 127 127 127 127 127 127 127 127 128 128 128 128 128 129 129 129 130 130 130 131 131 131 132 132 132 133 133 133 133 134 134 134 134 134 134 134 134 133 133 133 133 132 132 132 131 131 131 130 130 130 129 129 129 128 128 128 128 128 127 127 127 127 127 127 127 127 127 127 127 127 127 127 127 127 127 127 127 127 127 127 127 127 127 
127 127 127 127 127 127 127 127 127 127 127 127 127 127 127 127 127 127 127 127 127 127 127 127 127 127 127 128 128 128 128 128 129 129 129 129 130 130 130 131 131 131 131 132 132 132 132 132 132 132 132 132 132 132 132 132 132 131 131 131 131 130 130 130 129 129 129 129 128 128 128 128 128 127 127 127 127 127 127 127 127 127 127 127 127 127 127 127 127 127 127 127 127 127 127 127 127 127 127 127 
127 127 127 127 127 127 127 127 127 127 127 127 127 127 127 127 127 127 127 127 127 127 127 127 127 127 127 127 127 128 128 128 128 128 128 129 129 129 129 130 130 130 130 130 130 131 131 131 131 131 131 131 131 131 131 130 130 130 130 130 130 129 129 129 129 128 128 128 128 128 128 127 127 127 127 127 127 127 127 127 127 127 127 127 127 127 127 127 127 127 127 127 127 127 127 127 127 127 127 127 
127 127 127 127 127 127 127 127 127 127 127 127 127 127 127 127 127 127 127 127 127 127 127 127 127 127 127 127 127 127 127 128 128 128 128 128 128 128 129 129 129 129 129 129 129 130 130 130 130 130 130 130 130 130 130 129 129 129 129 129 129 129 128 128 128 128 128 128 128 127 127 127 127 127 127 127 127 127 127 127 127 127 127 127 127 127 127 127 127 127 127 127 127 127 127 127 127 127 127 127 
127 127 127 127 127 127 127 127 127 127 127 127 127 127 127 127 127 127 127 127 127 127 127 127 127 127 127 127 127 127 127 127 127 127 128 128 128 128 128 128 128 128 129 129 129 129 129 129 129 129 129 129 129 129 129 129 129 129 128 128 128 128 128 128 128 128 127 127 127 127 127 127 127 127 127 127 127 127 127 127 127 127 127 127 127 127 127 127 127 127 127 127 127 127 127 127 127 127 127 127 
127 127 127 127 127 127 127 127 127 127 127 127 127 127 127 127 127 127 127 127 127 127 127 127 127 127 127 127 127 127 127 127 127 127 127 127 127 128 128 128 128 128 128 128 128 128 128 128 128 128 128 128 128 128 128 128 128 128 128 128 128 128 128 127 127 127 127 127 127 127 127 127 127 127 127 127 127 127 127 127 127 127 127 127 127 127 127 127 127 127 127 127 127 127 127 127 127 127 127 127 
127 127 127 127 127 127 127 127 127 127 127 127 127 127 127 127 127 127 127 127 127 127 127 127 127 127 127 127 127 127 127 127 127 127 127 127 127 127 127 127 127 127 127 128 128 128 128 128 128 128 128 128 128 128 128 128 128 127 127 127 127 127 127 127 127 127 127 127 127 127 127 127 127 127 127 127 127 127 127 127 127 127 127 127 127 127 127 127 127 127 127 127 127 127 127 127 127 127 127 127 
127 127 127 127 127 127 127 127 127 127 127 127 127 127 127 127 127 127 127 127 127 127 127 127 127 127 127 127 127 127 127 127 127 127 127 127 127 127 127 127 127 127 127 127 127 127 127 127 127 127 127 127 127 127 127 127 127 127 127 127 127 127 127 127 127 127 127 127 127 127 127 127 127 127 127 127 127 127 127 127 127 127 127 127 127 127 127 127 127 127 127 127 127 127 127 127 127 127 127 127 
127 127 127 127 127 127 127 127 127 127 127 127 127 127 127 127 127 127 127 127 127 127 127 127 127 127 127 127 127 127 127 127 127 127 127 127 127 127 127 127 127 127 127 127 127 127 127 127 127 127 127 127 127 127 127 127 127 127 127 127 127 127 127 127 127 127 127 127 127 127 127 127 127 127 127 127 127 127 127 127 127 127 127 127 127 127 127 127 127 127 127 127 127 127 127 127 127 127 127 127 
127 127 127 127 127 127 127 127 127 127 127 127 127 127 127 127 127 127 127 127 127 127 127 127 127 127 127 127 127 127 127 127 127 127 127 127 127 127 127 127 127 127 127 127 127 127 127 127 127 127 127 127 127 127 127 127 127 127 127 127 127 127 127 127 127 127 127 127 127 127 127 127 127 127 127 127 127 127 127 127 127 127 127 127 127 127 127 127 127 127 127 127 127 127 127 127 127 127 127 127 
