P2
100 100
255
127 127 127 127 127 127 127 127 127 127 127 127 127 127 127 127 127 127 127 127 127 127 127 127 127 127 127 127 127 127 127 127 127 127 127 127 127 127 127 127 127 127 127 127 127 127 127 127 127 127 127 127 127 127 127 127 127 127 127 127 127 127 127 127 127 127 127 127 127 127 127 127 127 127 127 127 127 127 127 127 127 127 127 127 127 127 127 127 127 127 127 127 127 127 127 127 127 127 127 127 
127 127 127 127 127 127 127 127 127 127 127 127 127 127 127 127 127 127 127 127 127 127 127 127 127 127 128 128 128 128 128 128 129 129 129 129 129 129 130 130 130 130 130 130 130 130 130 131 131 131 131 131 131 130 130 130 130 130 130 130 130 130 129 129 129 129 129 129 128 128 128 128 128 128 127 127 127 127 127 127 127 127 127 127 127 127 127 127 127 127 127 127 127 127 127 127 127 127 127 127 
127 127 127 127 127 127 127 127 127 127 127 127 127 127 127 127 127 127 127 127 127 128 128 128 128 129 129 129 129 130 130 130 131 131 131 132 132 132 133 133 133 134 134 134 134 134 135 135 135 135 135 135 135 135 134 134 134 134 134 133 133 133 132 132 132 131 131 131 130 130 130 129 129 129 129 128 128 128 128 127 127 127 127 127 127 127 127 127 127 127 127 127 127 127 127 127 127 127 127 127 
127 127 127 127 127 127 127 127 127 127 127 127 127 127 127 127 127 127 128 128 128 128 129 129 129 130 130 130 131 131 132 132 133 133 134 134 135 136 136 136 137 137 138 138 138 139 139 139 139 139 139 139 139 139 139 138 138 138 137 137 136 136 136 135 134 134 133 133 132 132 131 131 130 130 130 129 129 129 128 128 128 128 127 127 127 127 127 127 127 127 127 127 127 127 127 127 127 127 127 127 
127 127 127 127 127 127 127 127 127 127 127 127 127 127 127 127 128 128 128 128 129 129 129 130 130 131 131 132 133 133 134 135 135 136 137 138 138 139 140 140 141 141 142 142 143 143 143 144 144 144 144 144 144 143 143 143 142 142 141 141 140 140 139 138 138 137 136 135 135 134 133 133 132 131 131 130 130 129 129 129 128 128 128 128 127 127 127 127 127 127 127 127 127 127 127 127 127 127 127 127 
127 127 127 127 127 127 127 127 127 127 127 127 127 127 128 128 128 128 129 129 129 130 130 131 132 132 133 134 135 135 136 137 138 139 140 141 142 143 143 144 145 146 146 147 148 148 148 149 149 149 149 149 149 148 148 148 147 146 146 145 144 143 143 142 141 140 139 138 137 136 135 135 134 133 132 132 131 130 130 129 129 129 128 128 128 128 127 127 127 127 127 127 127 127 127 127 127 127 127 127 
127 127 127 127 127 127 127 127 127 127 127 127 127 128 128 128 128 129 129 130 130 131 132 132 133 134 135 136 137 138 139 140 141 142 143 145 146 147 148 149 150 151 151 152 153 153 154 154 154 154 154 154 154 154 153 153 152 151 151 150 149 148 147 146 145 143 142 141 140 139 138 137 136 135 134 133 132 132 131 130 130 129 129 128 128 128 128 127 127 127 127 127 127 127 127 127 127 127 127 127 
127 127 127 127 127 127 127 127 127 127 127 127 128 128 128 129 129 129 130 131 131 132 133 134 135 136 137 138 139 141 142 143 145 146 147 149 150 151 152 154 155 156 157 158 158 159 159 160 160 160 160 160 160 159 159 158 158 157 156 155 154 152 151 150 149 147 146 145 143 142 141 139 138 137 136 135 134 133 132 131 131 130 129 129 129 128 128 128 127 127 127 127 127 127 127 127 127 127 127 127 
127 127 127 127 127 127 127 127 127 127 127 128 128 128 129 129 130 130 131 132 132 133 134 135 137 138 139 141 142 144 145 147 148 150 152 153 155 156 158 159 160 161 163 163 164 165 166 166 166 166 166 166 166 166 165 164 163 163 161 160 159 158 156 155 153 152 150 148 147 145 144 142 141 139 138 137 135 134 133 132 132 131 130 130 129 129 128 128 128 127 127 127 127 127 127 127 127 127 127 127 
127 127 127 127 127 127 127 127 127 127 128 128 128 129 129 130 130 131 132 133 134 135 136 137 139 140 142 144 145 147 149 151 153 154 156 158 160 162 163 165 166 168 169 170 171 171 172 173 173 173 173 173 173 172 171 171 170 169 168 166 165 163 162 160 158 156 154 153 151 149 147 145 144 142 140 139 137 136 135 134 133 132 131 130 130 129 129 128 128 128 127 127 127 127 127 127 127 127 127 127 
127 127 127 127 127 127 127 127 127 128 128 128 129 129 130 130 131 132 133 134 135 137 138 140 141 143 145 147 149 151 153 155 157 159 162 164 166 167 169 171 173 174 175 176 177 178 179 180 180 180 180 180 180 179 178 177 176 175 174 173 171 169 167 166 164 162 159 157 155 153 151 149 147 145 143 141 140 138 137 135 134 133 132 131 130 130 129 129 128 128 128 127 127 127 127 127 127 127 127 127 
127 127 127 127 127 127 127 127 128 128 128 129 129 130 131 131 132 133 134 136 137 139 140 142 144 146 148 151 153 155 158 160 162 165 167 169 172 174 176 178 179 181 182 183 185 185 186 187 187 187 187 187 187 186 185 185 183 182 181 179 178 176 174 172 169 167 165 162 160 158 155 153 151 148 146 144 142 140 139 137 136 134 133 132 131 131 130 129 129 128 128 128 127 127 127 127 127 127 127 127 
127 127 127 127 127 127 127 128 128 128 129 129 130 131 131 132 134 135 136 138 139 141 143 145 147 150 152 155 157 160 163 165 168 171 173 176 178 180 182 184 186 188 189 191 192 193 193 194 194 195 195 194 194 193 193 192 191 189 188 186 184 182 180 178 176 173 171 168 165 163 160 157 155 152 150 147 145 143 141 139 138 136 135 134 132 131 131 130 129 129 128 128 128 127 127 127 127 127 127 127 
127 127 127 127 127 127 128 128 128 129 129 130 131 131 132 134 135 136 138 140 142 144 146 148 151 154 156 159 162 165 168 171 174 177 179 182 185 187 189 191 193 195 196 198 199 200 201 201 202 202 202 202 201 201 200 199 198 196 195 193 191 189 187 185 182 179 177 174 171 168 165 162 159 156 154 151 148 146 144 142 140 138 136 135 134 132 131 131 130 129 129 128 128 128 127 127 127 127 127 127 
127 127 127 127 127 128 128 128 129 129 130 131 131 132 134 135 136 138 140 142 144 147 149 152 155 158 161 164 167 170 174 177 180 183 186 189 191 194 196 198 200 202 203 205 206 207 208 208 208 209 209 208 208 208 207 206 205 203 202 200 198 196 194 191 189 186 183 180 177 174 170 167 164 161 158 155 152 149 147 144 142 140 138 136 135 134 132 131 131 130 129 129 128 128 128 127 127 127 127 127 
127 127 127 127 127 128 128 129 129 130 130 131 132 134 135 137 138 140 142 145 147 150 153 156 159 162 166 169 173 176 180 183 186 189 192 195 198 201 203 205 207 209 210 211 212 213 214 215 215 215 215 215 215 214 213 212 211 210 209 207 205 203 201 198 195 192 189 186 183 180 176 173 169 166 162 159 156 153 150 147 145 142 140 138 137 135 134 132 131 130 130 129 129 128 128 127 127 127 127 127 
127 127 127 127 128 128 128 129 130 130 131 132 134 135 136 138 140 143 145 148 150 154 157 160 164 167 171 175 178 182 186 189 193 196 199 202 205 207 209 211 213 215 216 217 218 219 220 220 221 221 221 221 220 220 219 218 217 216 215 213 211 209 207 205 202 199 196 193 189 186 182 178 175 171 167 164 160 157 154 150 148 145 143 140 138 136 135 134 132 131 130 130 129 128 128 128 127 127 127 127 
127 127 127 127 128 128 129 129 130 131 132 133 135 136 138 140 143 145 148 151 154 157 161 165 168 172 176 180 184 188 192 196 199 202 205 208 211 213 215 217 219 220 222 223 223 224 225 225 225 225 225 225 225 225 224 223 223 222 220 219 217 215 213 211 208 205 202 199 196 192 188 184 180 176 172 168 165 161 157 154 151 148 145 143 140 138 136 135 133 132 131 130 129 129 128 128 127 127 127 127 
127 127 127 128 128 129 129 130 131 132 133 134 136 138 140 142 145 148 151 154 158 161 165 169 174 178 182 186 190 194 198 202 205 208 211 214 217 219 221 222 224 225 226 227 227 228 228 229 229 229 229 229 229 228 228 227 227 226 225 224 222 221 219 217 214 211 208 205 202 198 194 190 186 182 178 174 169 165 161 158 154 151 148 145 142 140 138 136 134 133 132 131 130 129 129 128 128 127 127 127 
127 127 127 128 128 129 130 131 132 133 134 136 138 140 142 145 148 151 154 158 162 166 170 174 179 183 188 192 196 200 204 208 211 214 217 219 222 224 225 226 228 228 229 230 230 230 231 231 231 231 231 231 231 231 230 230 230 229 228 228 226 225 224 222 219 217 214 211 208 204 200 196 192 188 183 179 174 170 166 162 158 154 151 148 145 142 140 138 136 134 133 132 131 130 129 128 128 127 127 127 
127 127 127 128 129 129 130 131 132 134 135 137 139 142 144 147 150 154 158 162 166 170 175 179 184 189 193 198 202 206 210 213 216 219 222 224 226 227 229 229 230 231 231 231 231 231 231 231 231 231 231 231 231 231 231 231 231 231 231 230 229 229 227 226 224 222 219 216 213 210 206 202 198 193 189 184 179 175 170 166 162 158 154 150 147 144 142 139 137 135 134 132 131 130 129 129 128 127 127 127 
127 127 128 128 129 130 131 132 133 135 137 139 141 144 147 150 154 157 161 166 170 175 180 185 189 194 199 203 208 211 215 218 221 224 226 228 229 230 231 231 231 231 231 231 231 231 230 230 230 230 230 230 230 230 231 231 231 231 231 231 231 231 230 229 228 226 224 221 218 215 211 208 203 199 194 189 185 180 175 170 166 161 157 154 150 147 144 141 139 137 135 133 132 131 130 129 128 128 127 127 
127 127 128 129 129 130 132 133 134 136 138 140 143 146 149 153 157 161 165 170 175 180 185 190 195 200 204 209 213 216 220 223 225 227 229 230 231 231 231 231 231 231 230 229 229 228 228 227 227 227 227 227 227 228 228 229 229 230 231 231 231 231 231 231 230 229 227 225 223 220 216 213 209 204 200 195 190 185 180 175 170 165 161 157 153 149 146 143 140 138 136 134 133 132 130 129 129 128 127 127 
127 127 128 129 130 131 132 134 135 137 140 142 145 148 152 156 160 165 169 174 179 185 190 195 200 205 209 214 217 221 224 226 228 230 231 231 232 231 231 230 229 228 227 226 225 224 223 222 222 222 222 222 222 223 224 225 226 227 228 229 230 231 231 232 231 231 230 228 226 224 221 217 214 209 205 200 195 190 185 179 174 169 165 160 156 152 148 145 142 140 137 135 134 132 131 130 129 128 127 127 
127 127 128 129 130 132 133 135 137 139 141 144 147 151 155 159 164 168 174 179 184 189 195 200 205 210 214 218 222 225 227 229 230 231 232 231 231 230 229 227 226 224 222 221 219 218 217 216 215 215 215 215 216 217 218 219 221 222 224 226 227 229 230 231 231 232 231 230 229 227 225 222 218 214 210 205 200 195 189 184 179 174 168 164 159 155 151 147 144 141 139 137 135 133 132 130 129 128 127 127 
127 127 129 130 131 132 134 136 138 140 143 146 150 154 158 162 167 172 178 183 189 194 200 205 210 214 218 222 225 228 230 231 231 232 231 230 229 227 225 223 220 218 216 214 212 210 208 207 207 206 206 207 207 208 210 212 214 216 218 220 223 225 227 229 230 231 232 231 231 230 228 225 222 218 214 210 205 200 194 189 183 178 172 167 162 158 154 150 146 143 140 138 136 134 132 131 130 129 127 127 
127 128 129 130 131 133 135 137 139 142 145 148 152 156 161 166 171 176 182 188 193 199 204 209 214 218 222 225 228 230 231 232 231 231 229 227 225 223 220 217 214 211 208 205 203 200 199 197 196 196 196 196 197 199 200 203 205 208 211 214 217 220 223 225 227 229 231 231 232 231 230 228 225 222 218 214 209 204 199 193 188 182 176 171 166 161 156 152 148 145 142 139 137 135 133 131 130 129 128 127 
127 128 129 130 132 134 136 138 141 144 147 151 155 159 164 169 175 180 186 192 198 203 209 214 218 222 225 228 230 231 232 231 230 228 226 223 220 217 213 209 205 202 198 195 192 190 187 186 185 184 184 185 186 187 190 192 195 198 202 205 209 213 217 220 223 226 228 230 231 232 231 230 228 225 222 218 214 209 203 198 192 186 180 175 169 164 159 155 151 147 144 141 138 136 134 132 130 129 128 127 
127 128 129 131 133 135 137 139 142 145 149 153 157 162 167 173 178 184 190 196 202 208 213 217 222 225 228 230 231 232 231 230 228 225 222 218 214 210 205 201 196 192 187 184 180 177 175 173 172 171 171 172 173 175 177 180 184 187 192 196 201 205 210 214 218 222 225 228 230 231 232 231 230 228 225 222 217 213 208 202 196 190 184 178 173 167 162 157 153 149 145 142 139 137 135 133 131 129 128 127 
127 128 130 131 133 135 138 141 144 147 151 155 160 165 170 176 182 188 194 200 206 211 216 221 225 228 230 231 232 231 230 227 224 221 217 212 207 201 196 191 185 180 176 171 168 164 162 160 158 158 158 158 160 162 164 168 171 176 180 185 191 196 201 207 212 217 221 224 227 230 231 232 231 230 228 225 221 216 211 206 200 194 188 182 176 170 165 160 155 151 147 144 141 138 135 133 131 130 128 127 
127 128 130 132 134 136 139 142 145 149 153 158 163 168 174 180 186 192 198 204 210 215 220 224 227 230 231 232 231 230 227 224 220 215 210 204 198 192 186 180 174 168 163 158 154 150 148 145 144 143 143 144 145 148 150 154 158 163 168 174 180 186 192 198 204 210 215 220 224 227 230 231 232 231 230 227 224 220 215 210 204 198 192 186 180 174 168 163 158 153 149 145 142 139 136 134 132 130 128 127 
127 128 130 132 135 137 140 143 147 151 155 160 165 171 177 183 189 196 202 208 213 218 223 226 229 231 232 231 230 227 224 220 215 209 203 196 189 182 175 168 162 155 150 145 140 136 133 131 129 129 129 129 131 133 136 140 145 150 155 162 168 175 182 189 196 203 209 215 220 224 227 230 231 232 231 229 226 223 218 213 208 202 196 189 183 177 171 165 160 155 151 147 143 140 137 135 132 130 128 127 
127 129 131 133 135 138 141 145 148 153 157 162 168 174 180 186 193 199 205 211 216 221 225 228 230 231 231 230 228 224 220 215 209 202 195 187 179 171 164 156 149 142 136 131 127 123 120 117 116 115 115 116 117 120 123 127 131 136 142 149 156 164 171 179 187 195 202 209 215 220 224 228 230 231 231 230 228 225 221 216 211 205 199 193 186 180 174 168 162 157 153 148 145 141 138 135 133 131 129 127 
127 129 131 133 136 139 142 146 150 154 159 165 171 177 183 189 196 202 208 214 219 224 227 230 231 232 231 228 225 221 215 209 202 194 186 177 169 160 152 144 136 129 124 118 113 109 106 103 101 101 101 101 103 106 109 113 118 124 129 136 144 152 160 169 177 186 194 202 209 215 221 225 228 231 232 231 230 227 224 219 214 208 202 196 189 183 177 171 165 159 154 150 146 142 139 136 133 131 129 127 
127 129 131 134 137 140 143 147 152 156 162 167 173 179 186 192 199 205 211 217 222 226 229 231 232 231 229 226 222 217 210 203 195 186 177 168 158 149 140 132 125 117 111 105 100 95 92 89 88 87 87 88 89 92 95 100 105 111 117 125 132 140 149 158 168 177 186 195 203 210 217 222 226 229 231 232 231 229 226 222 217 211 205 199 192 186 179 173 167 162 156 152 147 143 140 137 134 131 129 127 
127 129 132 134 138 141 145 149 153 158 164 169 176 182 189 195 202 208 214 219 224 228 230 231 231 230 227 223 218 212 204 196 187 177 168 158 148 138 129 121 112 105 98 92 87 83 79 77 75 74 74 75 77 79 83 87 92 98 105 112 121 129 138 148 158 168 177 187 196 204 212 218 223 227 230 231 231 230 228 224 219 214 208 202 195 189 182 176 169 164 158 153 149 145 141 138 134 132 129 127 
127 129 132 135 138 142 146 150 155 160 166 172 178 185 191 198 205 211 217 222 226 229 231 232 231 229 225 220 214 207 198 189 179 169 158 148 137 127 118 109 101 93 86 80 75 71 67 65 63 62 62 63 65 67 71 75 80 86 93 101 109 118 127 137 148 158 169 179 189 198 207 214 220 225 229 231 232 231 229 226 222 217 211 205 198 191 185 178 172 166 160 155 150 146 142 138 135 132 129 127 
127 129 132 136 139 143 147 151 156 162 167 174 180 187 194 201 207 213 219 224 227 230 231 231 230 227 223 217 210 201 192 182 171 160 149 138 127 117 107 98 89 82 75 69 64 59 56 54 52 51 51 52 54 56 59 64 69 75 82 89 98 107 117 127 138 149 160 171 182 192 201 210 217 223 227 230 231 231 230 227 224 219 213 207 201 194 187 180 174 167 162 156 151 147 143 139 136 132 129 127 
127 130 133 136 140 143 148 152 158 163 169 176 182 189 196 203 209 215 221 225 229 231 231 231 229 225 220 213 205 196 186 175 164 152 140 129 118 107 97 88 79 71 65 59 54 50 46 44 42 41 41 42 44 46 50 54 59 65 71 79 88 97 107 118 129 140 152 164 175 186 196 205 213 220 225 229 231 231 231 229 225 221 215 209 203 196 189 182 176 169 163 158 152 148 143 140 136 133 130 127 
127 130 133 136 140 144 149 154 159 165 171 178 184 191 198 205 211 217 222 226 229 231 231 230 227 223 217 209 201 191 180 168 156 144 132 121 109 98 88 78 70 62 55 49 45 41 38 35 34 33 33 34 35 38 41 45 49 55 62 70 78 88 98 109 121 132 144 156 168 180 191 201 209 217 223 227 230 231 231 229 226 222 217 211 205 198 191 184 178 171 165 159 154 149 144 140 136 133 130 127 
127 130 133 137 141 145 150 155 160 166 173 179 186 193 200 207 213 219 224 228 230 231 231 229 226 220 214 205 196 185 174 162 149 136 125 112 101 89 79 70 61 54 47 41 37 33 30 28 26 26 26 26 28 30 33 37 41 47 54 61 70 79 89 101 112 125 136 149 162 174 185 196 205 214 220 226 229 231 231 230 228 224 219 213 207 200 193 186 179 173 166 160 155 150 145 141 137 133 130 127 
127 130 134 137 141 146 151 156 161 168 174 181 188 195 202 209 215 220 225 228 231 231 231 228 224 218 211 202 192 180 168 155 142 129 117 105 93 82 71 62 54 46 40 35 30 26 24 22 20 20 20 20 22 24 26 30 35 40 46 54 62 71 82 93 105 117 129 142 155 168 180 192 202 211 218 224 228 231 231 231 228 225 220 215 209 202 195 188 181 174 168 161 156 151 146 141 137 134 130 127 
127 130 134 138 142 146 151 157 163 169 175 182 189 196 203 210 216 222 226 229 231 231 230 227 222 216 208 198 187 176 163 150 136 124 111 98 86 75 65 55 47 40 34 29 24 21 18 16 15 15 15 15 16 18 21 24 29 34 40 47 55 65 75 86 98 111 124 136 150 163 176 187 198 208 216 222 227 230 231 231 229 226 222 216 210 203 196 189 182 175 169 163 157 151 146 142 138 134 130 127 
127 130 134 138 142 147 152 158 163 170 176 183 191 198 205 211 217 223 227 230 231 231 229 226 221 214 205 195 184 171 158 145 131 118 105 92 80 69 59 49 41 35 29 24 20 16 14 12 11 10 10 11 12 14 16 20 24 29 35 41 49 59 69 80 92 105 118 131 145 158 171 184 195 205 214 221 226 229 231 231 230 227 223 217 211 205 198 191 183 176 170 163 158 152 147 142 138 134 130 127 
127 130 134 138 143 148 153 158 164 171 177 185 192 199 206 212 218 223 227 230 231 231 229 225 219 212 203 192 180 168 154 140 127 113 100 87 75 64 54 45 37 30 24 20 16 13 10 9 8 7 7 8 9 10 13 16 20 24 30 37 45 54 64 75 87 100 113 127 140 154 168 180 192 203 212 219 225 229 231 231 230 227 223 218 212 206 199 192 185 177 171 164 158 153 148 143 138 134 130 127 
127 130 134 139 143 148 153 159 165 171 178 185 193 200 207 213 219 224 228 230 231 231 228 224 218 210 200 190 177 164 150 136 123 109 95 83 71 59 50 41 33 26 21 16 13 10 8 6 5 5 5 5 6 8 10 13 16 21 26 33 41 50 59 71 83 95 109 123 136 150 164 177 190 200 210 218 224 228 231 231 230 228 224 219 213 207 200 193 185 178 171 165 159 153 148 143 139 134 130 127 
127 130 135 139 143 148 154 159 166 172 179 186 193 201 208 214 220 225 228 231 231 230 228 223 217 208 199 187 175 162 148 133 120 106 92 79 67 56 46 38 30 24 18 14 10 8 6 4 3 3 3 3 4 6 8 10 14 18 24 30 38 46 56 67 79 92 106 120 133 148 162 175 187 199 208 217 223 228 230 231 231 228 225 220 214 208 201 193 186 179 172 166 159 154 148 143 139 135 130 127 
127 131 135 139 144 149 154 160 166 173 180 187 194 201 208 215 220 225 229 231 231 230 227 222 216 207 197 186 173 160 145 131 117 103 89 77 65 54 44 35 28 22 16 12 9 6 4 3 2 2 2 2 3 4 6 9 12 16 22 28 35 44 54 65 77 89 103 117 131 145 160 173 186 197 207 216 222 227 230 231 231 229 225 220 215 208 201 194 187 180 173 166 160 154 149 144 139 135 131 127 
127 131 135 139 144 149 154 160 166 173 180 187 194 202 208 215 221 225 229 231 231 230 227 222 215 207 196 185 172 158 144 129 116 101 88 75 63 52 42 34 26 20 15 11 8 5 3 2 1 1 1 1 2 3 5 8 11 15 20 26 34 42 52 63 75 88 101 116 129 144 158 172 185 196 207 215 222 227 230 231 231 229 225 221 215 208 202 194 187 180 173 166 160 154 149 144 139 135 131 127 
127 131 135 139 144 149 154 160 166 173 180 187 195 202 209 215 221 225 229 231 231 230 227 222 215 206 196 184 171 158 143 129 115 101 87 74 62 51 41 33 26 20 15 10 7 5 3 2 1 1 1 1 2 3 5 7 10 15 20 26 33 41 51 62 74 87 101 115 129 143 158 171 184 196 206 215 222 227 230 231 231 229 225 221 215 209 202 195 187 180 173 166 160 154 149 144 139 135 131 127 
127 131 135 139 144 149 154 160 166 173 180 187 195 202 209 215 221 225 229 231 231 230 227 222 215 206 196 184 171 158 143 129 115 101 87 74 62 51 41 33 26 20 15 10 7 5 3 2 1 0 1 1 2 3 5 7 10 15 20 26 33 41 51 62 74 87 101 115 129 143 158 171 184 196 206 215 222 227 230 231 231 229 225 221 215 209 202 195 187 180 173 166 160 154 149 144 139 135 131 127 
127 131 135 139 144 149 154 160 166 173 180 187 194 202 208 215 221 225 229 231 231 230 227 222 215 207 196 185 172 158 144 129 116 101 88 75 63 52 42 34 26 20 15 11 8 5 3 2 1 1 1 1 2 3 5 8 11 15 20 26 34 42 52 63 75 88 101 116 129 144 158 172 185 196 207 215 222 227 230 231 231 229 225 221 215 208 202 194 187 180 173 166 160 154 149 144 139 135 131 127 
127 131 135 139 144 149 154 160 166 173 180 187 194 201 208 215 220 225 229 231 231 230 227 222 216 207 197 186 173 160 145 131 117 103 89 77 65 54 44 35 28 22 16 12 9 6 4 3 2 2 2 2 3 4 6 9 12 16 22 28 35 44 54 65 77 89 103 117 131 145 160 173 186 197 207 216 222 227 230 231 231 229 225 220 215 208 201 194 187 180 173 166 160 154 149 144 139 135 131 127 
127 130 135 139 143 148 154 159 166 172 179 186 193 201 208 214 220 225 228 231 231 230 228 223 217 208 199 187 175 162 148 133 120 106 92 79 67 56 46 38 30 24 18 14 10 8 6 4 3 3 3 3 4 6 8 10 14 18 24 30 38 46 56 67 79 92 106 120 133 148 162 175 187 199 208 217 223 228 230 231 231 228 225 220 214 208 201 193 186 179 172 166 159 154 148 143 139 135 130 127 
127 130 134 139 143 148 153 159 165 171 178 185 193 200 207 213 219 224 228 230 231 231 228 224 218 210 200 190 177 164 150 136 123 109 95 83 71 59 50 41 33 26 21 16 13 10 8 6 5 5 5 5 6 8 10 13 16 21 26 33 41 50 59 71 83 95 109 123 136 150 164 177 190 200 210 218 224 228 231 231 230 228 224 219 213 207 200 193 185 178 171 165 159 153 148 143 139 134 130 127 
127 130 134 138 143 148 153 158 164 171 177 185 192 199 206 212 218 223 227 230 231 231 229 225 219 212 203 192 180 168 154 140 127 113 100 87 75 64 54 45 37 30 24 20 16 13 10 9 8 7 7 8 9 10 13 16 20 24 30 37 45 54 64 75 87 100 113 127 140 154 168 180 192 203 212 219 225 229 231 231 230 227 223 218 212 206 199 192 185 177 171 164 158 153 148 143 138 134 130 127 
127 130 134 138 142 147 152 158 163 170 176 183 191 198 205 211 217 223 227 230 231 231 229 226 221 214 205 195 184 171 158 145 131 118 105 92 80 69 59 49 41 35 29 24 20 16 14 12 11 10 10 11 12 14 16 20 24 29 35 41 49 59 69 80 92 105 118 131 145 158 171 184 195 205 214 221 226 229 231 231 230 227 223 217 211 205 198 191 183 176 170 163 158 152 147 142 138 134 130 127 
127 130 134 138 142 146 151 157 163 169 175 182 189 196 203 210 216 222 226 229 231 231 230 227 222 216 208 198 187 176 163 150 136 124 111 98 86 75 65 55 47 40 34 29 24 21 18 16 15 15 15 15 16 18 21 24 29 34 40 47 55 65 75 86 98 111 124 136 150 163 176 187 198 208 216 222 227 230 231 231 229 226 222 216 210 203 196 189 182 175 169 163 157 151 146 142 138 134 130 127 
127 130 134 137 141 146 151 156 161 168 174 181 188 195 202 209 215 220 225 228 231 231 231 228 224 218 211 202 192 180 168 155 142 129 117 105 93 82 71 62 54 46 40 35 30 26 24 22 20 20 20 20 22 24 26 30 35 40 46 54 62 71 82 93 105 117 129 142 155 168 180 192 202 211 218 224 228 231 231 231 228 225 220 215 209 202 195 188 181 174 168 161 156 151 146 141 137 134 130 127 
127 130 133 137 141 145 150 155 160 166 173 179 186 193 200 207 213 219 224 228 230 231 231 229 226 220 214 205 196 185 174 162 149 136 125 112 101 89 79 70 61 54 47 41 37 33 30 28 26 26 26 26 28 30 33 37 41 47 54 61 70 79 89 101 112 125 136 149 162 174 185 196 205 214 220 226 229 231 231 230 228 224 219 213 207 200 193 186 179 173 166 160 155 150 145 141 137 133 130 127 
127 130 133 136 140 144 149 154 159 165 171 178 184 191 198 205 211 217 222 226 229 231 231 230 227 223 217 209 201 191 180 168 156 144 132 121 109 98 88 78 70 62 55 49 45 41 38 35 34 33 33 34 35 38 41 45 49 55 62 70 78 88 98 109 121 132 144 156 168 180 191 201 209 217 223 227 230 231 231 229 226 222 217 211 205 198 191 184 178 171 165 159 154 149 144 140 136 133 130 127 
127 130 133 136 140 143 148 152 158 163 169 176 182 189 196 203 209 215 221 225 229 231 231 231 229 225 220 213 205 196 186 175 164 152 140 129 118 107 97 88 79 71 65 59 54 50 46 44 42 41 41 42 44 46 50 54 59 65 71 79 88 97 107 118 129 140 152 164 175 186 196 205 213 220 225 229 231 231 231 229 225 221 215 209 203 196 189 182 176 169 163 158 152 148 143 140 136 133 130 127 
127 129 132 136 139 143 147 151 156 162 167 174 180 187 194 201 207 213 219 224 227 230 231 231 230 227 223 217 210 201 192 182 171 160 149 138 127 117 107 98 89 82 75 69 64 59 56 54 52 51 51 52 54 56 59 64 69 75 82 89 98 107 117 127 138 149 160 171 182 192 201 210 217 223 227 230 231 231 230 227 224 219 213 207 201 194 187 180 174 167 162 156 151 147 143 139 136 132 129 127 
127 129 132 135 138 142 146 150 155 160 166 172 178 185 191 198 205 211 217 222 226 229 231 232 231 229 225 220 214 207 198 189 179 169 158 148 137 127 118 109 101 93 86 80 75 71 67 65 63 62 62 63 65 67 71 75 80 86 93 101 109 118 127 137 148 158 169 179 189 198 207 214 220 225 229 231 232 231 229 226 222 217 211 205 198 191 185 178 172 166 160 155 150 146 142 138 135 132 129 127 
127 129 132 134 138 141 145 149 153 158 164 169 176 182 189 195 202 208 214 219 224 228 230 231 231 230 227 223 218 212 204 196 187 177 168 158 148 138 129 121 112 105 98 92 87 83 79 77 75 74 74 75 77 79 83 87 92 98 105 112 121 129 138 148 158 168 177 187 196 204 212 218 223 227 230 231 231 230 228 224 219 214 208 202 195 189 182 176 169 164 158 153 149 145 141 138 134 132 129 127 
127 129 131 134 137 140 143 147 152 156 162 167 173 179 186 192 199 205 211 217 222 226 229 231 232 231 229 226 222 217 210 203 195 186 177 168 158 149 140 132 125 117 111 105 100 95 92 89 88 87 87 88 89 92 95 100 105 111 117 125 132 140 149 158 168 177 186 195 203 210 217 222 226 229 231 232 231 229 226 222 217 211 205 199 192 186 179 173 167 162 156 152 147 143 140 137 134 131 129 127 
127 129 131 133 136 139 142 146 150 154 159 165 171 177 183 189 196 202 208 214 219 224 227 230 231 232 231 228 225 221 215 209 202 194 186 177 169 160 152 144 136 129 124 118 113 109 106 103 101 101 101 101 103 106 109 113 118 124 129 136 144 152 160 169 177 186 194 202 209 215 221 225 228 231 232 231 230 227 224 219 214 208 202 196 189 183 177 171 165 159 154 150 146 142 139 136 133 131 129 127 
127 129 131 133 135 138 141 145 148 153 157 162 168 174 180 186 193 199 205 211 216 221 225 228 230 231 231 230 228 224 220 215 209 202 195 187 179 171 164 156 149 142 136 131 127 123 120 117 116 115 115 116 117 120 123 127 131 136 142 149 156 164 171 179 187 195 202 209 215 220 224 228 230 231 231 230 228 225 221 216 211 205 199 193 186 180 174 168 162 157 153 148 145 141 138 135 133 131 129 127 
127 128 130 132 135 137 140 143 147 151 155 160 165 171 177 183 189 196 202 208 213 218 223 226 229 231 232 231 230 227 224 220 215 209 203 196 189 182 175 168 162 155 150 145 140 136 133 131 129 129 129 129 131 133 136 140 145 150 155 162 168 175 182 189 196 203 209 215 220 224 227 230 231 232 231 229 226 223 218 213 208 202 196 189 183 177 171 165 160 155 151 147 143 140 137 135 132 130 128 127 
127 128 130 132 134 136 139 142 145 149 153 158 163 168 174 180 186 192 198 204 210 215 220 224 227 230 231 232 231 230 227 224 220 215 210 204 198 192 186 180 174 168 163 158 154 150 148 145 144 143 143 144 145 148 150 154 158 163 168 174 180 186 192 198 204 210 215 220 224 227 230 231 232 231 230 227 224 220 215 210 204 198 192 186 180 174 168 163 158 153 149 145 142 139 136 134 132 130 128 127 
127 128 130 131 133 135 138 141 144 147 151 155 160 165 170 176 182 188 194 200 206 211 216 221 225 228 230 231 232 231 230 227 224 221 217 212 207 201 196 191 185 180 176 171 168 164 162 160 158 158 158 158 160 162 164 168 171 176 180 185 191 196 201 207 212 217 221 224 227 230 231 232 231 230 228 225 221 216 211 206 200 194 188 182 176 170 165 160 155 151 147 144 141 138 135 133 131 130 128 127 
127 128 129 131 133 135 137 139 142 145 149 153 157 162 167 173 178 184 190 196 202 208 213 217 222 225 228 230 231 232 231 230 228 225 222 218 214 210 205 201 196 192 187 184 180 177 175 173 172 171 171 172 173 175 177 180 184 187 192 196 201 205 210 214 218 222 225 228 230 231 232 231 230 228 225 222 217 213 208 202 196 190 184 178 173 167 162 157 153 149 145 142 139 137 135 133 131 129 128 127 
127 128 129 130 132 134 136 138 141 144 147 151 155 159 164 169 175 180 186 192 198 203 209 214 218 222 225 228 230 231 232 231 230 228 226 223 220 217 213 209 205 202 198 195 192 190 187 186 185 184 184 185 186 187 190 192 195 198 202 205 209 213 217 220 223 226 228 230 231 232 231 230 228 225 222 218 214 209 203 198 192 186 180 175 169 164 159 155 151 147 144 141 138 136 134 132 130 129 128 127 
127 128 129 130 131 133 135 137 139 142 145 148 152 156 161 166 171 176 182 188 193 199 204 209 214 218 222 225 228 230 231 232 231 231 229 227 225 223 220 217 214 211 208 205 203 200 199 197 196 196 196 196 197 199 200 203 205 208 211 214 217 220 223 225 227 229 231 231 232 231 230 228 225 222 218 214 209 204 199 193 188 182 176 171 166 161 156 152 148 145 142 139 137 135 133 131 130 129 128 127 
127 127 129 130 131 132 134 136 138 140 143 146 150 154 158 162 167 172 178 183 189 194 200 205 210 214 218 222 225 228 230 231 231 232 231 230 229 227 225 223 220 218 216 214 212 210 208 207 207 206 206 207 207 208 210 212 214 216 218 220 223 225 227 229 230 231 232 231 231 230 228 225 222 218 214 210 205 200 194 189 183 178 172 167 162 158 154 150 146 143 140 138 136 134 132 131 130 129 127 127 
127 127 128 129 130 132 133 135 137 139 141 144 147 151 155 159 164 168 174 179 184 189 195 200 205 210 214 218 222 225 227 229 230 231 232 231 231 230 229 227 226 224 222 221 219 218 217 216 215 215 215 215 216 217 218 219 221 222 224 226 227 229 230 231 231 232 231 230 229 227 225 222 218 214 210 205 200 195 189 184 179 174 168 164 159 155 151 147 144 141 139 137 135 133 132 130 129 128 127 127 
127 127 128 129 130 131 132 134 135 137 140 142 145 148 152 156 160 165 169 174 179 185 190 195 200 205 209 214 217 221 224 226 228 230 231 231 232 231 231 230 229 228 227 226 225 224 223 222 222 222 222 222 222 223 224 225 226 227 228 229 230 231 231 232 231 231 230 228 226 224 221 217 214 209 205 200 195 190 185 179 174 169 165 160 156 152 148 145 142 140 137 135 134 132 131 130 129 128 127 127 
127 127 128 129 129 130 132 133 134 136 138 140 143 146 149 153 157 161 165 170 175 180 185 190 195 200 204 209 213 216 220 223 225 227 229 230 231 231 231 231 231 231 230 229 229 228 228 227 227 227 227 227 227 228 228 229 229 230 231 231 231 231 231 231 230 229 227 225 223 220 216 213 209 204 200 195 190 185 180 175 170 165 161 157 153 149 146 143 140 138 136 134 133 132 130 129 129 128 127 127 
127 127 128 128 129 130 131 132 133 135 137 139 141 144 147 150 154 157 161 166 170 175 180 185 189 194 199 203 208 211 215 218 221 224 226 228 229 230 231 231 231 231 231 231 231 231 230 230 230 230 230 230 230 230 231 231 231 231 231 231 231 231 230 229 228 226 224 221 218 215 211 208 203 199 194 189 185 180 175 170 166 161 157 154 150 147 144 141 139 137 135 133 132 131 130 129 128 128 127 127 
127 127 127 128 129 129 130 131 132 134 135 137 139 142 144 147 150 154 158 162 166 170 175 179 184 189 193 198 202 206 210 213 216 219 222 224 226 227 229 229 230 231 231 231 231 231 231 231 231 231 231 231 231 231 231 231 231 231 231 230 229 229 227 226 224 222 219 216 213 210 206 202 198 193 189 184 179 175 170 166 162 158 154 150 147 144 142 139 137 135 134 132 131 130 129 129 128 127 127 127 
127 127 127 128 128 129 130 131 132 133 134 136 138 140 142 145 148 151 154 158 162 166 170 174 179 183 188 192 196 200 204 208 211 214 217 219 222 224 225 226 228 228 229 230 230 230 231 231 231 231 231 231 231 231 230 230 230 229 228 228 226 225 224 222 219 217 214 211 208 204 200 196 192 188 183 179 174 170 166 162 158 154 151 148 145 142 140 138 136 134 133 132 131 130 129 128 128 127 127 127 
127 127 127 128 128 129 129 130 131 132 133 134 136 138 140 142 145 148 151 154 158 161 165 169 174 178 182 186 190 194 198 202 205 208 211 214 217 219 221 222 224 225 226 227 227 228 228 229 229 229 229 229 229 228 228 227 227 226 225 224 222 221 219 217 214 211 208 205 202 198 194 190 186 182 178 174 169 165 161 158 154 151 148 145 142 140 138 136 134 133 132 131 130 129 129 128 128 127 127 127 
127 127 127 127 128 128 129 129 130 131 132 133 135 136 138 140 143 145 148 151 154 157 161 165 168 172 176 180 184 188 192 196 199 202 205 208 211 213 215 217 219 220 222 223 223 224 225 225 225 225 225 225 225 225 224 223 223 222 220 219 217 215 213 211 208 205 202 199 196 192 188 184 180 176 172 168 165 161 157 154 151 148 145 143 140 138 136 135 133 132 131 130 129 129 128 128 127 127 127 127 
127 127 127 127 128 128 128 129 130 130 131 132 134 135 136 138 140 143 145 148 150 154 157 160 164 167 171 175 178 182 186 189 193 196 199 202 205 207 209 211 213 215 216 217 218 219 220 220 221 221 221 221 220 220 219 218 217 216 215 213 211 209 207 205 202 199 196 193 189 186 182 178 175 171 167 164 160 157 154 150 148 145 143 140 138 136 135 134 132 131 130 130 129 128 128 128 127 127 127 127 
127 127 127 127 127 128 128 129 129 130 130 131 132 134 135 137 138 140 142 145 147 150 153 156 159 162 166 169 173 176 180 183 186 189 192 195 198 201 203 205 207 209 210 211 212 213 214 215 215 215 215 215 215 214 213 212 211 210 209 207 205 203 201 198 195 192 189 186 183 180 176 173 169 166 162 159 156 153 150 147 145 142 140 138 137 135 134 132 131 130 130 129 129 128 128 127 127 127 127 127 
127 127 127 127 127 128 128 128 129 129 130 131 131 132 134 135 136 138 140 142 144 147 149 152 155 158 161 164 167 170 174 177 180 183 186 189 191 194 196 198 200 202 203 205 206 207 208 208 208 209 209 208 208 208 207 206 205 203 202 200 198 196 194 191 189 186 183 180 177 174 170 167 164 161 158 155 152 149 147 144 142 140 138 136 135 134 132 131 131 130 129 129 128 128 128 127 127 127 127 127 
127 127 127 127 127 127 128 128 128 129 129 130 131 131 132 134 135 136 138 140 142 144 146 148 151 154 156 159 162 165 168 171 174 177 179 182 185 187 189 191 193 195 196 198 199 200 201 201 202 202 202 202 201 201 200 199 198 196 195 193 191 189 187 185 182 179 177 174 171 168 165 162 159 156 154 151 148 146 144 142 140 138 136 135 134 132 131 131 130 129 129 128 128 128 127 127 127 127 127 127 
127 127 127 127 127 127 127 128 128 128 129 129 130 131 131 132 134 135 136 138 139 141 143 145 147 150 152 155 157 160 163 165 168 171 173 176 178 180 182 184 186 188 189 191 192 193 193 194 194 195 195 194 194 193 193 192 191 189 188 186 184 182 180 178 176 173 171 168 165 163 160 157 155 152 150 147 145 143 141 139 138 136 135 134 132 131 131 130 129 129 128 128 128 127 127 127 127 127 127 127 
127 127 127 127 127 127 127 127 128 128 128 129 129 130 131 131 132 133 134 136 137 139 140 142 144 146 148 151 153 155 158 160 162 165 167 169 172 174 176 178 179 181 182 183 185 185 186 187 187 187 187 187 187 186 185 185 183 182 181 179 178 176 174 172 169 167 165 162 160 158 155 153 151 148 146 144 142 140 139 137 136 134 133 132 131 131 130 129 129 128 128 128 127 127 127 127 127 127 127 127 
127 127 127 127 127 127 127 127 127 128 128 128 129 129 130 130 131 132 133 134 135 137 138 140 141 143 145 147 149 151 153 155 157 159 162 164 166 167 169 171 173 174 175 176 177 178 179 180 180 180 180 180 180 179 178 177 176 175 174 173 171 169 167 166 164 162 159 157 155 153 151 149 147 145 143 141 140 138 137 135 134 133 132 131 130 130 129 129 128 128 128 127 127 127 127 127 127 127 127 127 
127 127 127 127 127 127 127 127 127 127 128 128 128 129 129 130 130 131 132 133 134 135 136 137 139 140 142 144 145 147 149 151 153 154 156 158 160 162 163 165 166 168 169 170 171 171 172 173 173 173 173 173 173 172 171 171 170 169 168 166 165 163 162 160 158 156 154 153 151 149 147 145 144 142 140 139 137 136 135 134 133 132 131 130 130 129 129 128 128 128 127 127 127 127 127 127 127 127 127 127 
127 127 127 127 127 127 127 127 127 127 127 128 128 128 129 129 130 130 131 132 132 133 134 135 137 138 139 141 142 144 145 147 148 150 152 153 155 156 158 159 160 161 163 163 164 165 166 166 166 166 166 166 166 166 165 164 163 163 161 160 159 158 156 155 153 152 150 148 147 145 144 142 141 139 138 137 135 134 133 132 132 131 130 130 129 129 128 128 128 127 127 127 127 127 127 127 127 127 127 127 
127 127 127 127 127 127 127 127 127 127 127 127 128 128 128 129 129 129 130 131 131 132 133 134 135 136 137 138 139 141 142 143 145 146 147 149 150 151 152 154 155 156 157 158 158 159 159 160 160 160 160 160 160 159 159 158 158 157 156 155 154 152 151 150 149 147 146 145 143 142 141 139 138 137 136 135 134 133 132 131 131 130 129 129 129 128 128 128 127 127 127 127 127 127 127 127 127 127 127 127 
127 127 127 127 127 127 127 127 127 127 127 127 127 128 128 128 128 129 129 130 130 131 132 132 133 134 135 136 137 138 139 140 141 142 143 145 146 147 148 149 150 151 151 152 153 153 154 154 154 154 154 154 154 154 153 153 152 151 151 150 149 148 147 146 145 143 142 141 140 139 138 137 136 135 134 133 132 132 131 130 130 129 129 128 128 128 128 127 127 127 127 127 127 127 127 127 127 127 127 127 
127 127 127 127 127 127 127 127 127 127 127 127 127 127 128 128 128 128 129 129 129 130 130 131 132 132 133 134 135 135 136 137 138 139 140 141 142 143 143 144 145 146 146 147 148 148 148 149 149 149 149 149 149 148 148 148 147 146 146 145 144 143 143 142 141 140 139 138 137 136 135 135 134 133 132 132 131 130 130 129 129 129 128 128 128 128 127 127 127 127 127 127 127 127 127 127 127 127 127 127 
127 127 127 127 127 127 127 127 127 127 127 127 127 127 127 127 128 128 128 128 129 129 129 130 130 131 131 132 133 133 134 135 135 136 137 138 138 139 140 140 141 141 142 142 143 143 143 144 144 144 144 144 144 143 143 143 142 142 141 141 140 140 139 138 138 137 136 135 135 134 133 133 132 131 131 130 130 129 129 129 128 128 128 128 127 127 127 127 127 127 127 127 127 127 127 127 127 127 127 127 
127 127 127 127 127 127 127 127 127 127 127 127 127 127 127 127 127 127 128 128 128 128 129 129 129 130 130 130 131 131 132 132 133 133 134 134 135 136 136 136 137 137 138 138 138 139 139 139 139 139 139 139 139 139 139 138 138 138 137 137 136 136 136 135 134 134 133 133 132 132 131 131 130 130 130 129 129 129 128 128 128 128 127 127 127 127 127 127 127 127 127 127 127 127 127 127 127 127 127 127 
127 127 127 127 127 127 127 127 127 127 127 127 127 127 127 127 127 127 127 127 127 128 128 128 128 129 129 129 129 130 130 130 131 131 131 132 132 132 133 133 133 134 134 134 134 134 135 135 135 135 135 135 135 135 134 134 134 134 134 133 133 133 132 132 132 131 131 131 130 130 130 129 129 129 129 128 128 128 128 127 127 127 127 127 127 127 127 127 127 127 127 127 127 127 127 127 127 127 127 127 
127 127 127 127 127 127 127 127 127 127 127 127 127 127 127 127 127 127 127 127 127 127 127 127 127 127 128 128 128 128 128 128 129 129 129 129 129 129 130 130 130 130 130 130 130 130 130 131 131 131 131 131 131 130 130 130 130 130 130 130 130 130 129 129 129 129 129 129 128 128 128 128 128 128 127 127 127 127 127 127 127 127 127 127 127 127 127 127 127 127 127 127 127 127 127 127 127 127 127 127 
127 127 127 127 127 127 127 127 127 127 127 127 127 127 127 127 127 127 127 127 127 127 127 127 127 127 127 127 127 127 127 127 127 127 127 127 127 127 127 127 127 127 127 127 127 127 127 127 127 127 127 127 127 127 127 127 127 127 127 127 127 127 127 127 127 127 127 127 127 127 127 127 127 127 127 127 127 127 127 127 127 127 127 127 127 127 127 127 127 127 127 127 127 127 127 127 127 127 127 127 
