P2
100 100
255
127 127 127 127 127 127 127 127 127 127 127 127 127 127 127 127 127 127 127 127 127 127 127 127 127 127 127 127 127 127 127 127 127 127 127 127 127 127 127 127 127 127 127 127 127 127 127 127 127 127 127 127 127 127 127 127 127 127 127 127 127 127 127 127 127 127 127 127 127 127 127 127 127 127 127 127 127 127 127 127 127 127 127 127 127 127 127 127 127 127 127 127 127 127 127 127 127 127 127 127 
127 127 127 127 127 127 127 128 128 128 128 129 129 129 130 130 131 131 132 132 133 133 134 134 135 136 136 137 138 138 139 139 140 140 141 141 141 142 142 142 142 143 143 143 143 143 143 143 143 143 143 143 143 143 143 143 143 143 143 142 142 142 142 141 141 141 140 140 139 139 138 138 137 136 136 135 134 134 133 133 132 132 131 131 130 130 129 129 129 128 128 128 128 127 127 127 127 127 127 127 
127 127 127 127 128 128 128 129 129 129 130 131 131 132 133 134 135 136 137 138 139 140 141 142 144 145 146 147 149 150 151 152 153 154 154 155 156 157 157 158 158 159 159 159 159 160 160 160 160 160 160 160 160 160 160 159 159 159 159 158 158 157 157 156 155 154 154 153 152 151 150 149 147 146 145 144 142 141 140 139 138 137 136 135 134 133 132 131 131 130 129 129 129 128 128 128 127 127 127 127 
127 127 127 128 128 129 129 130 130 131 132 133 134 135 136 137 139 140 142 143 145 147 149 151 152 154 156 158 159 161 163 164 166 167 168 169 170 171 172 173 173 174 174 175 175 175 175 176 176 176 176 176 176 175 175 175 175 174 174 173 173 172 171 170 169 168 167 166 164 163 161 159 158 156 154 152 151 149 147 145 143 142 140 139 137 136 135 134 133 132 131 130 130 129 129 128 128 127 127 127 
127 127 128 128 129 129 130 131 132 133 134 135 136 138 140 141 143 145 147 149 152 154 156 159 161 163 166 168 170 172 174 176 178 180 181 183 184 185 186 187 188 188 189 189 190 190 190 190 191 191 191 191 190 190 190 190 189 189 188 188 187 186 185 184 183 181 180 178 176 174 172 170 168 166 163 161 159 156 154 152 149 147 145 143 141 140 138 136 135 134 133 132 131 130 129 129 128 128 127 127 
127 127 128 129 129 130 131 132 133 135 136 138 139 141 143 145 148 150 153 155 158 161 164 167 170 173 175 178 181 183 186 188 190 192 194 195 197 198 199 200 201 202 202 203 203 204 204 204 204 204 204 204 204 204 204 203 203 202 202 201 200 199 198 197 195 194 192 190 188 186 183 181 178 175 173 170 167 164 161 158 155 153 150 148 145 143 141 139 138 136 135 133 132 131 130 129 129 128 127 127 
127 127 128 129 130 131 132 133 135 136 138 140 142 145 147 150 152 155 159 162 165 168 172 175 178 182 185 188 191 194 197 199 202 204 206 207 209 210 211 212 213 214 214 215 215 216 216 216 216 216 216 216 216 216 216 215 215 214 214 213 212 211 210 209 207 206 204 202 199 197 194 191 188 185 182 178 175 172 168 165 162 159 155 152 150 147 145 142 140 138 136 135 133 132 131 130 129 128 127 127 
127 128 129 130 131 132 133 135 137 139 141 143 146 148 151 154 157 161 165 168 172 176 180 183 187 191 194 198 201 204 207 210 212 214 216 218 220 221 222 223 224 224 225 225 225 226 226 226 226 226 226 226 226 226 226 225 225 225 224 224 223 222 221 220 218 216 214 212 210 207 204 201 198 194 191 187 183 180 176 172 168 165 161 157 154 151 148 146 143 141 139 137 135 133 132 131 130 129 128 127 
127 128 129 130 132 133 135 137 139 141 143 146 149 152 156 159 163 167 171 175 179 183 188 192 196 200 204 207 211 214 217 219 222 224 226 228 229 230 231 232 232 233 233 233 234 234 234 234 234 234 234 234 234 234 234 234 233 233 233 232 232 231 230 229 228 226 224 222 219 217 214 211 207 204 200 196 192 188 183 179 175 171 167 163 159 156 152 149 146 143 141 139 137 135 133 132 130 129 128 127 
127 128 129 131 133 135 136 139 141 144 146 150 153 156 160 164 168 173 177 182 186 191 195 200 204 208 212 216 220 223 226 228 230 232 234 236 237 238 238 239 239 239 240 240 240 240 240 239 239 239 239 239 239 240 240 240 240 240 239 239 239 238 238 237 236 234 232 230 228 226 223 220 216 212 208 204 200 195 191 186 182 177 173 168 164 160 156 153 150 146 144 141 139 136 135 133 131 129 128 127 
127 128 130 132 134 136 138 141 143 146 150 153 157 161 165 170 174 179 184 189 194 198 203 208 212 217 221 224 228 231 233 236 238 239 241 242 243 243 244 244 244 244 244 243 243 243 243 243 242 242 242 242 243 243 243 243 243 244 244 244 244 244 243 243 242 241 239 238 236 233 231 228 224 221 217 212 208 203 198 194 189 184 179 174 170 165 161 157 153 150 146 143 141 138 136 134 132 130 128 127 
127 129 131 133 135 138 140 143 146 150 153 157 161 166 170 175 180 185 191 196 201 206 211 216 220 224 228 232 235 238 240 242 244 245 246 247 247 247 247 247 246 246 245 245 244 244 243 243 243 243 243 243 243 243 244 244 245 245 246 246 247 247 247 247 247 246 245 244 242 240 238 235 232 228 224 220 216 211 206 201 196 191 185 180 175 170 166 161 157 153 150 146 143 140 138 135 133 131 129 127 
127 129 131 134 136 139 142 146 149 153 157 161 166 171 176 181 186 192 197 203 208 213 218 223 227 231 235 238 241 243 245 247 248 249 249 249 249 249 248 247 246 246 245 244 243 242 242 241 241 241 241 241 241 242 242 243 244 245 246 246 247 248 249 249 249 249 249 248 247 245 243 241 238 235 231 227 223 218 213 208 203 197 192 186 181 176 171 166 161 157 153 149 146 142 139 136 134 131 129 127 
127 129 132 135 138 141 145 148 152 156 161 166 171 176 181 187 193 198 204 210 215 220 225 230 234 238 241 244 246 248 249 250 251 251 250 250 249 248 247 246 244 243 241 240 239 238 237 236 236 236 236 236 236 237 238 239 240 241 243 244 246 247 248 249 250 250 251 251 250 249 248 246 244 241 238 234 230 225 220 215 210 204 198 193 187 181 176 171 166 161 156 152 148 145 141 138 135 132 129 127 
127 130 133 136 140 143 147 151 156 160 165 170 176 181 187 193 199 205 211 216 222 227 232 236 240 243 246 248 250 251 252 252 252 251 250 249 247 245 243 241 240 238 236 234 233 231 230 229 229 229 229 229 229 230 231 233 234 236 238 240 241 243 245 247 249 250 251 252 252 252 251 250 248 246 243 240 236 232 227 222 216 211 205 199 193 187 181 176 170 165 160 156 151 147 143 140 136 133 130 127 
127 130 134 137 141 145 150 154 159 164 170 175 181 187 193 199 205 211 217 223 228 233 237 241 245 247 250 251 252 252 252 252 251 249 247 245 243 240 238 235 233 230 228 226 224 222 221 220 219 219 219 219 220 221 222 224 226 228 230 233 235 238 240 243 245 247 249 251 252 252 252 252 251 250 247 245 241 237 233 228 223 217 211 205 199 193 187 181 175 170 164 159 154 150 145 141 137 134 130 127 
127 131 135 139 143 148 152 157 163 168 174 180 186 193 199 205 212 218 224 229 234 239 242 246 249 251 252 253 253 252 251 250 248 245 243 240 237 233 230 227 224 221 218 216 213 212 210 209 208 208 208 208 209 210 212 213 216 218 221 224 227 230 233 237 240 243 245 248 250 251 252 253 253 252 251 249 246 242 239 234 229 224 218 212 205 199 193 186 180 174 168 163 157 152 148 143 139 135 131 127 
127 131 136 140 145 150 155 161 167 173 179 185 192 198 205 211 218 224 229 235 239 243 247 249 251 253 253 253 252 251 249 246 243 240 236 232 228 225 221 217 213 210 206 204 201 199 197 196 195 194 194 195 196 197 199 201 204 206 210 213 217 221 225 228 232 236 240 243 246 249 251 252 253 253 253 251 249 247 243 239 235 229 224 218 211 205 198 192 185 179 173 167 161 155 150 145 140 136 131 127 
127 132 137 142 147 153 159 165 171 177 184 191 197 204 211 217 224 229 235 240 244 247 250 252 253 253 253 252 250 247 244 241 237 233 228 223 219 214 209 205 201 197 193 190 187 185 183 181 180 180 180 180 181 183 185 187 190 193 197 201 205 209 214 219 223 228 233 237 241 244 247 250 252 253 253 253 252 250 247 244 240 235 229 224 217 211 204 197 191 184 177 171 165 159 153 147 142 137 132 127 
127 132 138 143 149 155 162 168 175 182 189 196 203 210 216 223 229 235 240 244 247 250 252 253 253 253 251 249 246 243 238 234 229 224 218 213 207 202 197 192 187 183 179 175 172 170 168 166 165 164 164 165 166 168 170 172 175 179 183 187 192 197 202 207 213 218 224 229 234 238 243 246 249 251 253 253 253 252 250 247 244 240 235 229 223 216 210 203 196 189 182 175 168 162 155 149 143 138 132 127 
127 133 139 145 152 158 165 172 179 186 194 201 208 215 222 228 234 239 244 247 250 252 253 253 253 251 248 245 241 236 231 225 219 213 207 201 195 189 183 178 173 168 164 160 157 154 152 150 149 148 148 149 150 152 154 157 160 164 168 173 178 183 189 195 201 207 213 219 225 231 236 241 245 248 251 253 253 253 252 250 247 244 239 234 228 222 215 208 201 194 186 179 172 165 158 152 145 139 133 127 
127 133 140 147 154 161 168 176 183 191 198 206 213 220 227 233 239 243 247 250 252 253 253 253 251 248 244 240 234 229 222 216 209 202 195 188 181 175 169 163 157 153 148 144 141 138 136 134 133 132 132 133 134 136 138 141 144 148 153 157 163 169 175 181 188 195 202 209 216 222 229 234 240 244 248 251 253 253 253 252 250 247 243 239 233 227 220 213 206 198 191 183 176 168 161 154 147 140 133 127 
127 134 141 149 156 164 172 180 188 195 203 211 218 225 232 237 242 247 250 252 253 253 253 250 247 243 238 233 227 220 212 205 197 190 182 174 167 160 154 148 142 137 133 129 126 123 121 119 118 117 117 118 119 121 123 126 129 133 137 142 148 154 160 167 174 182 190 197 205 212 220 227 233 238 243 247 250 253 253 253 252 250 247 242 237 232 225 218 211 203 195 188 180 172 164 156 149 141 134 127 
127 134 142 151 159 167 175 183 192 200 208 216 223 230 236 241 246 249 252 253 253 253 250 247 243 238 232 225 218 210 202 193 185 177 168 160 153 146 139 133 127 123 118 114 111 108 106 104 103 102 102 103 104 106 108 111 114 118 123 127 133 139 146 153 160 168 177 185 193 202 210 218 225 232 238 243 247 250 253 253 253 252 249 246 241 236 230 223 216 208 200 192 183 175 167 159 151 142 134 127 
127 135 144 152 161 170 178 187 196 204 212 220 227 234 240 245 249 251 253 253 253 251 247 243 238 231 224 216 208 199 190 181 172 163 154 146 138 131 125 119 113 108 103 99 96 93 91 90 88 88 88 88 90 91 93 96 99 103 108 113 119 125 131 138 146 154 163 172 181 190 199 208 216 224 231 238 243 247 251 253 253 253 251 249 245 240 234 227 220 212 204 196 187 178 170 161 152 144 135 127 
127 136 145 154 163 173 182 191 200 208 217 224 231 238 243 247 251 253 253 253 251 248 243 238 231 224 216 207 197 188 178 168 159 150 141 132 125 118 111 105 99 94 90 86 83 80 78 76 75 75 75 75 76 78 80 83 86 90 94 99 105 111 118 125 132 141 150 159 168 178 188 197 207 216 224 231 238 243 248 251 253 253 253 251 247 243 238 231 224 217 208 200 191 182 173 163 154 145 136 127 
127 136 146 156 166 175 185 194 204 212 221 228 235 241 246 250 252 253 253 251 248 244 238 232 224 216 206 197 186 176 166 156 146 136 127 119 111 104 97 91 86 81 77 73 70 68 66 64 64 63 63 64 64 66 68 70 73 77 81 86 91 97 104 111 119 127 136 146 156 166 176 186 197 206 216 224 232 238 244 248 251 253 253 252 250 246 241 235 228 221 212 204 194 185 175 166 156 146 136 127 
127 137 147 158 168 178 188 198 207 216 224 232 238 244 248 251 253 253 252 249 245 240 233 225 216 207 197 186 175 164 153 143 133 124 115 106 98 91 85 79 74 69 65 62 59 57 55 54 53 53 53 53 54 55 57 59 62 65 69 74 79 85 91 98 106 115 124 133 143 153 164 175 186 197 207 216 225 233 240 245 249 252 253 253 251 248 244 238 232 224 216 207 198 188 178 168 158 147 137 127 
127 138 149 159 170 181 191 201 211 220 228 235 241 246 250 252 253 252 250 246 241 234 227 218 208 197 186 175 164 152 141 130 121 111 102 94 86 79 73 68 63 59 55 52 50 48 46 45 45 44 44 45 45 46 48 50 52 55 59 63 68 73 79 86 94 102 111 121 130 141 152 164 175 186 197 208 218 227 234 241 246 250 252 253 252 250 246 241 235 228 220 211 201 191 181 170 159 149 138 127 
127 138 150 161 172 183 194 204 214 223 231 238 243 248 251 252 252 251 247 243 236 229 220 210 199 188 176 164 152 141 129 119 109 100 91 83 75 69 63 58 54 50 47 44 42 40 39 38 37 37 37 37 38 39 40 42 44 47 50 54 58 63 69 75 83 91 100 109 119 129 141 152 164 176 188 199 210 220 229 236 243 247 251 252 252 251 248 243 238 231 223 214 204 194 183 172 161 150 138 127 
127 139 151 163 174 186 197 207 217 226 233 240 245 249 252 252 251 249 244 238 231 222 212 202 190 178 166 153 141 129 119 108 98 88 80 72 65 59 54 49 46 42 40 37 36 34 33 32 32 32 32 32 32 33 34 36 37 40 42 46 49 54 59 65 72 80 88 98 108 119 129 141 153 166 178 190 202 212 222 231 238 244 249 251 252 252 249 245 240 233 226 217 207 197 186 174 163 151 139 127 
127 139 152 164 176 188 199 210 219 228 236 242 247 250 252 252 250 246 241 234 225 216 205 193 181 168 156 143 130 119 108 97 87 78 70 63 57 51 46 42 39 36 34 32 31 30 29 28 28 28 28 28 28 29 30 31 32 34 36 39 42 46 51 57 63 70 78 87 97 108 119 130 143 156 168 181 193 205 216 225 234 241 246 250 252 252 250 247 242 236 228 219 210 199 188 176 164 152 139 127 
127 140 153 166 178 190 202 212 222 230 238 244 248 251 252 251 248 243 237 229 219 209 197 185 172 159 146 133 121 109 98 87 78 69 62 55 49 44 40 36 34 31 30 28 27 26 26 25 25 25 25 25 25 26 26 27 28 30 31 34 36 40 44 49 55 62 69 78 87 98 109 121 133 146 159 172 185 197 209 219 229 237 243 248 251 252 251 248 244 238 230 222 212 202 190 178 166 153 140 127 
127 140 154 167 180 192 204 214 224 232 239 245 249 251 251 249 245 240 233 224 213 202 190 177 163 150 136 124 111 100 88 78 69 61 54 48 43 38 35 32 30 28 27 26 25 24 24 24 24 24 24 24 24 24 24 25 26 27 28 30 32 35 38 43 48 54 61 69 78 88 100 111 124 136 150 163 177 190 202 213 224 233 240 245 249 251 251 249 245 239 232 224 214 204 192 180 167 154 140 127 
127 141 154 168 181 194 206 216 226 234 241 246 249 250 250 247 243 236 228 218 207 195 182 168 154 141 127 115 102 91 80 70 62 54 47 42 37 34 31 28 27 25 25 24 24 23 23 23 23 23 23 23 23 23 23 24 24 25 25 27 28 31 34 37 42 47 54 62 70 80 91 102 115 127 141 154 168 182 195 207 218 228 236 243 247 250 250 249 246 241 234 226 216 206 194 181 168 154 141 127 
127 141 155 169 183 195 207 218 228 236 242 247 249 250 249 245 240 232 223 213 201 188 174 160 146 132 119 106 94 83 72 63 55 48 42 37 33 30 28 26 25 24 23 23 23 23 23 24 24 24 24 24 24 23 23 23 23 23 24 25 26 28 30 33 37 42 48 55 63 72 83 94 106 119 132 146 160 174 188 201 213 223 232 240 245 249 250 249 247 242 236 228 218 207 195 183 169 155 141 127 
127 141 156 170 184 197 209 220 229 237 243 247 249 249 247 243 237 228 219 207 195 181 167 153 138 125 111 98 86 75 65 57 49 43 37 33 30 27 25 24 24 23 23 23 24 24 24 25 25 25 25 25 25 24 24 24 23 23 23 24 24 25 27 30 33 37 43 49 57 65 75 86 98 111 125 138 153 167 181 195 207 219 228 237 243 247 249 249 247 243 237 229 220 209 197 184 170 156 141 127 
127 142 157 171 185 198 210 221 230 238 243 247 249 248 245 240 233 225 214 202 189 175 160 146 131 118 104 91 79 69 59 51 44 38 34 30 27 25 24 23 23 23 24 24 25 25 26 26 26 27 27 26 26 26 25 25 24 24 23 23 23 24 25 27 30 34 38 44 51 59 69 79 91 104 118 131 146 160 175 189 202 214 225 233 240 245 248 249 247 243 238 230 221 210 198 185 171 157 142 127 
127 142 157 172 186 199 211 222 231 238 244 247 248 247 243 238 230 221 209 197 183 169 154 139 125 111 97 85 73 63 54 46 40 35 31 28 25 24 23 23 23 24 25 25 26 27 28 28 28 29 29 28 28 28 27 26 25 25 24 23 23 23 24 25 28 31 35 40 46 54 63 73 85 97 111 125 139 154 169 183 197 209 221 230 238 243 247 248 247 244 238 231 222 211 199 186 172 157 142 127 
127 142 158 173 187 200 212 223 232 239 244 247 247 246 241 235 227 217 205 192 178 163 148 133 119 105 91 79 68 58 49 42 36 32 28 26 24 23 23 23 24 25 26 27 28 29 30 30 31 31 31 31 30 30 29 28 27 26 25 24 23 23 23 24 26 28 32 36 42 49 58 68 79 91 105 119 133 148 163 178 192 205 217 227 235 241 246 247 247 244 239 232 223 212 200 187 173 158 142 127 
127 142 158 173 188 201 213 224 232 239 244 246 246 244 240 233 224 213 201 187 173 157 142 127 113 99 86 74 63 54 46 39 34 30 27 25 24 23 23 24 25 26 27 29 30 31 32 33 33 33 33 33 33 32 31 30 29 27 26 25 24 23 23 24 25 27 30 34 39 46 54 63 74 86 99 113 127 142 157 173 187 201 213 224 233 240 244 246 246 244 239 232 224 213 201 188 173 158 142 127 
127 143 159 174 188 202 214 224 233 239 244 246 246 243 238 230 221 210 197 183 168 153 137 123 108 94 81 69 59 50 42 36 31 28 25 24 23 23 24 25 26 28 29 30 32 33 34 35 35 36 36 35 35 34 33 32 30 29 28 26 25 24 23 23 24 25 28 31 36 42 50 59 69 81 94 108 123 137 153 168 183 197 210 221 230 238 243 246 246 244 239 233 224 214 202 188 174 159 143 127 
127 143 159 174 189 202 214 225 233 240 244 245 245 241 236 228 218 206 193 179 164 148 133 118 103 90 77 65 55 47 40 34 30 27 25 23 23 24 25 26 27 29 31 32 34 35 36 37 38 38 38 38 37 36 35 34 32 31 29 27 26 25 24 23 23 25 27 30 34 40 47 55 65 77 90 103 118 133 148 164 179 193 206 218 228 236 241 245 245 244 240 233 225 214 202 189 174 159 143 127 
127 143 159 175 189 203 215 225 233 240 243 245 244 240 234 226 216 204 190 175 160 144 129 114 99 86 73 62 52 44 37 32 28 26 24 23 23 24 25 27 29 30 32 34 36 37 38 39 40 40 40 40 39 38 37 36 34 32 30 29 27 25 24 23 23 24 26 28 32 37 44 52 62 73 86 99 114 129 144 160 175 190 204 216 226 234 240 244 245 243 240 233 225 215 203 189 175 159 143 127 
127 143 159 175 190 203 215 225 234 240 243 244 243 239 233 224 213 201 187 172 157 141 126 111 96 83 70 59 50 42 36 31 27 25 24 23 24 25 26 28 30 32 34 36 37 39 40 41 42 42 42 42 41 40 39 37 36 34 32 30 28 26 25 24 23 24 25 27 31 36 42 50 59 70 83 96 111 126 141 157 172 187 201 213 224 233 239 243 244 243 240 234 225 215 203 190 175 159 143 127 
127 143 160 175 190 204 216 226 234 240 243 244 242 238 231 222 212 199 185 170 154 138 123 108 93 80 68 57 48 40 34 30 26 24 23 23 24 25 27 29 31 33 35 37 39 40 42 43 43 44 44 43 43 42 40 39 37 35 33 31 29 27 25 24 23 23 24 26 30 34 40 48 57 68 80 93 108 123 138 154 170 185 199 212 222 231 238 242 244 243 240 234 226 216 204 190 175 160 143 127 
127 143 160 175 190 204 216 226 234 240 243 243 242 237 230 221 210 197 183 168 152 136 121 106 91 78 66 55 46 39 33 29 26 24 23 23 24 26 28 30 32 34 36 38 40 42 43 44 45 45 45 45 44 43 42 40 38 36 34 32 30 28 26 24 23 23 24 26 29 33 39 46 55 66 78 91 106 121 136 152 168 183 197 210 221 230 237 242 243 243 240 234 226 216 204 190 175 160 143 127 
127 143 160 176 190 204 216 226 234 239 243 243 241 236 229 220 209 196 181 166 150 134 119 104 90 76 64 54 45 38 32 28 25 24 23 24 25 26 28 30 33 35 37 39 41 43 44 45 46 46 46 46 45 44 43 41 39 37 35 33 30 28 26 25 24 23 24 25 28 32 38 45 54 64 76 90 104 119 134 150 166 181 196 209 220 229 236 241 243 243 239 234 226 216 204 190 176 160 143 127 
127 143 160 176 191 204 216 226 234 239 242 243 241 236 229 219 208 195 180 165 149 133 118 103 88 75 64 53 45 37 32 28 25 24 23 24 25 26 28 31 33 35 38 40 42 43 45 46 46 47 47 46 46 45 43 42 40 38 35 33 31 28 26 25 24 23 24 25 28 32 37 45 53 64 75 88 103 118 133 149 165 180 195 208 219 229 236 241 243 242 239 234 226 216 204 191 176 160 143 127 
127 143 160 176 191 204 216 226 234 239 242 243 241 236 229 219 208 194 180 164 148 132 117 102 88 75 63 53 44 37 32 28 25 24 23 24 25 27 29 31 33 36 38 40 42 44 45 46 47 47 47 47 46 45 44 42 40 38 36 33 31 29 27 25 24 23 24 25 28 32 37 44 53 63 75 88 102 117 132 148 164 180 194 208 219 229 236 241 243 242 239 234 226 216 204 191 176 160 143 127 
127 143 160 176 191 204 216 226 234 239 242 243 241 236 229 219 208 194 180 164 148 132 117 102 88 75 63 53 44 37 32 28 25 24 23 24 25 27 29 31 33 36 38 40 42 44 45 46 47 47 47 47 46 45 44 42 40 38 36 33 31 29 27 25 24 23 24 25 28 32 37 44 53 63 75 88 102 117 132 148 164 180 194 208 219 229 236 241 243 242 239 234 226 216 204 191 176 160 143 127 
127 143 160 176 191 204 216 226 234 239 242 243 241 236 229 219 208 195 180 165 149 133 118 103 88 75 64 53 45 37 32 28 25 24 23 24 25 26 28 31 33 35 38 40 42 43 45 46 46 47 47 46 46 45 43 42 40 38 35 33 31 28 26 25 24 23 24 25 28 32 37 45 53 64 75 88 103 118 133 149 165 180 195 208 219 229 236 241 243 242 239 234 226 216 204 191 176 160 143 127 
127 143 160 176 190 204 216 226 234 239 243 243 241 236 229 220 209 196 181 166 150 134 119 104 90 76 64 54 45 38 32 28 25 24 23 24 25 26 28 30 33 35 37 39 41 43 44 45 46 46 46 46 45 44 43 41 39 37 35 33 30 28 26 25 24 23 24 25 28 32 38 45 54 64 76 90 104 119 134 150 166 181 196 209 220 229 236 241 243 243 239 234 226 216 204 190 176 160 143 127 
127 143 160 175 190 204 216 226 234 240 243 243 242 237 230 221 210 197 183 168 152 136 121 106 91 78 66 55 46 39 33 29 26 24 23 23 24 26 28 30 32 34 36 38 40 42 43 44 45 45 45 45 44 43 42 40 38 36 34 32 30 28 26 24 23 23 24 26 29 33 39 46 55 66 78 91 106 121 136 152 168 183 197 210 221 230 237 242 243 243 240 234 226 216 204 190 175 160 143 127 
127 143 160 175 190 204 216 226 234 240 243 244 242 238 231 222 212 199 185 170 154 138 123 108 93 80 68 57 48 40 34 30 26 24 23 23 24 25 27 29 31 33 35 37 39 40 42 43 43 44 44 43 43 42 40 39 37 35 33 31 29 27 25 24 23 23 24 26 30 34 40 48 57 68 80 93 108 123 138 154 170 185 199 212 222 231 238 242 244 243 240 234 226 216 204 190 175 160 143 127 
127 143 159 175 190 203 215 225 234 240 243 244 243 239 233 224 213 201 187 172 157 141 126 111 96 83 70 59 50 42 36 31 27 25 24 23 24 25 26 28 30 32 34 36 37 39 40 41 42 42 42 42 41 40 39 37 36 34 32 30 28 26 25 24 23 24 25 27 31 36 42 50 59 70 83 96 111 126 141 157 172 187 201 213 224 233 239 243 244 243 240 234 225 215 203 190 175 159 143 127 
127 143 159 175 189 203 215 225 233 240 243 245 244 240 234 226 216 204 190 175 160 144 129 114 99 86 73 62 52 44 37 32 28 26 24 23 23 24 25 27 29 30 32 34 36 37 38 39 40 40 40 40 39 38 37 36 34 32 30 29 27 25 24 23 23 24 26 28 32 37 44 52 62 73 86 99 114 129 144 160 175 190 204 216 226 234 240 244 245 243 240 233 225 215 203 189 175 159 143 127 
127 143 159 174 189 202 214 225 233 240 244 245 245 241 236 228 218 206 193 179 164 148 133 118 103 90 77 65 55 47 40 34 30 27 25 23 23 24 25 26 27 29 31 32 34 35 36 37 38 38 38 38 37 36 35 34 32 31 29 27 26 25 24 23 23 25 27 30 34 40 47 55 65 77 90 103 118 133 148 164 179 193 206 218 228 236 241 245 245 244 240 233 225 214 202 189 174 159 143 127 
127 143 159 174 188 202 214 224 233 239 244 246 246 243 238 230 221 210 197 183 168 153 137 123 108 94 81 69 59 50 42 36 31 28 25 24 23 23 24 25 26 28 29 30 32 33 34 35 35 36 36 35 35 34 33 32 30 29 28 26 25 24 23 23 24 25 28 31 36 42 50 59 69 81 94 108 123 137 153 168 183 197 210 221 230 238 243 246 246 244 239 233 224 214 202 188 174 159 143 127 
127 142 158 173 188 201 213 224 232 239 244 246 246 244 240 233 224 213 201 187 173 157 142 127 113 99 86 74 63 54 46 39 34 30 27 25 24 23 23 24 25 26 27 29 30 31 32 33 33 33 33 33 33 32 31 30 29 27 26 25 24 23 23 24 25 27 30 34 39 46 54 63 74 86 99 113 127 142 157 173 187 201 213 224 233 240 244 246 246 244 239 232 224 213 201 188 173 158 142 127 
127 142 158 173 187 200 212 223 232 239 244 247 247 246 241 235 227 217 205 192 178 163 148 133 119 105 91 79 68 58 49 42 36 32 28 26 24 23 23 23 24 25 26 27 28 29 30 30 31 31 31 31 30 30 29 28 27 26 25 24 23 23 23 24 26 28 32 36 42 49 58 68 79 91 105 119 133 148 163 178 192 205 217 227 235 241 246 247 247 244 239 232 223 212 200 187 173 158 142 127 
127 142 157 172 186 199 211 222 231 238 244 247 248 247 243 238 230 221 209 197 183 169 154 139 125 111 97 85 73 63 54 46 40 35 31 28 25 24 23 23 23 24 25 25 26 27 28 28 28 29 29 28 28 28 27 26 25 25 24 23 23 23 24 25 28 31 35 40 46 54 63 73 85 97 111 125 139 154 169 183 197 209 221 230 238 243 247 248 247 244 238 231 222 211 199 186 172 157 142 127 
127 142 157 171 185 198 210 221 230 238 243 247 249 248 245 240 233 225 214 202 189 175 160 146 131 118 104 91 79 69 59 51 44 38 34 30 27 25 24 23 23 23 24 24 25 25 26 26 26 27 27 26 26 26 25 25 24 24 23 23 23 24 25 27 30 34 38 44 51 59 69 79 91 104 118 131 146 160 175 189 202 214 225 233 240 245 248 249 247 243 238 230 221 210 198 185 171 157 142 127 
127 141 156 170 184 197 209 220 229 237 243 247 249 249 247 243 237 228 219 207 195 181 167 153 138 125 111 98 86 75 65 57 49 43 37 33 30 27 25 24 24 23 23 23 24 24 24 25 25 25 25 25 25 24 24 24 23 23 23 24 24 25 27 30 33 37 43 49 57 65 75 86 98 111 125 138 153 167 181 195 207 219 228 237 243 247 249 249 247 243 237 229 220 209 197 184 170 156 141 127 
127 141 155 169 183 195 207 218 228 236 242 247 249 250 249 245 240 232 223 213 201 188 174 160 146 132 119 106 94 83 72 63 55 48 42 37 33 30 28 26 25 24 23 23 23 23 23 24 24 24 24 24 24 23 23 23 23 23 24 25 26 28 30 33 37 42 48 55 63 72 83 94 106 119 132 146 160 174 188 201 213 223 232 240 245 249 250 249 247 242 236 228 218 207 195 183 169 155 141 127 
127 141 154 168 181 194 206 216 226 234 241 246 249 250 250 247 243 236 228 218 207 195 182 168 154 141 127 115 102 91 80 70 62 54 47 42 37 34 31 28 27 25 25 24 24 23 23 23 23 23 23 23 23 23 23 24 24 25 25 27 28 31 34 37 42 47 54 62 70 80 91 102 115 127 141 154 168 182 195 207 218 228 236 243 247 250 250 249 246 241 234 226 216 206 194 181 168 154 141 127 
127 140 154 167 180 192 204 214 224 232 239 245 249 251 251 249 245 240 233 224 213 202 190 177 163 150 136 124 111 100 88 78 69 61 54 48 43 38 35 32 30 28 27 26 25 24 24 24 24 24 24 24 24 24 24 25 26 27 28 30 32 35 38 43 48 54 61 69 78 88 100 111 124 136 150 163 177 190 202 213 224 233 240 245 249 251 251 249 245 239 232 224 214 204 192 180 167 154 140 127 
127 140 153 166 178 190 202 212 222 230 238 244 248 251 252 251 248 243 237 229 219 209 197 185 172 159 146 133 121 109 98 87 78 69 62 55 49 44 40 36 34 31 30 28 27 26 26 25 25 25 25 25 25 26 26 27 28 30 31 34 36 40 44 49 55 62 69 78 87 98 109 121 133 146 159 172 185 197 209 219 229 237 243 248 251 252 251 248 244 238 230 222 212 202 190 178 166 153 140 127 
127 139 152 164 176 188 199 210 219 228 236 242 247 250 252 252 250 246 241 234 225 216 205 193 181 168 156 143 130 119 108 97 87 78 70 63 57 51 46 42 39 36 34 32 31 30 29 28 28 28 28 28 28 29 30 31 32 34 36 39 42 46 51 57 63 70 78 87 97 108 119 130 143 156 168 181 193 205 216 225 234 241 246 250 252 252 250 247 242 236 228 219 210 199 188 176 164 152 139 127 
127 139 151 163 174 186 197 207 217 226 233 240 245 249 252 252 251 249 244 238 231 222 212 202 190 178 166 153 141 129 119 108 98 88 80 72 65 59 54 49 46 42 40 37 36 34 33 32 32 32 32 32 32 33 34 36 37 40 42 46 49 54 59 65 72 80 88 98 108 119 129 141 153 166 178 190 202 212 222 231 238 244 249 251 252 252 249 245 240 233 226 217 207 197 186 174 163 151 139 127 
127 138 150 161 172 183 194 204 214 223 231 238 243 248 251 252 252 251 247 243 236 229 220 210 199 188 176 164 152 141 129 119 109 100 91 83 75 69 63 58 54 50 47 44 42 40 39 38 37 37 37 37 38 39 40 42 44 47 50 54 58 63 69 75 83 91 100 109 119 129 141 152 164 176 188 199 210 220 229 236 243 247 251 252 252 251 248 243 238 231 223 214 204 194 183 172 161 150 138 127 
127 138 149 159 170 181 191 201 211 220 228 235 241 246 250 252 253 252 250 246 241 234 227 218 208 197 186 175 164 152 141 130 121 111 102 94 86 79 73 68 63 59 55 52 50 48 46 45 45 44 44 45 45 46 48 50 52 55 59 63 68 73 79 86 94 102 111 121 130 141 152 164 175 186 197 208 218 227 234 241 246 250 252 253 252 250 246 241 235 228 220 211 201 191 181 170 159 149 138 127 
127 137 147 158 168 178 188 198 207 216 224 232 238 244 248 251 253 253 252 249 245 240 233 225 216 207 197 186 175 164 153 143 133 124 115 106 98 91 85 79 74 69 65 62 59 57 55 54 53 53 53 53 54 55 57 59 62 65 69 74 79 85 91 98 106 115 124 133 143 153 164 175 186 197 207 216 225 233 240 245 249 252 253 253 251 248 244 238 232 224 216 207 198 188 178 168 158 147 137 127 
127 136 146 156 166 175 185 194 204 212 221 228 235 241 246 250 252 253 253 251 248 244 238 232 224 216 206 197 186 176 166 156 146 136 127 119 111 104 97 91 86 81 77 73 70 68 66 64 64 63 63 64 64 66 68 70 73 77 81 86 91 97 104 111 119 127 136 146 156 166 176 186 197 206 216 224 232 238 244 248 251 253 253 252 250 246 241 235 228 221 212 204 194 185 175 166 156 146 136 127 
127 136 145 154 163 173 182 191 200 208 217 224 231 238 243 247 251 253 253 253 251 248 243 238 231 224 216 207 197 188 178 168 159 150 141 132 125 118 111 105 99 94 90 86 83 80 78 76 75 75 75 75 76 78 80 83 86 90 94 99 105 111 118 125 132 141 150 159 168 178 188 197 207 216 224 231 238 243 248 251 253 253 253 251 247 243 238 231 224 217 208 200 191 182 173 163 154 145 136 127 
127 135 144 152 161 170 178 187 196 204 212 220 227 234 240 245 249 251 253 253 253 251 247 243 238 231 224 216 208 199 190 181 172 163 154 146 138 131 125 119 113 108 103 99 96 93 91 90 88 88 88 88 90 91 93 96 99 103 108 113 119 125 131 138 146 154 163 172 181 190 199 208 216 224 231 238 243 247 251 253 253 253 251 249 245 240 234 227 220 212 204 196 187 178 170 161 152 144 135 127 
127 134 142 151 159 167 175 183 192 200 208 216 223 230 236 241 246 249 252 253 253 253 250 247 243 238 232 225 218 210 202 193 185 177 168 160 153 146 139 133 127 123 118 114 111 108 106 104 103 102 102 103 104 106 108 111 114 118 123 127 133 139 146 153 160 168 177 185 193 202 210 218 225 232 238 243 247 250 253 254 253 252 249 246 241 236 230 223 216 208 200 192 183 175 167 159 151 142 134 127 
127 134 141 149 156 164 172 180 188 195 203 211 218 225 232 237 242 247 250 252 253 253 253 250 247 243 238 233 227 220 212 205 197 190 182 174 167 160 154 148 142 137 133 129 126 123 121 119 118 117 117 118 119 121 123 126 129 133 137 142 148 154 160 167 174 182 190 197 205 212 220 227 233 238 243 247 250 253 253 253 252 250 247 242 237 232 225 218 211 203 195 188 180 172 164 156 149 141 134 127 
127 133 140 147 154 161 168 176 183 191 198 206 213 220 227 233 239 243 247 250 252 253 253 253 251 248 244 240 234 229 222 216 209 202 195 188 181 175 169 163 157 153 148 144 141 138 136 134 133 132 132 133 134 136 138 141 144 148 153 157 163 169 175 181 188 195 202 209 216 222 229 234 240 244 248 251 253 253 253 252 250 247 243 239 233 227 220 213 206 198 191 183 176 168 161 154 147 140 133 127 
127 133 139 145 152 158 165 172 179 186 194 201 208 215 222 228 234 239 244 247 250 252 253 253 253 251 248 245 241 236 231 225 219 213 207 201 195 189 183 178 173 168 164 160 157 154 152 150 149 148 148 149 150 152 154 157 160 164 168 173 178 183 189 195 201 207 213 219 225 231 236 241 245 248 251 253 253 253 252 250 247 244 239 234 228 222 215 208 201 194 186 179 172 165 158 152 145 139 133 127 
127 132 138 143 149 155 162 168 175 182 189 196 203 210 216 223 229 235 240 244 247 250 252 253 253 253 251 249 246 243 238 234 229 224 218 213 207 202 197 192 187 183 179 175 172 170 168 166 165 164 164 165 166 168 170 172 175 179 183 187 192 197 202 207 213 218 224 229 234 238 243 246 249 251 253 253 253 252 250 247 244 240 235 229 223 216 210 203 196 189 182 175 168 162 155 149 143 138 132 127 
127 132 137 142 147 153 159 165 171 177 184 191 197 204 211 217 224 229 235 240 244 247 250 252 253 253 253 252 250 247 244 241 237 233 228 223 219 214 209 205 201 197 193 190 187 185 183 181 180 180 180 180 181 183 185 187 190 193 197 201 205 209 214 219 223 228 233 237 241 244 247 250 252 253 253 253 252 250 247 244 240 235 229 224 217 211 204 197 191 184 177 171 165 159 153 147 142 137 132 127 
127 131 136 140 145 150 155 161 167 173 179 185 192 198 205 211 218 224 229 235 239 243 247 249 251 253 253 253 252 251 249 246 243 240 236 232 228 225 221 217 213 210 206 204 201 199 197 196 195 194 194 195 196 197 199 201 204 206 210 213 217 221 225 228 232 236 240 243 246 249 251 252 253 253 253 251 249 247 243 239 235 229 224 218 211 205 198 192 185 179 173 167 161 155 150 145 140 136 131 127 
127 131 135 139 143 148 152 157 163 168 174 180 186 193 199 205 212 218 224 229 234 239 242 246 249 251 252 253 253 252 251 250 248 245 243 240 237 233 230 227 224 221 218 216 213 212 210 209 208 208 208 208 209 210 212 213 216 218 221 224 227 230 233 237 240 243 245 248 250 251 252 253 253 252 251 249 246 242 239 234 229 224 218 212 205 199 193 186 180 174 168 163 157 152 148 143 139 135 131 127 
127 130 134 137 141 145 150 154 159 164 170 175 181 187 193 199 205 211 217 223 228 233 237 241 245 247 250 251 252 252 252 252 251 249 247 245 243 240 238 235 233 230 228 226 224 222 221 220 219 219 219 219 220 221 222 224 226 228 230 233 235 238 240 243 245 247 249 251 252 252 252 252 251 250 247 245 241 237 233 228 223 217 211 205 199 193 187 181 175 170 164 159 154 150 145 141 137 134 130 127 
127 130 133 136 140 143 147 151 156 160 165 170 176 181 187 193 199 205 211 216 222 227 232 236 240 243 246 248 250 251 252 252 252 251 250 249 247 245 243 241 240 238 236 234 233 231 230 229 229 229 229 229 229 230 231 233 234 236 238 240 241 243 245 247 249 250 251 252 252 252 251 250 248 246 243 240 236 232 227 222 216 211 205 199 193 187 181 176 170 165 160 156 151 147 143 140 136 133 130 127 
127 129 132 135 138 141 145 148 152 156 161 166 171 176 181 187 193 198 204 210 215 220 225 230 234 238 241 244 246 248 249 250 251 251 250 250 249 248 247 246 244 243 241 240 239 238 237 236 236 236 236 236 236 237 238 239 240 241 243 244 246 247 248 249 250 250 251 251 250 249 248 246 244 241 238 234 230 225 220 215 210 204 198 193 187 181 176 171 166 161 156 152 148 145 141 138 135 132 129 127 
127 129 131 134 136 139 142 146 149 153 157 161 166 171 176 181 186 192 197 203 208 213 218 223 227 231 235 238 241 243 245 247 248 249 249 249 249 249 248 247 246 246 245 244 243 242 242 241 241 241 241 241 241 242 242 243 244 245 246 246 247 248 249 249 249 249 249 248 247 245 243 241 238 235 231 227 223 218 213 208 203 197 192 186 181 176 171 166 161 157 153 149 146 142 139 136 134 131 129 127 
127 129 131 133 135 138 140 143 146 150 153 157 161 166 170 175 180 185 191 196 201 206 211 216 220 224 228 232 235 238 240 242 244 245 246 247 247 247 247 247 246 246 245 245 244 244 243 243 243 243 243 243 243 243 244 244 245 245 246 246 247 247 247 247 247 246 245 244 242 240 238 235 232 228 224 220 216 211 206 201 196 191 185 180 175 170 166 161 157 153 150 146 143 140 138 135 133 131 129 127 
127 128 130 132 134 136 138 141 143 146 150 153 157 161 165 170 174 179 184 189 194 198 203 208 212 217 221 224 228 231 233 236 238 239 241 242 243 243 244 244 244 244 244 243 243 243 243 243 242 242 242 242 243 243 243 243 243 244 244 244 244 244 243 243 242 241 239 238 236 233 231 228 224 221 217 212 208 203 198 194 189 184 179 174 170 165 161 157 153 150 146 143 141 138 136 134 132 130 128 127 
127 128 129 131 133 135 136 139 141 144 146 150 153 156 160 164 168 173 177 182 186 191 195 200 204 208 212 216 220 223 226 228 230 232 234 236 237 238 238 239 239 239 240 240 240 240 240 239 239 239 239 239 239 240 240 240 240 240 239 239 239 238 238 237 236 234 232 230 228 226 223 220 216 212 208 204 200 195 191 186 182 177 173 168 164 160 156 153 150 146 144 141 139 136 135 133 131 129 128 127 
127 128 129 130 132 133 135 137 139 141 143 146 149 152 156 159 163 167 171 175 179 183 188 192 196 200 204 207 211 214 217 219 222 224 226 228 229 230 231 232 232 233 233 233 234 234 234 234 234 234 234 234 234 234 234 234 233 233 233 232 232 231 230 229 228 226 224 222 219 217 214 211 207 204 200 196 192 188 183 179 175 171 167 163 159 156 152 149 146 143 141 139 137 135 133 132 130 129 128 127 
127 128 129 130 131 132 133 135 137 139 141 143 146 148 151 154 157 161 165 168 172 176 180 183 187 191 194 198 201 204 207 210 212 214 216 218 220 221 222 223 224 224 225 225 225 226 226 226 226 226 226 226 226 226 226 225 225 225 224 224 223 222 221 220 218 216 214 212 210 207 204 201 198 194 191 187 183 180 176 172 168 165 161 157 154 151 148 146 143 141 139 137 135 133 132 131 130 129 128 127 
127 127 128 129 130 131 132 133 135 136 138 140 142 145 147 150 152 155 159 162 165 168 172 175 178 182 185 188 191 194 197 199 202 204 206 207 209 210 211 212 213 214 214 215 215 216 216 216 216 216 216 216 216 216 216 215 215 214 214 213 212 211 210 209 207 206 204 202 199 197 194 191 188 185 182 178 175 172 168 165 162 159 155 152 150 147 145 142 140 138 136 135 133 132 131 130 129 128 127 127 
127 127 128 129 129 130 131 132 133 135 136 138 139 141 143 145 148 150 153 155 158 161 164 167 170 173 175 178 181 183 186 188 190 192 194 195 197 198 199 200 201 202 202 203 203 204 204 204 204 204 204 204 204 204 204 203 203 202 202 201 200 199 198 197 195 194 192 190 188 186 183 181 178 175 173 170 167 164 161 158 155 153 150 148 145 143 141 139 138 136 135 133 132 131 130 129 129 128 127 127 
127 127 128 128 129 129 130 131 132 133 134 135 136 138 140 141 143 145 147 149 152 154 156 159 161 163 166 168 170 172 174 176 178 180 181 183 184 185 186 187 188 188 189 189 190 190 190 190 191 191 191 191 190 190 190 190 189 189 188 188 187 186 185 184 183 181 180 178 176 174 172 170 168 166 163 161 159 156 154 152 149 147 145 143 141 140 138 136 135 134 133 132 131 130 129 129 128 128 127 127 
127 127 127 128 128 129 129 130 130 131 132 133 134 135 136 137 139 140 142 143 145 147 149 151 152 154 156 158 159 161 163 164 166 167 168 169 170 171 172 173 173 174 174 175 175 175 175 176 176 176 176 176 176 175 175 175 175 174 174 173 173 172 171 170 169 168 167 166 164 163 161 159 158 156 154 152 151 149 147 145 143 142 140 139 137 136 135 134 133 132 131 130 130 129 129 128 128 127 127 127 
127 127 127 127 128 128 128 129 129 129 130 131 131 132 133 134 135 136 137 138 139 140 141 142 144 145 146 147 149 150 151 152 153 154 154 155 156 157 157 158 158 159 159 159 159 160 160 160 160 160 160 160 160 160 160 159 159 159 159 158 158 157 157 156 155 154 154 153 152 151 150 149 147 146 145 144 142 141 140 139 138 137 136 135 134 133 132 131 131 130 129 129 129 128 128 128 127 127 127 127 
127 127 127 127 127 127 127 128 128 128 128 129 129 129 130 130 131 131 132 132 133 133 134 134 135 136 136 137 138 138 139 139 140 140 141 141 141 142 142 142 142 143 143 143 143 143 143 143 143 143 143 143 143 143 143 143 143 143 143 142 142 142 142 141 141 141 140 140 139 139 138 138 137 136 136 135 134 134 133 133 132 132 131 131 130 130 129 129 129 128 128 128 128 127 127 127 127 127 127 127 
127 127 127 127 127 127 127 127 127 127 127 127 127 127 127 127 127 127 127 127 127 127 127 127 127 127 127 127 127 127 127 127 127 127 127 127 127 127 127 127 127 127 127 127 127 127 127 127 127 127 127 127 127 127 127 127 127 127 127 127 127 127 127 127 127 127 127 127 127 127 127 127 127 127 127 127 127 127 127 127 127 127 127 127 127 127 127 127 127 127 127 127 127 127 127 127 127 127 127 127 
