P2
100 100
255
127 127 127 127 127 127 127 127 127 127 127 127 127 127 127 127 127 127 127 127 127 127 127 127 127 127 127 127 127 127 127 127 127 127 127 127 127 127 127 127 127 127 127 127 127 127 127 127 127 127 127 127 127 127 127 127 127 127 127 127 127 127 127 127 127 127 127 127 127 127 127 127 127 127 127 127 127 127 127 127 127 127 127 127 127 127 127 127 127 127 127 127 127 127 127 127 127 127 127 127 
127 127 127 128 128 129 129 130 130 131 131 132 133 133 134 135 136 136 137 138 139 139 140 140 141 141 142 142 142 143 143 143 143 143 143 143 143 142 142 142 142 142 141 141 141 141 141 141 141 141 141 141 141 141 141 141 141 141 142 142 142 142 142 143 143 143 143 143 143 143 143 142 142 142 141 141 140 140 139 139 138 137 136 136 135 134 133 133 132 131 131 130 130 129 129 128 128 127 127 127 
127 127 128 129 130 131 132 133 134 135 136 138 139 141 142 143 145 146 148 149 151 152 153 154 155 156 157 158 158 158 159 159 159 159 159 159 158 158 158 157 157 156 156 156 155 155 155 154 154 154 154 154 154 155 155 155 156 156 156 157 157 158 158 158 159 159 159 159 159 159 158 158 158 157 156 155 154 153 152 151 149 148 146 145 143 142 141 139 138 136 135 134 133 132 131 130 129 128 127 127 
127 128 129 130 132 133 135 136 138 140 142 143 145 148 150 152 154 156 158 160 162 164 166 168 169 170 171 172 173 174 174 174 174 174 174 173 173 172 172 171 171 170 169 169 168 168 167 167 167 167 167 167 167 167 168 168 169 169 170 171 171 172 172 173 173 174 174 174 174 174 174 173 172 171 170 169 168 166 164 162 160 158 156 154 152 150 148 145 143 142 140 138 136 135 133 132 130 129 128 127 
127 128 130 132 134 135 138 140 142 144 147 149 152 155 157 160 163 166 169 171 174 176 178 180 182 184 185 186 187 188 188 188 188 188 188 187 186 185 185 184 183 182 181 180 179 179 178 178 178 177 177 178 178 178 179 179 180 181 182 183 184 185 185 186 187 188 188 188 188 188 188 187 186 185 184 182 180 178 176 174 171 169 166 163 160 157 155 152 149 147 144 142 140 138 135 134 132 130 128 127 
127 129 131 133 135 138 140 143 146 149 152 155 158 162 165 169 172 175 179 182 185 188 190 193 195 197 198 199 200 201 201 201 201 200 200 199 198 197 196 194 193 192 191 190 189 188 187 187 186 186 186 186 187 187 188 189 190 191 192 193 194 196 197 198 199 200 200 201 201 201 201 200 199 198 197 195 193 190 188 185 182 179 175 172 169 165 162 158 155 152 149 146 143 140 138 135 133 131 129 127 
127 129 132 135 138 140 144 147 150 154 157 161 165 169 173 177 181 185 189 192 196 199 202 204 206 208 210 211 212 212 212 212 211 211 210 209 207 206 204 203 201 200 198 197 196 195 194 193 193 193 193 193 193 194 195 196 197 198 200 201 203 204 206 207 209 210 211 211 212 212 212 212 211 210 208 206 204 202 199 196 192 189 185 181 177 173 169 165 161 157 154 150 147 144 140 138 135 132 129 127 
127 130 133 136 140 143 147 151 155 159 163 167 172 176 181 185 190 194 198 202 206 209 212 215 217 219 220 221 222 222 222 221 220 219 218 216 214 212 210 209 207 205 203 201 200 199 198 197 197 196 196 197 197 198 199 200 201 203 205 207 209 210 212 214 216 218 219 220 221 222 222 222 221 220 219 217 215 212 209 206 202 198 194 190 185 181 176 172 167 163 159 155 151 147 143 140 136 133 130 127 
127 130 134 138 142 146 150 155 159 164 168 173 178 183 188 193 198 203 207 211 215 218 221 224 226 228 229 230 230 230 229 228 227 225 223 221 219 216 214 212 209 207 205 203 202 200 199 198 198 197 197 198 198 199 200 202 203 205 207 209 212 214 216 219 221 223 225 227 228 229 230 230 230 229 228 226 224 221 218 215 211 207 203 198 193 188 183 178 173 168 164 159 155 150 146 142 138 134 130 127 
127 131 135 140 144 149 154 159 164 169 174 180 185 190 196 201 206 211 216 220 224 227 230 232 234 235 236 236 236 235 234 232 231 228 226 223 221 218 215 212 210 207 205 202 201 199 198 197 196 196 196 196 197 198 199 201 202 205 207 210 212 215 218 221 223 226 228 231 232 234 235 236 236 236 235 234 232 230 227 224 220 216 211 206 201 196 190 185 180 174 169 164 159 154 149 144 140 135 131 127 
127 131 136 142 147 152 157 163 168 174 180 186 192 198 203 209 214 219 223 228 231 234 237 239 240 241 241 241 240 239 237 235 232 229 226 223 220 217 213 210 207 204 201 199 197 195 193 192 191 191 191 191 192 193 195 197 199 201 204 207 210 213 217 220 223 226 229 232 235 237 239 240 241 241 241 240 239 237 234 231 228 223 219 214 209 203 198 192 186 180 174 168 163 157 152 147 142 136 131 127 
127 132 138 143 149 155 161 167 173 180 186 192 198 204 210 216 221 226 231 234 238 241 243 244 245 245 245 244 242 240 238 235 231 228 224 220 217 213 209 205 202 198 195 193 190 188 187 185 185 184 184 185 185 187 188 190 193 195 198 202 205 209 213 217 220 224 228 231 235 238 240 242 244 245 245 245 244 243 241 238 234 231 226 221 216 210 204 198 192 186 180 173 167 161 155 149 143 138 132 127 
127 133 139 145 152 158 165 172 178 185 192 198 205 211 217 223 228 233 237 240 243 246 247 248 248 248 246 244 242 239 236 232 228 224 220 215 211 207 202 198 194 191 187 184 182 180 178 177 176 175 175 176 177 178 180 182 184 187 191 194 198 202 207 211 215 220 224 228 232 236 239 242 244 246 248 248 248 247 246 243 240 237 233 228 223 217 211 205 198 192 185 178 172 165 158 152 145 139 133 127 
127 133 141 148 155 162 169 176 183 190 198 204 211 217 223 229 234 238 242 245 248 249 250 250 249 248 246 243 240 236 232 228 223 218 213 208 203 198 193 189 185 181 177 174 171 169 167 166 165 164 164 165 166 167 169 171 174 177 181 185 189 193 198 203 208 213 218 223 228 232 236 240 243 246 248 249 250 250 249 248 245 242 238 234 229 223 217 211 204 198 190 183 176 169 162 155 148 141 133 127 
127 134 142 150 157 165 173 181 188 196 203 210 217 223 229 235 239 243 247 249 251 252 252 251 249 247 244 240 236 231 226 221 216 210 204 199 193 188 183 178 174 169 166 162 159 157 155 154 153 152 152 153 154 155 157 159 162 166 169 174 178 183 188 193 199 204 210 216 221 226 231 236 240 244 247 249 251 252 252 251 249 247 243 239 235 229 223 217 210 203 196 188 181 173 165 157 150 142 134 127 
127 135 143 152 160 169 177 185 193 201 209 216 223 229 235 240 244 247 250 252 253 253 252 250 247 244 240 235 230 225 219 213 207 200 194 188 182 176 171 166 161 157 153 149 146 144 142 140 139 139 139 139 140 142 144 146 149 153 157 161 166 171 176 182 188 194 200 207 213 219 225 230 235 240 244 247 250 252 253 253 252 250 247 244 240 235 229 223 216 209 201 193 185 177 169 160 152 143 135 127 
127 136 145 154 163 172 181 190 198 206 214 221 228 234 239 244 248 250 252 253 253 252 250 247 244 239 234 229 223 216 210 203 196 189 182 176 170 164 158 153 148 143 139 136 133 130 128 127 127 126 126 127 127 128 130 133 136 139 143 148 153 158 164 170 176 182 189 196 203 210 216 223 229 234 239 244 247 250 252 253 253 252 250 248 244 239 234 228 221 214 206 198 190 181 172 163 154 145 136 127 
127 136 146 156 166 175 185 194 203 211 219 226 233 238 243 247 250 252 253 253 252 250 247 243 239 233 227 221 214 206 199 192 184 177 170 163 156 150 144 139 134 129 126 123 120 117 116 114 113 113 113 113 114 116 117 120 123 126 129 134 139 144 150 156 163 170 177 184 192 199 206 214 221 227 233 239 243 247 250 252 253 253 252 250 247 243 238 233 226 219 211 203 194 185 175 166 156 146 136 127 
127 137 148 158 169 179 189 198 207 216 223 231 237 242 247 250 252 253 253 252 250 247 243 238 232 226 219 211 204 196 188 180 172 164 156 149 143 136 130 126 121 117 113 109 106 104 102 101 100 99 99 100 101 102 104 106 109 113 117 121 126 130 136 143 149 156 164 172 180 188 196 204 211 219 226 232 238 243 247 250 252 253 253 252 250 247 242 237 231 223 216 207 198 189 179 169 158 148 137 127 
127 138 149 160 171 182 192 202 211 220 228 234 240 245 249 252 253 253 252 250 247 243 237 231 225 217 209 201 192 184 175 167 158 150 143 136 129 123 118 112 107 103 99 96 93 91 89 88 87 86 86 87 88 89 91 93 96 99 103 107 112 118 123 129 136 143 150 158 167 175 184 192 201 209 217 225 231 237 243 247 250 252 253 253 252 249 245 240 234 228 220 211 202 192 182 171 160 149 138 127 
127 139 151 162 174 185 196 206 215 224 231 238 243 248 251 253 253 252 250 247 243 237 231 224 216 207 199 190 181 171 162 154 145 137 129 123 116 110 104 99 95 90 87 84 81 79 77 76 75 75 75 75 76 77 79 81 84 87 90 95 99 104 110 116 123 129 137 145 154 162 171 181 190 199 207 216 224 231 237 243 247 250 252 253 253 251 248 243 238 231 224 215 206 196 185 174 162 151 139 127 
127 139 152 164 176 188 199 209 218 227 234 241 246 249 252 253 252 250 247 243 237 231 223 215 206 197 188 178 168 159 149 140 132 125 117 110 103 97 92 87 82 79 75 72 70 68 67 65 65 64 64 65 65 67 68 70 72 75 79 82 87 92 97 103 110 117 125 132 140 149 159 168 178 188 197 206 215 223 231 237 243 247 250 252 253 252 249 246 241 234 227 218 209 199 188 176 164 152 139 127 
127 140 153 166 178 190 202 212 221 230 237 243 247 250 252 252 250 247 243 237 231 223 215 206 196 186 176 166 156 146 136 127 120 112 104 97 91 85 80 76 72 68 65 62 60 59 57 56 55 55 55 55 56 57 59 60 62 65 68 72 76 80 85 91 97 104 112 120 127 136 146 156 166 176 186 196 206 215 223 231 237 243 247 250 252 252 250 247 243 237 230 221 212 202 190 178 166 153 140 127 
127 140 154 168 180 193 204 215 224 232 239 244 248 250 251 250 247 243 238 231 224 215 206 196 185 175 164 154 143 133 125 116 107 99 92 86 80 74 70 65 62 59 56 54 52 50 49 48 48 48 48 48 48 49 50 52 54 56 59 62 65 70 74 80 86 92 99 107 116 125 133 143 154 164 175 185 196 206 215 224 231 238 243 247 250 251 250 248 244 239 232 224 215 204 193 180 168 154 140 127 
127 141 155 169 182 195 206 217 226 234 240 245 248 249 249 247 244 239 232 225 216 206 196 185 174 163 152 142 131 122 113 104 96 88 81 75 70 65 60 57 54 51 49 47 45 44 43 42 42 41 41 42 42 43 44 45 47 49 51 54 57 60 65 70 75 81 88 96 104 113 122 131 142 152 163 174 185 196 206 216 225 232 239 244 247 249 249 248 245 240 234 226 217 206 195 182 169 155 141 127 
127 141 156 170 184 197 208 219 228 235 241 245 248 248 247 244 239 233 226 217 207 197 186 175 163 152 141 130 120 110 101 93 85 78 71 66 61 56 53 49 47 44 42 41 40 39 38 37 37 37 37 37 37 38 39 40 41 42 44 47 49 53 56 61 66 71 78 85 93 101 110 120 130 141 152 163 175 186 197 207 217 226 233 239 244 247 248 248 245 241 235 228 219 208 197 184 170 156 141 127 
127 142 157 171 185 198 210 220 229 236 241 245 246 246 244 240 234 227 219 209 199 188 176 164 152 141 129 119 109 99 90 82 75 68 62 57 53 49 46 43 41 39 38 37 36 35 34 34 34 34 34 34 34 34 35 36 37 38 39 41 43 46 49 53 57 62 68 75 82 90 99 109 119 129 141 152 164 176 188 199 209 219 227 234 240 244 246 246 245 241 236 229 220 210 198 185 171 157 142 127 
127 142 158 172 186 199 211 221 230 236 241 244 244 243 240 235 229 221 211 201 190 178 166 154 142 130 119 109 99 89 81 73 66 60 55 50 47 43 41 39 37 36 34 34 33 33 32 32 32 32 32 32 32 32 33 33 34 34 36 37 39 41 43 47 50 55 60 66 73 81 89 99 109 119 130 142 154 166 178 190 201 211 221 229 235 240 243 244 244 241 236 230 221 211 199 186 172 158 142 127 
127 142 158 173 187 200 212 222 230 236 240 242 242 240 236 230 223 214 204 192 181 168 156 143 131 120 109 99 89 80 72 65 59 53 49 45 41 39 37 35 34 33 32 32 32 31 31 31 31 31 31 31 31 31 31 32 32 32 33 34 35 37 39 41 45 49 53 59 65 72 80 89 99 109 120 131 143 156 168 181 192 204 214 223 230 236 240 242 242 240 236 230 222 212 200 187 173 158 142 127 
127 143 158 174 188 201 212 222 230 235 239 240 239 236 231 225 216 206 196 184 171 159 146 133 122 110 99 89 80 71 64 58 52 47 43 40 38 36 34 33 32 32 31 31 31 31 31 31 31 31 31 31 31 31 31 31 31 31 32 32 33 34 36 38 40 43 47 52 58 64 71 80 89 99 110 122 133 146 159 171 184 196 206 216 225 231 236 239 240 239 235 230 222 212 201 188 174 158 143 127 
127 143 159 174 188 201 212 222 229 234 237 238 236 232 226 219 210 199 188 175 162 149 136 125 113 101 90 81 72 64 57 51 46 42 39 37 35 33 32 32 31 31 31 31 32 32 32 32 32 32 32 32 32 32 32 32 31 31 31 31 32 32 33 35 37 39 42 46 51 57 64 72 81 90 101 113 125 136 149 162 175 188 199 210 219 226 232 236 238 237 234 229 222 212 201 188 174 159 143 127 
127 143 159 174 188 201 212 221 228 232 235 235 232 228 221 213 203 192 180 167 154 140 127 116 104 93 82 73 65 58 51 46 42 39 36 34 33 32 31 31 31 32 32 32 33 33 34 34 34 34 34 34 34 34 33 33 32 32 32 31 31 31 32 33 34 36 39 42 46 51 58 65 73 82 93 104 116 127 140 154 167 180 192 203 213 221 228 232 235 235 232 228 221 212 201 188 174 159 143 127 
127 143 159 174 188 201 211 220 227 231 232 231 228 223 216 207 196 184 172 158 145 132 120 107 96 85 75 66 59 52 46 42 38 36 34 32 32 31 31 32 32 33 33 34 35 35 36 36 36 36 36 36 36 36 35 35 34 33 33 32 32 31 31 32 32 34 36 38 42 46 52 59 66 75 85 96 107 120 132 145 158 172 184 196 207 216 223 228 231 232 231 227 220 211 201 188 174 159 143 127 
127 143 159 174 188 200 211 219 225 228 229 228 224 218 210 200 189 177 164 150 137 125 112 99 88 78 68 60 53 47 42 39 36 34 32 31 31 31 32 32 33 34 35 36 37 37 38 39 39 39 39 39 39 38 37 37 36 35 34 33 32 32 31 31 31 32 34 36 39 42 47 53 60 68 78 88 99 112 125 137 150 164 177 189 200 210 218 224 228 229 228 225 219 211 200 188 174 159 143 127 
127 143 159 174 188 200 210 218 223 226 226 224 220 213 204 194 182 170 156 143 129 117 104 92 81 71 62 55 49 43 39 36 34 32 31 31 31 32 33 34 35 36 37 38 39 40 41 41 42 42 42 42 41 41 40 39 38 37 36 35 34 33 32 31 31 31 32 34 36 39 43 49 55 62 71 81 92 104 117 129 143 156 170 182 194 204 213 220 224 226 226 223 218 210 200 188 174 159 143 127 
127 143 159 173 187 199 209 216 221 223 223 220 215 208 199 188 176 163 149 136 123 110 97 86 75 66 57 50 45 40 37 34 32 31 31 31 32 33 34 36 37 38 40 41 42 43 44 44 45 45 45 45 44 44 43 42 41 40 38 37 36 34 33 32 31 31 31 32 34 37 40 45 50 57 66 75 86 97 110 123 136 149 163 176 188 199 208 215 220 223 223 221 216 209 199 187 173 159 143 127 
127 143 158 173 186 198 207 214 219 221 220 217 211 203 193 182 170 156 143 129 116 103 91 80 70 61 53 47 41 38 35 33 32 31 31 32 33 34 36 38 39 41 42 43 45 46 46 47 47 48 48 47 47 46 46 45 43 42 41 39 38 36 34 33 32 31 31 32 33 35 38 41 47 53 61 70 80 91 103 116 129 143 156 170 182 193 203 211 217 220 221 219 214 207 198 186 173 158 143 127 
127 142 158 172 185 197 206 212 216 218 217 213 207 198 188 176 164 150 136 123 110 97 85 74 65 56 49 43 39 36 33 32 31 31 32 33 34 36 38 40 41 43 45 46 47 48 49 50 50 51 51 50 50 49 48 47 46 45 43 41 40 38 36 34 33 32 31 31 32 33 36 39 43 49 56 65 74 85 97 110 123 136 150 164 176 188 198 207 213 217 218 216 212 206 197 185 172 158 142 127 
127 142 158 172 185 196 204 210 214 215 213 209 202 193 183 171 158 144 130 118 104 92 80 70 60 53 46 41 37 34 32 31 31 32 33 34 36 38 40 42 44 45 47 49 50 51 52 53 53 53 53 53 53 52 51 50 49 47 45 44 42 40 38 36 34 33 32 31 31 32 34 37 41 46 53 60 70 80 92 104 118 130 144 158 171 183 193 202 209 213 215 214 210 204 196 185 172 158 142 127 
127 142 157 171 184 194 203 209 212 212 210 205 198 189 178 166 153 139 126 112 99 87 76 65 57 49 43 39 35 33 32 31 32 32 34 36 38 40 42 44 46 48 49 51 52 53 54 55 56 56 56 56 55 54 53 52 51 49 48 46 44 42 40 38 36 34 32 32 31 32 33 35 39 43 49 57 65 76 87 99 112 126 139 153 166 178 189 198 205 210 212 212 209 203 194 184 171 157 142 127 
127 142 157 171 183 193 201 207 209 210 207 202 194 185 174 161 148 134 121 107 95 82 72 62 54 47 41 37 34 32 31 31 32 33 35 37 39 41 44 46 48 50 52 53 55 56 57 57 58 58 58 58 57 57 56 55 53 52 50 48 46 44 41 39 37 35 33 32 31 31 32 34 37 41 47 54 62 72 82 95 107 121 134 148 161 174 185 194 202 207 210 209 207 201 193 183 171 157 142 127 
127 142 156 170 182 192 200 205 207 207 204 198 191 181 169 157 143 129 117 103 90 79 68 59 51 44 39 36 33 32 31 32 33 34 36 38 41 43 45 48 50 52 54 55 57 58 59 59 60 60 60 60 59 59 58 57 55 54 52 50 48 45 43 41 38 36 34 33 32 31 32 33 36 39 44 51 59 68 79 90 103 117 129 143 157 169 181 191 198 204 207 207 205 200 192 182 170 156 142 127 
127 141 156 169 181 191 198 203 205 205 201 195 187 177 166 153 139 126 113 99 87 75 65 56 49 42 38 34 32 31 31 32 33 35 37 40 42 45 47 49 52 54 56 57 59 60 61 61 62 62 62 62 61 61 60 59 57 56 54 52 49 47 45 42 40 37 35 33 32 31 31 32 34 38 42 49 56 65 75 87 99 113 126 139 153 166 177 187 195 201 205 205 203 198 191 181 169 156 141 127 
127 141 156 169 180 190 197 201 203 202 199 193 184 174 162 149 136 123 109 96 84 72 62 54 47 41 37 34 32 31 31 32 34 36 38 41 43 46 49 51 53 55 57 59 60 61 62 63 63 64 64 63 63 62 61 60 59 57 55 53 51 49 46 43 41 38 36 34 32 31 31 32 34 37 41 47 54 62 72 84 96 109 123 136 149 162 174 184 193 199 202 203 201 197 190 180 169 156 141 127 
127 141 155 168 179 189 196 200 202 201 197 190 182 171 159 146 133 120 106 93 81 70 60 52 45 40 36 33 32 31 32 33 35 37 39 42 45 47 50 52 55 57 59 60 62 63 64 64 65 65 65 65 64 64 63 62 60 59 57 55 52 50 47 45 42 39 37 35 33 32 31 32 33 36 40 45 52 60 70 81 93 106 120 133 146 159 171 182 190 197 201 202 200 196 189 179 168 155 141 127 
127 141 155 168 179 188 195 199 200 199 195 188 180 169 157 144 130 117 104 91 79 68 59 50 44 39 35 33 31 31 32 33 35 37 40 43 46 48 51 53 56 58 60 61 63 64 65 65 66 66 66 66 65 65 64 63 61 60 58 56 53 51 48 46 43 40 37 35 33 32 31 31 33 35 39 44 50 59 68 79 91 104 117 130 144 157 169 180 188 195 199 200 199 195 188 179 168 155 141 127 
127 141 155 167 178 187 194 198 199 198 193 187 178 167 155 142 128 116 102 89 77 67 57 49 43 38 34 32 31 31 32 34 36 38 41 44 46 49 52 54 57 59 61 62 64 65 66 66 67 67 67 67 66 66 65 64 62 61 59 57 54 52 49 46 44 41 38 36 34 32 31 31 32 34 38 43 49 57 67 77 89 102 116 128 142 155 167 178 187 193 198 199 198 194 187 178 167 155 141 127 
127 141 154 167 178 187 193 197 198 197 192 185 177 166 154 140 127 114 101 88 76 65 56 48 42 37 34 32 31 31 32 34 36 39 41 44 47 50 53 55 57 59 61 63 64 65 66 67 67 68 68 67 67 66 65 64 63 61 59 57 55 53 50 47 44 41 39 36 34 32 31 31 32 34 37 42 48 56 65 76 88 101 114 127 140 154 166 177 185 192 197 198 197 193 187 178 167 154 141 127 
127 141 154 167 178 186 193 197 198 196 191 185 176 165 153 139 127 113 100 87 75 65 55 48 42 37 34 32 31 31 32 34 36 39 42 45 47 50 53 56 58 60 62 63 65 66 67 67 68 68 68 68 67 67 66 65 63 62 60 58 56 53 50 47 45 42 39 36 34 32 31 31 32 34 37 42 48 55 65 75 87 100 113 127 139 153 165 176 185 191 196 198 197 193 186 178 167 154 141 127 
127 141 154 167 177 186 193 196 197 196 191 184 175 164 152 139 126 113 99 86 75 64 55 48 41 37 34 32 31 31 32 34 36 39 42 45 48 51 53 56 58 60 62 64 65 66 67 68 68 68 68 68 68 67 66 65 64 62 60 58 56 53 51 48 45 42 39 36 34 32 31 31 32 34 37 41 48 55 64 75 86 99 113 126 139 152 164 175 184 191 196 197 196 193 186 177 167 154 141 127 
127 141 154 167 177 186 193 196 197 196 191 184 175 164 152 139 126 113 99 86 75 64 55 48 41 37 34 32 31 31 32 34 36 39 42 45 48 51 53 56 58 60 62 64 65 66 67 68 68 68 68 68 68 67 66 65 64 62 60 58 56 53 51 48 45 42 39 36 34 32 31 31 32 34 37 41 48 55 64 75 86 99 113 126 139 152 164 175 184 191 196 197 196 193 186 177 167 154 141 127 
127 141 154 167 178 186 193 197 198 196 191 185 176 165 153 139 127 113 100 87 75 65 55 48 42 37 34 32 31 31 32 34 36 39 42 45 47 50 53 56 58 60 62 63 65 66 67 67 68 68 68 68 67 67 66 65 63 62 60 58 56 53 50 47 45 42 39 36 34 32 31 31 32 34 37 42 48 55 65 75 87 100 113 127 139 153 165 176 185 191 196 198 197 193 186 178 167 154 141 127 
127 141 154 167 178 187 193 197 198 197 192 185 177 166 154 140 127 114 101 88 76 65 56 48 42 37 34 32 31 31 32 34 36 39 41 44 47 50 53 55 57 59 61 63 64 65 66 67 67 68 68 67 67 66 65 64 63 61 59 57 55 53 50 47 44 41 39 36 34 32 31 31 32 34 37 42 48 56 65 76 88 101 114 127 140 154 166 177 185 192 197 198 197 193 187 178 167 154 141 127 
127 141 155 167 178 187 194 198 199 198 193 187 178 167 155 142 128 116 102 89 77 67 57 49 43 38 34 32 31 31 32 34 36 38 41 44 46 49 52 54 57 59 61 62 64 65 66 66 67 67 67 67 66 66 65 64 62 61 59 57 54 52 49 46 44 41 38 36 34 32 31 31 32 34 38 43 49 57 67 77 89 102 116 128 142 155 167 178 187 193 198 199 198 194 187 178 167 155 141 127 
127 141 155 168 179 188 195 199 200 199 195 188 180 169 157 144 130 117 104 91 79 68 59 50 44 39 35 33 31 31 32 33 35 37 40 43 46 48 51 53 56 58 60 61 63 64 65 65 66 66 66 66 65 65 64 63 61 60 58 56 53 51 48 46 43 40 37 35 33 32 31 31 33 35 39 44 50 59 68 79 91 104 117 130 144 157 169 180 188 195 199 200 199 195 188 179 168 155 141 127 
127 141 155 168 179 189 196 200 202 201 197 190 182 171 159 146 133 120 106 93 81 70 60 52 45 40 36 33 32 31 32 33 35 37 39 42 45 47 50 52 55 57 59 60 62 63 64 64 65 65 65 65 64 64 63 62 60 59 57 55 52 50 47 45 42 39 37 35 33 32 31 32 33 36 40 45 52 60 70 81 93 106 120 133 146 159 171 182 190 197 201 202 200 196 189 179 168 155 141 127 
127 141 156 169 180 190 197 201 203 202 199 193 184 174 162 149 136 123 109 96 84 72 62 54 47 41 37 34 32 31 31 32 34 36 38 41 43 46 49 51 53 55 57 59 60 61 62 63 63 64 64 63 63 62 61 60 59 57 55 53 51 49 46 43 41 38 36 34 32 31 31 32 34 37 41 47 54 62 72 84 96 109 123 136 149 162 174 184 193 199 202 203 201 197 190 180 169 156 141 127 
127 141 156 169 181 191 198 203 205 205 201 195 187 177 166 153 139 126 113 99 87 75 65 56 49 42 38 34 32 31 31 32 33 35 37 40 42 45 47 49 52 54 56 57 59 60 61 61 62 62 62 62 61 61 60 59 57 56 54 52 49 47 45 42 40 37 35 33 32 31 31 32 34 38 42 49 56 65 75 87 99 113 126 139 153 166 177 187 195 201 205 205 203 198 191 181 169 156 141 127 
127 142 156 170 182 192 200 205 207 207 204 198 191 181 169 157 143 129 117 103 90 79 68 59 51 44 39 36 33 32 31 32 33 34 36 38 41 43 45 48 50 52 54 55 57 58 59 59 60 60 60 60 59 59 58 57 55 54 52 50 48 45 43 41 38 36 34 33 32 31 32 33 36 39 44 51 59 68 79 90 103 117 129 143 157 169 181 191 198 204 207 207 205 200 192 182 170 156 142 127 
127 142 157 171 183 193 201 207 209 210 207 202 194 185 174 161 148 134 121 107 95 82 72 62 54 47 41 37 34 32 31 31 32 33 35 37 39 41 44 46 48 50 52 53 55 56 57 57 58 58 58 58 57 57 56 55 53 52 50 48 46 44 41 39 37 35 33 32 31 31 32 34 37 41 47 54 62 72 82 95 107 121 134 148 161 174 185 194 202 207 210 209 207 201 193 183 171 157 142 127 
127 142 157 171 184 194 203 209 212 212 210 205 198 189 178 166 153 139 126 112 99 87 76 65 57 49 43 39 35 33 32 31 32 32 34 36 38 40 42 44 46 48 49 51 52 53 54 55 56 56 56 56 55 54 53 52 51 49 48 46 44 42 40 38 36 34 32 32 31 32 33 35 39 43 49 57 65 76 87 99 112 126 139 153 166 178 189 198 205 210 212 212 209 203 194 184 171 157 142 127 
127 142 158 172 185 196 204 210 214 215 213 209 202 193 183 171 158 144 130 118 104 92 80 70 60 53 46 41 37 34 32 31 31 32 33 34 36 38 40 42 44 45 47 49 50 51 52 53 53 53 53 53 53 52 51 50 49 47 45 44 42 40 38 36 34 33 32 31 31 32 34 37 41 46 53 60 70 80 92 104 118 130 144 158 171 183 193 202 209 213 215 214 210 204 196 185 172 158 142 127 
127 142 158 172 185 197 206 212 216 218 217 213 207 198 188 176 164 150 136 123 110 97 85 74 65 56 49 43 39 36 33 32 31 31 32 33 34 36 38 40 41 43 45 46 47 48 49 50 50 51 51 50 50 49 48 47 46 45 43 41 40 38 36 34 33 32 31 31 32 33 36 39 43 49 56 65 74 85 97 110 123 136 150 164 176 188 198 207 213 217 218 216 212 206 197 185 172 158 142 127 
127 143 158 173 186 198 207 214 219 221 220 217 211 203 193 182 170 156 143 129 116 103 91 80 70 61 53 47 41 38 35 33 32 31 31 32 33 34 36 38 39 41 42 43 45 46 46 47 47 48 48 47 47 46 46 45 43 42 41 39 38 36 34 33 32 31 31 32 33 35 38 41 47 53 61 70 80 91 103 116 129 143 156 170 182 193 203 211 217 220 221 219 214 207 198 186 173 158 143 127 
127 143 159 173 187 199 209 216 221 223 223 220 215 208 199 188 176 163 149 136 123 110 97 86 75 66 57 50 45 40 37 34 32 31 31 31 32 33 34 36 37 38 40 41 42 43 44 44 45 45 45 45 44 44 43 42 41 40 38 37 36 34 33 32 31 31 31 32 34 37 40 45 50 57 66 75 86 97 110 123 136 149 163 176 188 199 208 215 220 223 223 221 216 209 199 187 173 159 143 127 
127 143 159 174 188 200 210 218 223 226 226 224 220 213 204 194 182 170 156 143 129 117 104 92 81 71 62 55 49 43 39 36 34 32 31 31 31 32 33 34 35 36 37 38 39 40 41 41 42 42 42 42 41 41 40 39 38 37 36 35 34 33 32 31 31 31 32 34 36 39 43 49 55 62 71 81 92 104 117 129 143 156 170 182 194 204 213 220 224 226 226 223 218 210 200 188 174 159 143 127 
127 143 159 174 188 200 211 219 225 228 229 228 224 218 210 200 189 177 164 150 137 125 112 99 88 78 68 60 53 47 42 39 36 34 32 31 31 31 32 32 33 34 35 36 37 37 38 39 39 39 39 39 39 38 37 37 36 35 34 33 32 32 31 31 31 32 34 36 39 42 47 53 60 68 78 88 99 112 125 137 150 164 177 189 200 210 218 224 228 229 228 225 219 211 200 188 174 159 143 127 
127 143 159 174 188 201 211 220 227 231 232 231 228 223 216 207 196 184 172 158 145 132 120 107 96 85 75 66 59 52 46 42 38 36 34 32 32 31 31 32 32 33 33 34 35 35 36 36 36 36 36 36 36 36 35 35 34 33 33 32 32 31 31 32 32 34 36 38 42 46 52 59 66 75 85 96 107 120 132 145 158 172 184 196 207 216 223 228 231 232 231 227 220 211 201 188 174 159 143 127 
127 143 159 174 188 201 212 221 228 232 235 235 232 228 221 213 203 192 180 167 154 140 127 116 104 93 82 73 65 58 51 46 42 39 36 34 33 32 31 31 31 32 32 32 33 33 34 34 34 34 34 34 34 34 33 33 32 32 32 31 31 31 32 33 34 36 39 42 46 51 58 65 73 82 93 104 116 127 140 154 167 180 192 203 213 221 228 232 235 235 232 228 221 212 201 188 174 159 143 127 
127 143 159 174 188 201 212 222 229 234 237 238 236 232 226 219 210 199 188 175 162 149 136 125 113 101 90 81 72 64 57 51 46 42 39 37 35 33 32 32 31 31 31 31 32 32 32 32 32 32 32 32 32 32 32 32 31 31 31 31 32 32 33 35 37 39 42 46 51 57 64 72 81 90 101 113 125 136 149 162 175 188 199 210 219 226 232 236 238 237 234 229 222 212 201 188 174 159 143 127 
127 143 158 174 188 201 212 222 230 235 239 240 239 236 231 225 216 206 196 184 171 159 146 133 122 110 99 89 80 71 64 58 52 47 43 40 38 36 34 33 32 32 31 31 31 31 31 31 31 31 31 31 31 31 31 31 31 31 32 32 33 34 36 38 40 43 47 52 58 64 71 80 89 99 110 122 133 146 159 171 184 196 206 216 225 231 236 239 240 239 235 230 222 212 201 188 174 158 143 127 
127 142 158 173 187 200 212 222 230 236 240 242 242 240 236 230 223 214 204 192 181 168 156 143 131 120 109 99 89 80 72 65 59 53 49 45 41 39 37 35 34 33 32 32 32 31 31 31 31 31 31 31 31 31 31 32 32 32 33 34 35 37 39 41 45 49 53 59 65 72 80 89 99 109 120 131 143 156 168 181 192 204 214 223 230 236 240 242 242 240 236 230 222 212 200 187 173 158 142 127 
127 142 158 172 186 199 211 221 230 236 241 244 244 243 240 235 229 221 211 201 190 178 166 154 142 130 119 109 99 89 81 73 66 60 55 50 47 43 41 39 37 36 34 34 33 33 32 32 32 32 32 32 32 32 33 33 34 34 36 37 39 41 43 47 50 55 60 66 73 81 89 99 109 119 130 142 154 166 178 190 201 211 221 229 235 240 243 244 244 241 236 230 221 211 199 186 172 158 142 127 
127 142 157 171 185 198 210 220 229 236 241 245 246 246 244 240 234 227 219 209 199 188 176 164 152 141 129 119 109 99 90 82 75 68 62 57 53 49 46 43 41 39 38 37 36 35 34 34 34 34 34 34 34 34 35 36 37 38 39 41 43 46 49 53 57 62 68 75 82 90 99 109 119 129 141 152 164 176 188 199 209 219 227 234 240 244 246 246 245 241 236 229 220 210 198 185 171 157 142 127 
127 141 156 170 184 197 208 219 228 235 241 245 248 248 247 244 239 233 226 217 207 197 186 175 163 152 141 130 120 110 101 93 85 78 71 66 61 56 53 49 47 44 42 41 40 39 38 37 37 37 37 37 37 38 39 40 41 42 44 47 49 53 56 61 66 71 78 85 93 101 110 120 130 141 152 163 175 186 197 207 217 226 233 239 244 247 248 248 245 241 235 228 219 208 197 184 170 156 141 127 
127 141 155 169 182 195 206 217 226 234 240 245 248 249 249 247 244 239 232 225 216 206 196 185 174 163 152 142 131 122 113 104 96 88 81 75 70 65 60 57 54 51 49 47 45 44 43 42 42 41 41 42 42 43 44 45 47 49 51 54 57 60 65 70 75 81 88 96 104 113 122 131 142 152 163 174 185 196 206 216 225 232 239 244 247 249 249 248 245 240 234 226 217 206 195 182 169 155 141 127 
127 140 154 168 180 193 204 215 224 232 239 244 248 250 251 250 247 243 238 231 224 215 206 196 185 175 164 154 143 133 125 116 107 99 92 86 80 74 70 65 62 59 56 54 52 50 49 48 48 48 48 48 48 49 50 52 54 56 59 62 65 70 74 80 86 92 99 107 116 125 133 143 154 164 175 185 196 206 215 224 231 238 243 247 250 251 250 248 244 239 232 224 215 204 193 180 168 154 140 127 
127 140 153 166 178 190 202 212 221 230 237 243 247 250 252 252 250 247 243 237 231 223 215 206 196 186 176 166 156 146 136 127 120 112 104 97 91 85 80 76 72 68 65 62 60 59 57 56 55 55 55 55 56 57 59 60 62 65 68 72 76 80 85 91 97 104 112 120 127 136 146 156 166 176 186 196 206 215 223 231 237 243 247 250 252 252 250 247 243 237 230 221 212 202 190 178 166 153 140 127 
127 139 152 164 176 188 199 209 218 227 234 241 246 249 252 253 252 250 247 243 237 231 223 215 206 197 188 178 168 159 149 140 132 125 117 110 103 97 92 87 82 79 75 72 70 68 67 65 65 64 64 65 65 67 68 70 72 75 79 82 87 92 97 103 110 117 125 132 140 149 159 168 178 188 197 206 215 223 231 237 243 247 250 252 253 252 249 246 241 234 227 218 209 199 188 176 164 152 139 127 
127 139 151 162 174 185 196 206 215 224 231 238 243 248 251 253 253 252 250 247 243 237 231 224 216 207 199 190 181 171 162 154 145 137 129 123 116 110 104 99 95 90 87 84 81 79 77 76 75 75 75 75 76 77 79 81 84 87 90 95 99 104 110 116 123 129 137 145 154 162 171 181 190 199 207 216 224 231 237 243 247 250 252 253 253 251 248 243 238 231 224 215 206 196 185 174 162 151 139 127 
127 138 149 160 171 182 192 202 211 220 228 234 240 245 249 252 253 253 252 250 247 243 237 231 225 217 209 201 192 184 175 167 158 150 143 136 129 123 118 112 107 103 99 96 93 91 89 88 87 86 86 87 88 89 91 93 96 99 103 107 112 118 123 129 136 143 150 158 167 175 184 192 201 209 217 225 231 237 243 247 250 252 253 253 252 249 245 240 234 228 220 211 202 192 182 171 160 149 138 127 
127 137 148 158 169 179 189 198 207 216 223 231 237 242 247 250 252 253 254 252 250 247 243 238 232 226 219 211 204 196 188 180 172 164 156 149 143 136 130 126 121 117 113 109 106 104 102 101 100 99 99 100 101 102 104 106 109 113 117 121 126 130 136 143 149 156 164 172 180 188 196 204 211 219 226 232 238 243 247 250 252 254 253 252 250 247 242 237 231 223 216 207 198 189 179 169 158 148 137 127 
127 136 146 156 166 175 185 194 203 211 219 226 233 238 243 247 250 252 253 253 252 250 247 243 239 233 227 221 214 206 199 192 184 177 170 163 156 150 144 139 134 129 126 123 120 117 116 114 113 113 113 113 114 116 117 120 123 126 129 134 139 144 150 156 163 170 177 184 192 199 206 214 221 227 233 239 243 247 250 252 253 253 252 250 247 243 238 233 226 219 211 203 194 185 175 166 156 146 136 127 
127 136 145 154 163 172 181 190 198 206 214 221 228 234 239 244 248 250 252 253 253 252 250 247 244 239 234 229 223 216 210 203 196 189 182 176 170 164 158 153 148 143 139 136 133 130 128 127 127 126 126 127 127 128 130 133 136 139 143 148 153 158 164 170 176 182 189 196 203 210 216 223 229 234 239 244 247 250 252 253 253 252 250 248 244 239 234 228 221 214 206 198 190 181 172 163 154 145 136 127 
127 135 143 152 160 169 177 185 193 201 209 216 223 229 235 240 244 247 250 252 253 253 252 250 247 244 240 235 230 225 219 213 207 200 194 188 182 176 171 166 161 157 153 149 146 144 142 140 139 139 139 139 140 142 144 146 149 153 157 161 166 171 176 182 188 194 200 207 213 219 225 230 235 240 244 247 250 252 253 253 252 250 247 244 240 235 229 223 216 209 201 193 185 177 169 160 152 143 135 127 
127 134 142 150 157 165 173 181 188 196 203 210 217 223 229 235 239 243 247 249 251 252 252 251 249 247 244 240 236 231 226 221 216 210 204 199 193 188 183 178 174 169 166 162 159 157 155 154 153 152 152 153 154 155 157 159 162 166 169 174 178 183 188 193 199 204 210 216 221 226 231 236 240 244 247 249 251 252 252 251 249 247 243 239 235 229 223 217 210 203 196 188 181 173 165 157 150 142 134 127 
127 133 141 148 155 162 169 176 183 190 198 204 211 217 223 229 234 238 242 245 248 249 250 250 249 248 246 243 240 236 232 228 223 218 213 208 203 198 193 189 185 181 177 174 171 169 167 166 165 164 164 165 166 167 169 171 174 177 181 185 189 193 198 203 208 213 218 223 228 232 236 240 243 246 248 249 250 250 249 248 245 242 238 234 229 223 217 211 204 198 190 183 176 169 162 155 148 141 133 127 
127 133 139 145 152 158 165 172 178 185 192 198 205 211 217 223 228 233 237 240 243 246 247 248 248 248 246 244 242 239 236 232 228 224 220 215 211 207 202 198 194 191 187 184 182 180 178 177 176 175 175 176 177 178 180 182 184 187 191 194 198 202 207 211 215 220 224 228 232 236 239 242 244 246 248 248 248 247 246 243 240 237 233 228 223 217 211 205 198 192 185 178 172 165 158 152 145 139 133 127 
127 132 138 143 149 155 161 167 173 180 186 192 198 204 210 216 221 226 231 234 238 241 243 244 245 245 245 244 242 240 238 235 231 228 224 220 217 213 209 205 202 198 195 193 190 188 187 185 185 184 184 185 185 187 188 190 193 195 198 202 205 209 213 217 220 224 228 231 235 238 240 242 244 245 245 245 244 243 241 238 234 231 226 221 216 210 204 198 192 186 180 173 167 161 155 149 143 138 132 127 
127 131 136 142 147 152 157 163 168 174 180 186 192 198 203 209 214 219 223 228 231 234 237 239 240 241 241 241 240 239 237 235 232 229 226 223 220 217 213 210 207 204 201 199 197 195 193 192 191 191 191 191 192 193 195 197 199 201 204 207 210 213 217 220 223 226 229 232 235 237 239 240 241 241 241 240 239 237 234 231 228 223 219 214 209 203 198 192 186 180 174 168 163 157 152 147 142 136 131 127 
127 131 135 140 144 149 154 159 164 169 174 180 185 190 196 201 206 211 216 220 224 227 230 232 234 235 236 236 236 235 234 232 231 228 226 223 221 218 215 212 210 207 205 202 201 199 198 197 196 196 196 196 197 198 199 201 202 205 207 210 212 215 218 221 223 226 228 231 232 234 235 236 236 236 235 234 232 230 227 224 220 216 211 206 201 196 190 185 180 174 169 164 159 154 149 144 140 135 131 127 
127 130 134 138 142 146 150 155 159 164 168 173 178 183 188 193 198 203 207 211 215 218 221 224 226 228 229 230 230 230 229 228 227 225 223 221 219 216 214 212 209 207 205 203 202 200 199 198 198 197 197 198 198 199 200 202 203 205 207 209 212 214 216 219 221 223 225 227 228 229 230 230 230 229 228 226 224 221 218 215 211 207 203 198 193 188 183 178 173 168 164 159 155 150 146 142 138 134 130 127 
127 130 133 136 140 143 147 151 155 159 163 167 172 176 181 185 190 194 198 202 206 209 212 215 217 219 220 221 222 222 222 221 220 219 218 216 214 212 210 209 207 205 203 201 200 199 198 197 197 196 196 197 197 198 199 200 201 203 205 207 209 210 212 214 216 218 219 220 221 222 222 222 221 220 219 217 215 212 209 206 202 198 194 190 185 181 176 172 167 163 159 155 151 147 143 140 136 133 130 127 
127 129 132 135 138 140 144 147 150 154 157 161 165 169 173 177 181 185 189 192 196 199 202 204 206 208 210 211 212 212 212 212 211 211 210 209 207 206 204 203 201 200 198 197 196 195 194 193 193 193 193 193 193 194 195 196 197 198 200 201 203 204 206 207 209 210 211 211 212 212 212 212 211 210 208 206 204 202 199 196 192 189 185 181 177 173 169 165 161 157 154 150 147 144 140 138 135 132 129 127 
127 129 131 133 135 138 140 143 146 149 152 155 158 162 165 169 172 175 179 182 185 188 190 193 195 197 198 199 200 201 201 201 201 200 200 199 198 197 196 194 193 192 191 190 189 188 187 187 186 186 186 186 187 187 188 189 190 191 192 193 194 196 197 198 199 200 200 201 201 201 201 200 199 198 197 195 193 190 188 185 182 179 175 172 169 165 162 158 155 152 149 146 143 140 138 135 133 131 129 127 
127 128 130 132 134 135 138 140 142 144 147 149 152 155 157 160 163 166 169 171 174 176 178 180 182 184 185 186 187 188 188 188 188 188 188 187 186 185 185 184 183 182 181 180 179 179 178 178 178 177 177 178 178 178 179 179 180 181 182 183 184 185 185 186 187 188 188 188 188 188 188 187 186 185 184 182 180 178 176 174 171 169 166 163 160 157 155 152 149 147 144 142 140 138 135 134 132 130 128 127 
127 128 129 130 132 133 135 136 138 140 142 143 145 148 150 152 154 156 158 160 162 164 166 168 169 170 171 172 173 174 174 174 174 174 174 173 173 172 172 171 171 170 169 169 168 168 167 167 167 167 167 167 167 167 168 168 169 169 170 171 171 172 172 173 173 174 174 174 174 174 174 173 172 171 170 169 168 166 164 162 160 158 156 154 152 150 148 145 143 142 140 138 136 135 133 132 130 129 128 127 
127 127 128 129 130 131 132 133 134 135 136 138 139 141 142 143 145 146 148 149 151 152 153 154 155 156 157 158 158 158 159 159 159 159 159 159 158 158 158 157 157 156 156 156 155 155 155 154 154 154 154 154 154 155 155 155 156 156 156 157 157 158 158 158 159 159 159 159 159 159 158 158 158 157 156 155 154 153 152 151 149 148 146 145 143 142 141 139 138 136 135 134 133 132 131 130 129 128 127 127 
127 127 127 128 128 129 129 130 130 131 131 132 133 133 134 135 136 136 137 138 139 139 140 140 141 141 142 142 142 143 143 143 143 143 143 143 143 142 142 142 142 142 141 141 141 141 141 141 141 141 141 141 141 141 141 141 141 141 142 142 142 142 142 143 143 143 143 143 143 143 143 142 142 142 141 141 140 140 139 139 138 137 136 136 135 134 133 133 132 131 131 130 130 129 129 128 128 127 127 127 
127 127 127 127 127 127 127 127 127 127 127 127 127 127 127 127 127 127 127 127 127 127 127 127 127 127 127 127 127 127 127 127 127 127 127 127 127 127 127 127 127 127 127 127 127 127 127 127 127 127 127 127 127 127 127 127 127 127 127 127 127 127 127 127 127 127 127 127 127 127 127 127 127 127 127 127 127 127 127 127 127 127 127 127 127 127 127 127 127 127 127 127 127 127 127 127 127 127 127 127 
