P2
100 100
255
127 127 127 127 127 127 127 127 127 127 127 127 127 127 127 127 127 127 127 127 127 127 127 127 127 127 127 127 127 127 127 127 127 127 127 127 127 127 127 127 127 127 127 127 127 127 127 127 127 127 127 127 127 127 127 127 127 127 127 127 127 127 127 127 127 127 127 127 127 127 127 127 127 127 127 127 127 127 127 127 127 127 127 127 127 127 127 127 127 127 127 127 127 127 127 127 127 127 127 127 
127 127 127 127 127 127 127 127 127 127 127 127 127 127 127 128 128 128 128 128 129 129 129 130 130 130 131 131 132 132 132 133 133 134 134 135 135 135 136 136 136 137 137 137 137 137 137 138 138 138 138 138 138 137 137 137 137 137 137 136 136 136 135 135 135 134 134 133 133 132 132 132 131 131 130 130 130 129 129 129 128 128 128 128 128 127 127 127 127 127 127 127 127 127 127 127 127 127 127 127 
127 127 127 127 127 127 127 127 127 127 127 128 128 128 128 129 129 129 130 130 131 132 132 133 134 134 135 136 137 138 138 139 140 141 142 143 143 144 145 145 146 147 147 147 148 148 148 149 149 149 149 149 149 148 148 148 147 147 147 146 145 145 144 143 143 142 141 140 139 138 138 137 136 135 134 134 133 132 132 131 130 130 129 129 129 128 128 128 128 127 127 127 127 127 127 127 127 127 127 127 
127 127 127 127 127 127 127 127 127 128 128 128 129 129 129 130 130 131 132 133 133 134 135 136 137 139 140 141 142 143 145 146 147 148 150 151 152 153 154 155 156 157 157 158 159 159 159 160 160 160 160 160 160 159 159 159 158 157 157 156 155 154 153 152 151 150 148 147 146 145 143 142 141 140 139 137 136 135 134 133 133 132 131 130 130 129 129 129 128 128 128 127 127 127 127 127 127 127 127 127 
127 127 127 127 127 127 127 128 128 128 128 129 129 130 131 131 132 133 134 135 136 137 139 140 141 143 144 146 148 149 151 153 154 156 158 159 161 162 163 165 166 167 168 169 169 170 170 171 171 171 171 171 171 170 170 169 169 168 167 166 165 163 162 161 159 158 156 154 153 151 149 148 146 144 143 141 140 139 137 136 135 134 133 132 131 131 130 129 129 128 128 128 128 127 127 127 127 127 127 127 
127 127 127 127 127 127 128 128 128 129 129 130 130 131 132 133 134 135 136 137 139 140 142 144 146 148 150 152 154 156 158 160 162 164 166 168 170 171 173 174 176 177 178 179 180 181 181 182 182 182 182 182 182 181 181 180 179 178 177 176 174 173 171 170 168 166 164 162 160 158 156 154 152 150 148 146 144 142 140 139 137 136 135 134 133 132 131 130 130 129 129 128 128 128 127 127 127 127 127 127 
127 127 127 127 127 128 128 128 129 129 130 130 131 132 133 134 136 137 138 140 142 144 146 148 150 153 155 157 160 162 165 167 170 172 174 177 179 181 182 184 186 187 188 190 191 191 192 192 193 193 193 193 192 192 191 191 190 188 187 186 184 182 181 179 177 174 172 170 167 165 162 160 157 155 153 150 148 146 144 142 140 138 137 136 134 133 132 131 130 130 129 129 128 128 128 127 127 127 127 127 
127 127 127 127 128 128 128 129 129 130 131 131 132 134 135 136 138 139 141 143 145 148 150 153 155 158 161 163 166 169 172 175 178 180 183 185 188 190 192 194 196 197 199 200 201 202 202 203 203 203 203 203 203 202 202 201 200 199 197 196 194 192 190 188 185 183 180 178 175 172 169 166 163 161 158 155 153 150 148 145 143 141 139 138 136 135 134 132 131 131 130 129 129 128 128 128 127 127 127 127 
127 127 127 127 128 128 129 129 130 131 132 133 134 135 137 138 140 142 144 147 149 152 155 157 160 164 167 170 173 176 180 183 186 189 192 194 197 199 201 203 205 207 208 210 211 212 212 213 213 214 214 213 213 212 212 211 210 208 207 205 203 201 199 197 194 192 189 186 183 180 176 173 170 167 164 160 157 155 152 149 147 144 142 140 138 137 135 134 133 132 131 130 129 129 128 128 127 127 127 127 
127 127 127 128 128 129 129 130 131 132 133 134 135 137 139 141 143 145 148 150 153 156 159 163 166 170 173 177 180 184 187 191 194 197 200 203 206 208 211 213 215 216 218 219 220 221 222 222 223 223 223 223 222 222 221 220 219 218 216 215 213 211 208 206 203 200 197 194 191 187 184 180 177 173 170 166 163 159 156 153 150 148 145 143 141 139 137 135 134 133 132 131 130 129 129 128 128 127 127 127 
127 127 127 128 128 129 130 131 132 133 134 135 137 139 141 143 146 148 151 154 158 161 165 168 172 176 180 184 188 192 195 199 203 206 209 212 215 217 220 222 224 225 227 228 229 230 231 231 231 232 232 231 231 231 230 229 228 227 225 224 222 220 217 215 212 209 206 203 199 195 192 188 184 180 176 172 168 165 161 158 154 151 148 146 143 141 139 137 135 134 133 132 131 130 129 128 128 127 127 127 
127 127 128 128 129 130 130 131 133 134 135 137 139 141 143 146 149 152 155 159 163 166 170 174 179 183 187 191 196 200 204 207 211 214 217 220 223 226 228 230 232 233 235 236 237 237 238 238 239 239 239 239 238 238 237 237 236 235 233 232 230 228 226 223 220 217 214 211 207 204 200 196 191 187 183 179 174 170 166 163 159 155 152 149 146 143 141 139 137 135 134 133 131 130 130 129 128 128 127 127 
127 127 128 129 129 130 131 132 134 135 137 139 141 144 146 149 153 156 160 164 168 172 176 181 185 190 194 199 203 207 211 215 219 222 225 228 231 233 235 237 239 240 241 242 243 244 244 245 245 245 245 245 245 244 244 243 242 241 240 239 237 235 233 231 228 225 222 219 215 211 207 203 199 194 190 185 181 176 172 168 164 160 156 153 149 146 144 141 139 137 135 134 132 131 130 129 129 128 127 127 
127 127 128 129 130 131 132 134 135 137 139 141 144 146 150 153 157 160 164 169 173 178 183 187 192 197 202 206 211 215 219 223 227 230 233 235 238 240 242 243 245 246 247 247 248 249 249 249 249 249 249 249 249 249 249 248 247 247 246 245 243 242 240 238 235 233 230 227 223 219 215 211 206 202 197 192 187 183 178 173 169 164 160 157 153 150 146 144 141 139 137 135 134 132 131 130 129 128 127 127 
127 127 128 129 131 132 133 135 137 139 141 143 146 150 153 157 161 165 170 174 179 184 189 194 199 204 209 214 218 223 227 230 234 237 239 242 244 245 247 248 249 250 251 251 251 252 252 252 252 252 252 252 252 252 252 251 251 251 250 249 248 247 245 244 242 239 237 234 230 227 223 218 214 209 204 199 194 189 184 179 174 170 165 161 157 153 150 146 143 141 139 137 135 133 132 131 129 128 127 127 
127 128 129 130 131 133 134 136 138 141 143 146 149 153 157 161 165 170 175 180 185 191 196 201 206 212 216 221 226 230 233 237 240 242 245 247 248 250 251 251 252 252 253 253 253 253 253 253 253 253 253 253 253 253 253 253 253 253 252 252 251 251 250 248 247 245 242 240 237 233 230 226 221 216 212 206 201 196 191 185 180 175 170 165 161 157 153 149 146 143 141 138 136 134 133 131 130 129 128 127 
127 128 129 130 132 134 136 138 140 143 146 149 153 157 161 165 170 175 181 186 192 197 203 208 213 219 223 228 232 236 239 242 245 247 249 250 252 252 253 253 253 253 253 252 252 252 251 251 251 251 251 251 251 251 252 252 252 253 253 253 253 253 252 252 250 249 247 245 242 239 236 232 228 223 219 213 208 203 197 192 186 181 175 170 165 161 157 153 149 146 143 140 138 136 134 132 130 129 128 127 
127 128 129 131 133 135 137 139 142 145 148 152 156 160 165 170 175 181 186 192 198 204 209 215 220 225 230 234 238 242 245 247 249 251 252 253 253 253 253 253 252 251 251 250 249 249 248 248 247 247 247 247 248 248 249 249 250 251 251 252 253 253 253 253 253 252 251 249 247 245 242 238 234 230 225 220 215 209 204 198 192 186 181 175 170 165 160 156 152 148 145 142 139 137 135 133 131 129 128 127 
127 128 130 132 134 136 138 141 144 148 151 155 160 164 170 175 181 186 192 198 204 210 216 221 227 232 236 240 243 246 249 251 252 253 253 253 253 252 251 250 249 248 247 245 244 243 242 242 241 241 241 241 242 242 243 244 245 247 248 249 250 251 252 253 253 253 253 252 251 249 246 243 240 236 232 227 221 216 210 204 198 192 186 181 175 170 164 160 155 151 148 144 141 138 136 134 132 130 128 127 
127 128 130 133 135 137 140 143 147 150 154 159 164 169 174 180 186 192 198 205 211 217 222 228 233 237 241 245 248 250 252 253 253 253 253 252 251 250 248 246 244 242 240 239 237 236 234 234 233 233 233 233 234 234 236 237 239 240 242 244 246 248 250 251 252 253 253 253 253 252 250 248 245 241 237 233 228 222 217 211 205 198 192 186 180 174 169 164 159 154 150 147 143 140 137 135 133 130 128 127 
127 129 131 133 136 139 142 145 149 153 158 163 168 173 179 185 192 198 204 211 217 223 228 233 238 242 246 249 251 252 253 253 253 252 251 249 247 245 242 240 237 235 232 230 228 226 224 223 223 222 222 223 223 224 226 228 230 232 235 237 240 242 245 247 249 251 252 253 253 253 252 251 249 246 242 238 233 228 223 217 211 204 198 192 185 179 173 168 163 158 153 149 145 142 139 136 133 131 129 127 
127 129 132 134 137 140 144 148 152 156 161 166 172 178 184 191 197 204 210 217 223 228 234 239 243 246 249 251 253 253 253 253 251 250 247 244 241 238 235 232 228 225 222 219 217 214 213 211 210 210 210 210 211 213 214 217 219 222 225 228 232 235 238 241 244 247 250 251 253 253 253 253 251 249 246 243 239 234 228 223 217 210 204 197 191 184 178 172 166 161 156 152 148 144 140 137 134 132 129 127 
127 129 132 135 139 142 146 150 155 159 165 170 176 183 189 196 203 209 216 222 228 234 239 243 247 250 252 253 253 253 252 250 248 245 242 238 234 230 226 222 217 214 210 207 204 201 199 198 197 196 196 197 198 199 201 204 207 210 214 217 222 226 230 234 238 242 245 248 250 252 253 253 253 252 250 247 243 239 234 228 222 216 209 203 196 189 183 176 170 165 159 155 150 146 142 139 135 132 129 127 
127 130 133 136 140 144 148 153 157 163 168 174 181 187 194 201 208 215 221 228 233 239 243 247 250 252 253 253 253 252 249 247 243 239 235 230 225 220 215 210 205 201 197 193 190 187 184 183 181 181 181 181 183 184 187 190 193 197 201 205 210 215 220 225 230 235 239 243 247 249 252 253 253 253 252 250 247 243 239 233 228 221 215 208 201 194 187 181 174 168 163 157 153 148 144 140 136 133 130 127 
127 130 134 137 141 146 150 155 160 166 172 179 185 192 199 206 213 220 227 233 238 243 247 250 252 253 253 253 251 249 245 241 237 232 226 220 215 209 203 197 192 187 182 178 174 171 169 167 165 165 165 165 167 169 171 174 178 182 187 192 197 203 209 215 220 226 232 237 241 245 249 251 253 253 253 252 250 247 243 238 233 227 220 213 206 199 192 185 179 172 166 160 155 150 146 141 137 134 130 127 
127 130 134 139 143 148 153 158 164 170 176 183 190 197 204 212 219 225 232 237 242 246 250 252 253 253 253 251 248 244 240 235 229 223 216 210 203 196 190 183 177 172 167 162 158 155 152 150 149 148 148 149 150 152 155 158 162 167 172 177 183 190 196 203 210 216 223 229 235 240 244 248 251 253 253 253 252 250 246 242 237 232 225 219 212 204 197 190 183 176 170 164 158 153 148 143 139 134 130 127 
127 131 135 140 144 150 155 161 167 173 180 187 194 202 209 216 223 230 236 241 246 249 252 253 253 253 251 248 244 239 233 227 220 213 205 198 190 183 175 169 162 156 151 146 142 138 135 133 132 131 131 132 133 135 138 142 146 151 156 162 169 175 183 190 198 205 213 220 227 233 239 244 248 251 253 253 253 252 249 246 241 236 230 223 216 209 202 194 187 180 173 167 161 155 150 144 140 135 131 127 
127 131 136 141 146 152 157 163 170 177 184 191 199 206 214 221 228 234 240 245 249 251 253 253 253 251 248 244 238 232 225 218 210 202 193 185 177 169 161 154 147 140 135 130 126 123 120 118 116 116 116 116 118 120 123 126 130 135 140 147 154 161 169 177 185 193 202 210 218 225 232 238 244 248 251 253 253 253 251 249 245 240 234 228 221 214 206 199 191 184 177 170 163 157 152 146 141 136 131 127 
127 132 137 142 148 154 160 166 173 180 188 196 203 211 218 226 232 238 243 248 251 253 253 253 251 248 244 238 232 225 217 208 199 190 181 172 163 154 146 138 131 126 120 115 110 107 104 102 100 99 99 100 102 104 107 110 115 120 126 131 138 146 154 163 172 181 190 199 208 217 225 232 238 244 248 251 253 253 253 251 248 243 238 232 226 218 211 203 196 188 180 173 166 160 154 148 142 137 132 127 
127 132 138 143 149 156 162 169 176 184 192 200 207 215 223 230 236 242 246 250 252 253 253 252 249 244 239 232 225 216 207 198 188 178 168 158 149 140 131 124 117 110 105 99 95 91 89 86 85 84 84 85 86 89 91 95 99 105 110 117 124 131 140 149 158 168 178 188 198 207 216 225 232 239 244 249 252 253 253 252 250 246 242 236 230 223 215 207 200 192 184 176 169 162 156 149 143 138 132 127 
127 132 138 145 151 158 165 172 180 187 195 204 211 219 227 233 239 245 249 252 253 253 252 249 245 240 233 225 217 207 197 187 176 165 155 145 135 126 118 110 102 96 90 85 81 77 74 72 71 70 70 71 72 74 77 81 85 90 96 102 110 118 126 135 145 155 165 176 187 197 207 217 225 233 240 245 249 252 253 253 252 249 245 239 233 227 219 211 204 195 187 180 172 165 158 151 145 138 132 127 
127 133 139 146 153 160 167 175 183 191 199 207 215 223 230 237 242 247 251 253 253 253 250 247 241 235 227 218 208 198 187 175 164 153 142 131 122 113 104 96 89 82 76 72 67 64 61 59 58 57 57 58 59 61 64 67 72 76 82 89 96 104 113 122 131 142 153 164 175 187 198 208 218 227 235 241 247 250 253 253 253 251 247 242 237 230 223 215 207 199 191 183 175 167 160 153 146 139 133 127 
127 133 140 147 154 162 170 178 186 194 203 211 219 227 234 240 245 249 252 253 253 251 248 243 237 229 220 210 199 188 176 164 152 140 129 119 109 99 91 83 76 69 64 59 55 52 50 48 47 46 46 47 48 50 52 55 59 64 69 76 83 91 99 109 119 129 140 152 164 176 188 199 210 220 229 237 243 248 251 253 253 252 249 245 240 234 227 219 211 203 194 186 178 170 162 154 147 140 133 127 
127 134 141 148 156 164 172 180 189 197 206 214 222 230 237 242 247 251 253 253 252 250 245 239 232 223 213 202 190 178 165 153 140 128 118 107 97 87 78 71 64 58 53 48 45 42 40 38 37 36 36 37 38 40 42 45 48 53 58 64 71 78 87 97 107 118 128 140 153 165 178 190 202 213 223 232 239 245 250 252 253 253 251 247 242 237 230 222 214 206 197 189 180 172 164 156 148 141 134 127 
127 134 142 150 158 166 174 183 192 200 209 217 225 233 239 245 249 252 253 253 251 247 242 235 226 216 205 193 181 168 155 142 129 118 106 95 85 76 67 60 53 48 43 39 36 33 31 30 29 28 28 29 30 31 33 36 39 43 48 53 60 67 76 85 95 106 118 129 142 155 168 181 193 205 216 226 235 242 247 251 253 253 252 249 245 239 233 225 217 209 200 192 183 174 166 158 150 142 134 127 
127 135 143 151 159 168 177 185 194 203 212 220 228 235 242 247 250 253 253 252 249 244 238 230 220 210 198 185 172 158 145 131 119 107 95 84 74 65 57 50 44 39 35 31 28 26 24 23 22 22 22 22 23 24 26 28 31 35 39 44 50 57 65 74 84 95 107 119 131 145 158 172 185 198 210 220 230 238 244 249 252 253 253 250 247 242 235 228 220 212 203 194 185 177 168 159 151 143 135 127 
127 135 143 152 161 170 179 188 197 206 215 223 231 238 244 248 252 253 253 251 247 241 234 225 215 203 190 177 163 149 135 122 109 97 85 74 65 56 48 42 36 32 28 24 22 20 18 17 17 16 16 17 17 18 20 22 24 28 32 36 42 48 56 65 74 85 97 109 122 135 149 163 177 190 203 215 225 234 241 247 251 253 253 252 248 244 238 231 223 215 206 197 188 179 170 161 152 143 135 127 
127 135 144 153 162 171 181 190 199 208 217 226 233 240 245 250 252 253 252 250 245 238 230 220 209 196 183 169 154 140 126 113 99 87 76 65 56 48 41 35 30 25 22 19 17 15 14 13 13 12 12 13 13 14 15 17 19 22 25 30 35 41 48 56 65 76 87 99 113 126 140 154 169 183 196 209 220 230 238 245 250 252 253 252 250 245 240 233 226 217 208 199 190 181 171 162 153 144 135 127 
127 136 145 154 163 173 182 192 201 211 220 228 235 242 247 251 253 253 251 248 242 235 226 215 203 190 175 161 146 131 118 104 91 78 67 57 48 41 34 29 24 20 17 15 13 12 11 10 10 10 10 10 10 11 12 13 15 17 20 24 29 34 41 48 57 67 78 91 104 118 131 146 161 175 190 203 215 226 235 242 248 251 253 253 251 247 242 235 228 220 211 201 192 182 173 163 154 145 136 127 
127 136 145 155 165 174 184 194 203 213 222 230 237 243 248 251 253 253 250 246 240 232 222 210 197 183 169 154 138 124 110 96 83 71 60 50 42 35 29 24 19 16 14 12 11 10 9 9 8 8 8 8 9 9 10 11 12 14 16 19 24 29 35 42 50 60 71 83 96 110 124 138 154 169 183 197 210 222 232 240 246 250 253 253 251 248 243 237 230 222 213 203 194 184 174 165 155 145 136 127 
127 136 146 156 166 176 186 196 205 215 224 232 239 245 249 252 253 252 249 244 237 228 217 205 192 177 162 147 131 117 102 89 76 64 53 44 36 30 24 19 16 13 11 10 9 8 8 8 7 7 7 7 8 8 8 9 10 11 13 16 19 24 30 36 44 53 64 76 89 102 117 131 147 162 177 192 205 217 228 237 244 249 252 253 252 249 245 239 232 224 215 205 196 186 176 166 156 146 136 127 
127 137 147 157 167 177 187 197 207 216 225 233 240 246 250 252 253 251 248 242 235 225 214 201 187 172 156 140 126 110 96 82 69 58 48 39 32 25 20 16 13 11 9 8 8 7 7 7 7 7 7 7 7 7 7 8 8 9 11 13 16 20 25 32 39 48 58 69 82 96 110 126 140 156 172 187 201 214 225 235 242 248 251 253 252 250 246 240 233 225 216 207 197 187 177 167 157 147 137 127 
127 137 147 157 168 178 188 199 208 218 227 235 241 247 251 253 253 251 247 240 232 222 210 197 182 167 151 135 120 105 90 76 64 53 43 35 28 22 17 14 11 9 8 8 7 7 7 7 8 8 8 8 7 7 7 7 8 8 9 11 14 17 22 28 35 43 53 64 76 90 105 120 135 151 167 182 197 210 222 232 240 247 251 253 253 251 247 241 235 227 218 208 199 188 178 168 157 147 137 127 
127 137 147 158 169 179 190 200 210 219 228 236 242 247 251 253 252 250 245 239 230 219 207 193 178 162 146 130 115 99 85 72 59 48 39 31 24 19 15 12 10 8 8 7 7 7 8 8 8 8 8 8 8 8 7 7 7 8 8 10 12 15 19 24 31 39 48 59 72 85 99 115 130 146 162 178 193 207 219 230 239 245 250 252 253 251 247 242 236 228 219 210 200 190 179 169 158 147 137 127 
127 137 148 159 169 180 191 201 211 220 229 237 243 248 251 253 252 249 244 237 228 217 204 190 174 158 142 126 110 95 81 67 55 45 36 28 22 17 13 11 9 8 7 7 8 8 8 9 9 9 9 9 9 8 8 8 7 7 8 9 11 13 17 22 28 36 45 55 67 81 95 110 126 142 158 174 190 204 217 228 237 244 249 252 253 251 248 243 237 229 220 211 201 191 180 169 159 148 137 127 
127 137 148 159 170 181 191 202 212 221 230 237 244 249 252 253 252 249 243 236 226 214 201 187 171 155 138 123 107 91 77 64 52 42 33 26 20 15 12 10 8 7 7 7 8 9 9 10 10 10 10 10 10 9 9 8 7 7 7 8 10 12 15 20 26 33 42 52 64 77 91 107 123 138 155 171 187 201 214 226 236 243 249 252 253 252 249 244 237 230 221 212 202 191 181 170 159 148 137 127 
127 137 148 159 170 181 192 202 212 222 231 238 244 249 252 253 251 248 242 234 224 213 199 184 169 152 135 120 104 89 74 61 50 40 31 24 18 14 11 9 8 7 7 8 8 9 10 10 11 11 11 11 10 10 9 8 8 7 7 8 9 11 14 18 24 31 40 50 61 74 89 104 120 135 152 169 184 199 213 224 234 242 248 251 253 252 249 244 238 231 222 212 202 192 181 170 159 148 137 127 
127 138 149 160 171 182 192 203 213 222 231 238 245 249 252 253 251 248 242 234 223 211 198 183 167 150 133 118 102 86 72 59 48 38 30 23 17 13 10 9 8 7 7 8 9 10 10 11 12 12 12 12 11 10 10 9 8 7 7 8 9 10 13 17 23 30 38 48 59 72 86 102 118 133 150 167 183 198 211 223 234 242 248 251 253 252 249 245 238 231 222 213 203 192 182 171 160 149 138 127 
127 138 149 160 171 182 193 203 213 223 231 239 245 249 252 253 251 247 241 233 223 210 197 181 165 149 132 116 100 85 71 58 47 37 29 22 17 13 10 8 7 7 8 8 9 10 11 12 12 12 12 12 12 11 10 9 8 8 7 7 8 10 13 17 22 29 37 47 58 71 85 100 116 132 149 165 181 197 210 223 233 241 247 251 253 252 249 245 239 231 223 213 203 193 182 171 160 149 138 127 
127 138 149 160 171 182 193 203 214 223 232 239 245 249 252 253 251 247 241 233 222 210 196 181 165 148 131 116 99 84 70 57 46 36 28 22 16 12 10 8 7 7 8 8 9 10 11 12 12 13 13 12 12 11 10 9 8 8 7 7 8 10 12 16 22 28 36 46 57 70 84 99 116 131 148 165 181 196 210 222 233 241 247 251 253 252 249 245 239 232 223 214 203 193 182 171 160 149 138 127 
127 138 149 160 171 182 193 203 214 223 232 239 245 249 252 253 251 247 241 233 222 210 196 181 165 148 131 116 99 84 70 57 46 36 28 22 16 12 10 8 7 7 8 8 9 10 11 12 12 13 13 12 12 11 10 9 8 8 7 7 8 10 12 16 22 28 36 46 57 70 84 99 116 131 148 165 181 196 210 222 233 241 247 251 253 252 249 245 239 232 223 214 203 193 182 171 160 149 138 127 
127 138 149 160 171 182 193 203 213 223 231 239 245 249 252 253 251 247 241 233 223 210 197 181 165 149 132 116 100 85 71 58 47 37 29 22 17 13 10 8 7 7 8 8 9 10 11 12 12 12 12 12 12 11 10 9 8 8 7 7 8 10 13 17 22 29 37 47 58 71 85 100 116 132 149 165 181 197 210 223 233 241 247 251 253 252 249 245 239 231 223 213 203 193 182 171 160 149 138 127 
127 138 149 160 171 182 192 203 213 222 231 238 245 249 252 253 251 248 242 234 223 211 198 183 167 150 133 118 102 86 72 59 48 38 30 23 17 13 10 9 8 7 7 8 9 10 10 11 12 12 12 12 11 10 10 9 8 7 7 8 9 10 13 17 23 30 38 48 59 72 86 102 118 133 150 167 183 198 211 223 234 242 248 251 253 252 249 245 238 231 222 213 203 192 182 171 160 149 138 127 
127 137 148 159 170 181 192 202 212 222 231 238 244 249 252 253 251 248 242 234 224 213 199 184 169 152 135 120 104 89 74 61 50 40 31 24 18 14 11 9 8 7 7 8 8 9 10 10 11 11 11 11 10 10 9 8 8 7 7 8 9 11 14 18 24 31 40 50 61 74 89 104 120 135 152 169 184 199 213 224 234 242 248 251 253 252 249 244 238 231 222 212 202 192 181 170 159 148 137 127 
127 137 148 159 170 181 191 202 212 221 230 237 244 249 252 253 252 249 243 236 226 214 201 187 171 155 138 123 107 91 77 64 52 42 33 26 20 15 12 10 8 7 7 7 8 9 9 10 10 10 10 10 10 9 9 8 7 7 7 8 10 12 15 20 26 33 42 52 64 77 91 107 123 138 155 171 187 201 214 226 236 243 249 252 253 252 249 244 237 230 221 212 202 191 181 170 159 148 137 127 
127 137 148 159 169 180 191 201 211 220 229 237 243 248 251 253 252 249 244 237 228 217 204 190 174 158 142 126 110 95 81 67 55 45 36 28 22 17 13 11 9 8 7 7 8 8 8 9 9 9 9 9 9 8 8 8 7 7 8 9 11 13 17 22 28 36 45 55 67 81 95 110 126 142 158 174 190 204 217 228 237 244 249 252 253 251 248 243 237 229 220 211 201 191 180 169 159 148 137 127 
127 137 147 158 169 179 190 200 210 219 228 236 242 247 251 253 252 250 245 239 230 219 207 193 178 162 146 130 115 99 85 72 59 48 39 31 24 19 15 12 10 8 8 7 7 7 8 8 8 8 8 8 8 8 7 7 7 8 8 10 12 15 19 24 31 39 48 59 72 85 99 115 130 146 162 178 193 207 219 230 239 245 250 252 253 251 247 242 236 228 219 210 200 190 179 169 158 147 137 127 
127 137 147 157 168 178 188 199 208 218 227 235 241 247 251 253 253 251 247 240 232 222 210 197 182 167 151 135 120 105 90 76 64 53 43 35 28 22 17 14 11 9 8 8 7 7 7 7 8 8 8 8 7 7 7 7 8 8 9 11 14 17 22 28 35 43 53 64 76 90 105 120 135 151 167 182 197 210 222 232 240 247 251 253 253 251 247 241 235 227 218 208 199 188 178 168 157 147 137 127 
127 137 147 157 167 177 187 197 207 216 225 233 240 246 250 252 253 251 248 242 235 225 214 201 187 172 156 140 126 110 96 82 69 58 48 39 32 25 20 16 13 11 9 8 8 7 7 7 7 7 7 7 7 7 7 8 8 9 11 13 16 20 25 32 39 48 58 69 82 96 110 126 140 156 172 187 201 214 225 235 242 248 251 253 252 250 246 240 233 225 216 207 197 187 177 167 157 147 137 127 
127 136 146 156 166 176 186 196 205 215 224 232 239 245 249 252 253 252 249 244 237 228 217 205 192 177 162 147 131 117 102 89 76 64 53 44 36 30 24 19 16 13 11 10 9 8 8 8 7 7 7 7 8 8 8 9 10 11 13 16 19 24 30 36 44 53 64 76 89 102 117 131 147 162 177 192 205 217 228 237 244 249 252 253 252 249 245 239 232 224 215 205 196 186 176 166 156 146 136 127 
127 136 145 155 165 174 184 194 203 213 222 230 237 243 248 251 253 253 250 246 240 232 222 210 197 183 169 154 138 124 110 96 83 71 60 50 42 35 29 24 19 16 14 12 11 10 9 9 8 8 8 8 9 9 10 11 12 14 16 19 24 29 35 42 50 60 71 83 96 110 124 138 154 169 183 197 210 222 232 240 246 250 253 253 251 248 243 237 230 222 213 203 194 184 174 165 155 145 136 127 
127 136 145 154 163 173 182 192 201 211 220 228 235 242 247 251 253 253 251 248 242 235 226 215 203 190 175 161 146 131 118 104 91 78 67 57 48 41 34 29 24 20 17 15 13 12 11 10 10 10 10 10 10 11 12 13 15 17 20 24 29 34 41 48 57 67 78 91 104 118 131 146 161 175 190 203 215 226 235 242 248 251 253 253 251 247 242 235 228 220 211 201 192 182 173 163 154 145 136 127 
127 135 144 153 162 171 181 190 199 208 217 226 233 240 245 250 252 253 252 250 245 238 230 220 209 196 183 169 154 140 126 113 99 87 76 65 56 48 41 35 30 25 22 19 17 15 14 13 13 12 12 13 13 14 15 17 19 22 25 30 35 41 48 56 65 76 87 99 113 126 140 154 169 183 196 209 220 230 238 245 250 252 253 252 250 245 240 233 226 217 208 199 190 181 171 162 153 144 135 127 
127 135 143 152 161 170 179 188 197 206 215 223 231 238 244 248 252 253 253 251 247 241 234 225 215 203 190 177 163 149 135 122 109 97 85 74 65 56 48 42 36 32 28 24 22 20 18 17 17 16 16 17 17 18 20 22 24 28 32 36 42 48 56 65 74 85 97 109 122 135 149 163 177 190 203 215 225 234 241 247 251 253 253 252 248 244 238 231 223 215 206 197 188 179 170 161 152 143 135 127 
127 135 143 151 159 168 177 185 194 203 212 220 228 235 242 247 250 253 253 252 249 244 238 230 220 210 198 185 172 158 145 131 119 107 95 84 74 65 57 50 44 39 35 31 28 26 24 23 22 22 22 22 23 24 26 28 31 35 39 44 50 57 65 74 84 95 107 119 131 145 158 172 185 198 210 220 230 238 244 249 252 253 253 250 247 242 235 228 220 212 203 194 185 177 168 159 151 143 135 127 
127 134 142 150 158 166 174 183 192 200 209 217 225 233 239 245 249 252 253 253 251 247 242 235 226 216 205 193 181 168 155 142 129 118 106 95 85 76 67 60 53 48 43 39 36 33 31 30 29 28 28 29 30 31 33 36 39 43 48 53 60 67 76 85 95 106 118 129 142 155 168 181 193 205 216 226 235 242 247 251 253 253 252 249 245 239 233 225 217 209 200 192 183 174 166 158 150 142 134 127 
127 134 141 148 156 164 172 180 189 197 206 214 222 230 237 242 247 251 253 253 252 250 245 239 232 223 213 202 190 178 165 153 140 128 118 107 97 87 78 71 64 58 53 48 45 42 40 38 37 36 36 37 38 40 42 45 48 53 58 64 71 78 87 97 107 118 128 140 153 165 178 190 202 213 223 232 239 245 250 252 253 253 251 247 242 237 230 222 214 206 197 189 180 172 164 156 148 141 134 127 
127 133 140 147 154 162 170 178 186 194 203 211 219 227 234 240 245 249 252 253 253 251 248 243 237 229 220 210 199 188 176 164 152 140 129 119 109 99 91 83 76 69 64 59 55 52 50 48 47 46 46 47 48 50 52 55 59 64 69 76 83 91 99 109 119 129 140 152 164 176 188 199 210 220 229 237 243 248 251 253 253 252 249 245 240 234 227 219 211 203 194 186 178 170 162 154 147 140 133 127 
127 133 139 146 153 160 167 175 183 191 199 207 215 223 230 237 242 247 251 253 253 253 250 247 241 235 227 218 208 198 187 175 164 153 142 131 122 113 104 96 89 82 76 72 67 64 61 59 58 57 57 58 59 61 64 67 72 76 82 89 96 104 113 122 131 142 153 164 175 187 198 208 218 227 235 241 247 250 253 253 253 251 247 242 237 230 223 215 207 199 191 183 175 167 160 153 146 139 133 127 
127 132 138 145 151 158 165 172 180 187 195 204 211 219 227 233 239 245 249 252 253 253 252 249 245 240 233 225 217 207 197 187 176 165 155 145 135 126 118 110 102 96 90 85 81 77 74 72 71 70 70 71 72 74 77 81 85 90 96 102 110 118 126 135 145 155 165 176 187 197 207 217 225 233 240 245 249 252 253 253 252 249 245 239 233 227 219 211 204 195 187 180 172 165 158 151 145 138 132 127 
127 132 138 143 149 156 162 169 176 184 192 200 207 215 223 230 236 242 246 250 252 253 253 252 249 244 239 232 225 216 207 198 188 178 168 158 149 140 131 124 117 110 105 99 95 91 89 86 85 84 84 85 86 89 91 95 99 105 110 117 124 131 140 149 158 168 178 188 198 207 216 225 232 239 244 249 252 253 253 252 250 246 242 236 230 223 215 207 200 192 184 176 169 162 156 149 143 138 132 127 
127 132 137 142 148 154 160 166 173 180 188 196 203 211 218 226 232 238 243 248 251 253 253 253 251 248 244 238 232 225 217 208 199 190 181 172 163 154 146 138 131 126 120 115 110 107 104 102 100 99 99 100 102 104 107 110 115 120 126 131 138 146 154 163 172 181 190 199 208 217 225 232 238 244 248 251 253 253 253 251 248 243 238 232 226 218 211 203 196 188 180 173 166 160 154 148 142 137 132 127 
127 131 136 141 146 152 157 163 170 177 184 191 199 206 214 221 228 234 240 245 249 251 253 254 253 251 248 244 238 232 225 218 210 202 193 185 177 169 161 154 147 140 135 130 126 123 120 118 116 116 116 116 118 120 123 126 130 135 140 147 154 161 169 177 185 193 202 210 218 225 232 238 244 248 251 253 253 253 251 249 245 240 234 228 221 214 206 199 191 184 177 170 163 157 152 146 141 136 131 127 
127 131 135 140 144 150 155 161 167 173 180 187 194 202 209 216 223 230 236 241 246 249 252 253 253 253 251 248 244 239 233 227 220 213 205 198 190 183 175 169 162 156 151 146 142 138 135 133 132 131 131 132 133 135 138 142 146 151 156 162 169 175 183 190 198 205 213 220 227 233 239 244 248 251 253 253 253 252 249 246 241 236 230 223 216 209 202 194 187 180 173 167 161 155 150 144 140 135 131 127 
127 130 134 139 143 148 153 158 164 170 176 183 190 197 204 212 219 225 232 237 242 246 250 252 253 253 253 251 248 244 240 235 229 223 216 210 203 196 190 183 177 172 167 162 158 155 152 150 149 148 148 149 150 152 155 158 162 167 172 177 183 190 196 203 210 216 223 229 235 240 244 248 251 253 253 253 252 250 246 242 237 232 225 219 212 204 197 190 183 176 170 164 158 153 148 143 139 134 130 127 
127 130 134 137 141 146 150 155 160 166 172 179 185 192 199 206 213 220 227 233 238 243 247 250 252 253 253 253 251 249 245 241 237 232 226 220 215 209 203 197 192 187 182 178 174 171 169 167 165 165 165 165 167 169 171 174 178 182 187 192 197 203 209 215 220 226 232 237 241 245 249 251 253 253 253 252 250 247 243 238 233 227 220 213 206 199 192 185 179 172 166 160 155 150 146 141 137 134 130 127 
127 130 133 136 140 144 148 153 157 163 168 174 181 187 194 201 208 215 221 228 233 239 243 247 250 252 253 253 253 252 249 247 243 239 235 230 225 220 215 210 205 201 197 193 190 187 184 183 181 181 181 181 183 184 187 190 193 197 201 205 210 215 220 225 230 235 239 243 247 249 252 253 253 253 252 250 247 243 239 233 228 221 215 208 201 194 187 181 174 168 163 157 153 148 144 140 136 133 130 127 
127 129 132 135 139 142 146 150 155 159 165 170 176 183 189 196 203 209 216 222 228 234 239 243 247 250 252 253 253 253 252 250 248 245 242 238 234 230 226 222 217 214 210 207 204 201 199 198 197 196 196 197 198 199 201 204 207 210 214 217 222 226 230 234 238 242 245 248 250 252 253 253 253 252 250 247 243 239 234 228 222 216 209 203 196 189 183 176 170 165 159 155 150 146 142 139 135 132 129 127 
127 129 132 134 137 140 144 148 152 156 161 166 172 178 184 191 197 204 210 217 223 228 234 239 243 246 249 251 253 253 253 253 251 250 247 244 241 238 235 232 228 225 222 219 217 214 213 211 210 210 210 210 211 213 214 217 219 222 225 228 232 235 238 241 244 247 250 251 253 253 253 253 251 249 246 243 239 234 228 223 217 210 204 197 191 184 178 172 166 161 156 152 148 144 140 137 134 132 129 127 
127 129 131 133 136 139 142 145 149 153 158 163 168 173 179 185 192 198 204 211 217 223 228 233 238 242 246 249 251 252 253 253 253 252 251 249 247 245 242 240 237 235 232 230 228 226 224 223 223 222 222 223 223 224 226 228 230 232 235 237 240 242 245 247 249 251 252 253 253 253 252 251 249 246 242 238 233 228 223 217 211 204 198 192 185 179 173 168 163 158 153 149 145 142 139 136 133 131 129 127 
127 128 130 133 135 137 140 143 147 150 154 159 164 169 174 180 186 192 198 205 211 217 222 228 233 237 241 245 248 250 252 253 253 253 253 252 251 250 248 246 244 242 240 239 237 236 234 234 233 233 233 233 234 234 236 237 239 240 242 244 246 248 250 251 252 253 253 253 253 252 250 248 245 241 237 233 228 222 217 211 205 198 192 186 180 174 169 164 159 154 150 147 143 140 137 135 133 130 128 127 
127 128 130 132 134 136 138 141 144 148 151 155 160 164 170 175 181 186 192 198 204 210 216 221 227 232 236 240 243 246 249 251 252 253 253 253 253 252 251 250 249 248 247 245 244 243 242 242 241 241 241 241 242 242 243 244 245 247 248 249 250 251 252 253 253 253 253 252 251 249 246 243 240 236 232 227 221 216 210 204 198 192 186 181 175 170 164 160 155 151 148 144 141 138 136 134 132 130 128 127 
127 128 129 131 133 135 137 139 142 145 148 152 156 160 165 170 175 181 186 192 198 204 209 215 220 225 230 234 238 242 245 247 249 251 252 253 253 253 253 253 252 251 251 250 249 249 248 248 247 247 247 247 248 248 249 249 250 251 251 252 253 253 253 253 253 252 251 249 247 245 242 238 234 230 225 220 215 209 204 198 192 186 181 175 170 165 160 156 152 148 145 142 139 137 135 133 131 129 128 127 
127 128 129 130 132 134 136 138 140 143 146 149 153 157 161 165 170 175 181 186 192 197 203 208 213 219 223 228 232 236 239 242 245 247 249 250 252 252 253 253 253 253 253 252 252 252 251 251 251 251 251 251 251 251 252 252 252 253 253 253 253 253 252 252 250 249 247 245 242 239 236 232 228 223 219 213 208 203 197 192 186 181 175 170 165 161 157 153 149 146 143 140 138 136 134 132 130 129 128 127 
127 128 129 130 131 133 134 136 138 141 143 146 149 153 157 161 165 170 175 180 185 191 196 201 206 212 216 221 226 230 233 237 240 242 245 247 248 250 251 251 252 252 253 253 253 253 253 253 253 253 253 253 253 253 253 253 253 253 252 252 251 251 250 248 247 245 242 240 237 233 230 226 221 216 212 206 201 196 191 185 180 175 170 165 161 157 153 149 146 143 141 138 136 134 133 131 130 129 128 127 
127 127 128 129 131 132 133 135 137 139 141 143 146 150 153 157 161 165 170 174 179 184 189 194 199 204 209 214 218 223 227 230 234 237 239 242 244 245 247 248 249 250 251 251 251 252 252 252 252 252 252 252 252 252 252 251 251 251 250 249 248 247 245 244 242 239 237 234 230 227 223 218 214 209 204 199 194 189 184 179 174 170 165 161 157 153 150 146 143 141 139 137 135 133 132 131 129 128 127 127 
127 127 128 129 130 131 132 134 135 137 139 141 144 146 150 153 157 160 164 169 173 178 183 187 192 197 202 206 211 215 219 223 227 230 233 235 238 240 242 243 245 246 247 247 248 249 249 249 249 249 249 249 249 249 249 248 247 247 246 245 243 242 240 238 235 233 230 227 223 219 215 211 206 202 197 192 187 183 178 173 169 164 160 157 153 150 146 144 141 139 137 135 134 132 131 130 129 128 127 127 
127 127 128 129 129 130 131 132 134 135 137 139 141 144 146 149 153 156 160 164 168 172 176 181 185 190 194 199 203 207 211 215 219 222 225 228 231 233 235 237 239 240 241 242 243 244 244 245 245 245 245 245 245 244 244 243 242 241 240 239 237 235 233 231 228 225 222 219 215 211 207 203 199 194 190 185 181 176 172 168 164 160 156 153 149 146 144 141 139 137 135 134 132 131 130 129 129 128 127 127 
127 127 128 128 129 130 130 131 133 134 135 137 139 141 143 146 149 152 155 159 163 166 170 174 179 183 187 191 196 200 204 207 211 214 217 220 223 226 228 230 232 233 235 236 237 237 238 238 239 239 239 239 238 238 237 237 236 235 233 232 230 228 226 223 220 217 214 211 207 204 200 196 191 187 183 179 174 170 166 163 159 155 152 149 146 143 141 139 137 135 134 133 131 130 130 129 128 128 127 127 
127 127 127 128 128 129 130 131 132 133 134 135 137 139 141 143 146 148 151 154 158 161 165 168 172 176 180 184 188 192 195 199 203 206 209 212 215 217 220 222 224 225 227 228 229 230 231 231 231 232 232 231 231 231 230 229 228 227 225 224 222 220 217 215 212 209 206 203 199 195 192 188 184 180 176 172 168 165 161 158 154 151 148 146 143 141 139 137 135 134 133 132 131 130 129 128 128 127 127 127 
127 127 127 128 128 129 129 130 131 132 133 134 135 137 139 141 143 145 148 150 153 156 159 163 166 170 173 177 180 184 187 191 194 197 200 203 206 208 211 213 215 216 218 219 220 221 222 222 223 223 223 223 222 222 221 220 219 218 216 215 213 211 208 206 203 200 197 194 191 187 184 180 177 173 170 166 163 159 156 153 150 148 145 143 141 139 137 135 134 133 132 131 130 129 129 128 128 127 127 127 
127 127 127 127 128 128 129 129 130 131 132 133 134 135 137 138 140 142 144 147 149 152 155 157 160 164 167 170 173 176 180 183 186 189 192 194 197 199 201 203 205 207 208 210 211 212 212 213 213 214 214 213 213 212 212 211 210 208 207 205 203 201 199 197 194 192 189 186 183 180 176 173 170 167 164 160 157 155 152 149 147 144 142 140 138 137 135 134 133 132 131 130 129 129 128 128 127 127 127 127 
127 127 127 127 128 128 128 129 129 130 131 131 132 134 135 136 138 139 141 143 145 148 150 153 155 158 161 163 166 169 172 175 178 180 183 185 188 190 192 194 196 197 199 200 201 202 202 203 203 203 203 203 203 202 202 201 200 199 197 196 194 192 190 188 185 183 180 178 175 172 169 166 163 161 158 155 153 150 148 145 143 141 139 138 136 135 134 132 131 131 130 129 129 128 128 128 127 127 127 127 
127 127 127 127 127 128 128 128 129 129 130 130 131 132 133 134 136 137 138 140 142 144 146 148 150 153 155 157 160 162 165 167 170 172 174 177 179 181 182 184 186 187 188 190 191 191 192 192 193 193 193 193 192 192 191 191 190 188 187 186 184 182 181 179 177 174 172 170 167 165 162 160 157 155 153 150 148 146 144 142 140 138 137 136 134 133 132 131 130 130 129 129 128 128 128 127 127 127 127 127 
127 127 127 127 127 127 128 128 128 129 129 130 130 131 132 133 134 135 136 137 139 140 142 144 146 148 150 152 154 156 158 160 162 164 166 168 170 171 173 174 176 177 178 179 180 181 181 182 182 182 182 182 182 181 181 180 179 178 177 176 174 173 171 170 168 166 164 162 160 158 156 154 152 150 148 146 144 142 140 139 137 136 135 134 133 132 131 130 130 129 129 128 128 128 127 127 127 127 127 127 
127 127 127 127 127 127 127 128 128 128 128 129 129 130 131 131 132 133 134 135 136 137 139 140 141 143 144 146 148 149 151 153 154 156 158 159 161 162 163 165 166 167 168 169 169 170 170 171 171 171 171 171 171 170 170 169 169 168 167 166 165 163 162 161 159 158 156 154 153 151 149 148 146 144 143 141 140 139 137 136 135 134 133 132 131 131 130 129 129 128 128 128 128 127 127 127 127 127 127 127 
127 127 127 127 127 127 127 127 127 128 128 128 129 129 129 130 130 131 132 133 133 134 135 136 137 139 140 141 142 143 145 146 147 148 150 151 152 153 154 155 156 157 157 158 159 159 159 160 160 160 160 160 160 159 159 159 158 157 157 156 155 154 153 152 151 150 148 147 146 145 143 142 141 140 139 137 136 135 134 133 133 132 131 130 130 129 129 129 128 128 128 127 127 127 127 127 127 127 127 127 
127 127 127 127 127 127 127 127 127 127 127 128 128 128 128 129 129 129 130 130 131 132 132 133 134 134 135 136 137 138 138 139 140 141 142 143 143 144 145 145 146 147 147 147 148 148 148 149 149 149 149 149 149 148 148 148 147 147 147 146 145 145 144 143 143 142 141 140 139 138 138 137 136 135 134 134 133 132 132 131 130 130 129 129 129 128 128 128 128 127 127 127 127 127 127 127 127 127 127 127 
127 127 127 127 127 127 127 127 127 127 127 127 127 127 127 128 128 128 128 128 129 129 129 130 130 130 131 131 132 132 132 133 133 134 134 135 135 135 136 136 136 137 137 137 137 137 137 138 138 138 138 138 138 137 137 137 137 137 137 136 136 136 135 135 135 134 134 133 133 132 132 132 131 131 130 130 130 129 129 129 128 128 128 128 128 127 127 127 127 127 127 127 127 127 127 127 127 127 127 127 
127 127 127 127 127 127 127 127 127 127 127 127 127 127 127 127 127 127 127 127 127 127 127 127 127 127 127 127 127 127 127 127 127 127 127 127 127 127 127 127 127 127 127 127 127 127 127 127 127 127 127 127 127 127 127 127 127 127 127 127 127 127 127 127 127 127 127 127 127 127 127 127 127 127 127 127 127 127 127 127 127 127 127 127 127 127 127 127 127 127 127 127 127 127 127 127 127 127 127 127 
