P2
100 100
255
127 127 127 127 127 127 127 127 127 127 127 127 127 127 127 127 127 127 127 127 127 127 127 127 127 127 127 127 127 127 127 127 127 127 127 127 127 127 127 127 127 127 127 127 127 127 127 127 127 127 127 127 127 127 127 127 127 127 127 127 127 127 127 127 127 127 127 127 127 127 127 127 127 127 127 127 127 127 127 127 127 127 127 127 127 127 127 127 127 127 127 127 127 127 127 127 127 127 127 127 
127 128 129 130 131 132 133 134 135 136 137 138 139 140 140 141 141 142 142 142 143 143 142 142 142 141 141 140 139 138 138 137 136 135 134 133 132 131 130 129 128 127 127 127 127 126 126 126 125 125 125 125 126 126 126 127 127 127 127 128 129 130 131 132 133 134 135 136 137 138 138 139 140 141 141 142 142 142 143 143 142 142 142 141 141 140 140 139 138 137 136 135 134 133 132 131 130 129 128 127 
127 129 131 133 135 137 139 141 144 145 147 149 151 152 154 155 156 157 158 158 158 158 158 157 157 156 154 153 151 150 148 146 144 142 140 138 136 135 133 131 130 128 127 126 125 125 124 123 123 123 123 123 123 124 125 125 126 127 128 130 131 133 135 136 138 140 142 144 146 148 150 151 153 154 156 157 157 158 158 158 158 158 157 156 155 154 152 151 149 147 145 144 141 139 137 135 133 131 129 127 
127 130 133 136 139 143 146 149 152 155 158 160 163 165 167 169 171 172 173 173 173 173 173 172 171 169 167 165 163 160 158 155 152 149 146 143 141 138 135 133 130 128 127 125 124 123 121 121 120 120 120 120 121 121 123 124 125 127 128 130 133 135 138 141 143 146 149 152 155 158 160 163 165 167 169 171 172 173 173 173 173 173 172 171 169 167 165 163 160 158 155 152 149 146 143 139 136 133 130 127 
127 131 135 139 144 148 152 156 160 164 168 171 174 177 180 182 184 186 187 187 187 187 186 185 183 181 179 176 173 170 166 162 159 155 151 147 143 140 136 133 130 127 126 123 121 120 118 117 117 116 116 117 117 118 120 121 123 126 127 130 133 136 140 143 147 151 155 159 162 166 170 173 176 179 181 183 185 186 187 187 187 187 186 184 182 180 177 174 171 168 164 160 156 152 148 144 139 135 131 127 
127 132 137 143 148 153 158 163 168 173 177 182 186 189 192 195 197 199 200 200 200 200 199 197 195 192 189 185 181 177 173 168 164 159 154 150 145 141 137 133 129 126 123 121 118 116 115 113 113 112 112 113 113 115 116 118 121 123 126 129 133 137 141 145 150 154 159 164 168 173 177 181 185 189 192 195 197 199 200 200 200 200 199 197 195 192 189 186 182 177 173 168 163 158 153 148 143 137 132 127 
127 133 139 146 152 158 164 170 176 182 187 192 196 200 204 206 209 211 212 212 212 211 209 207 204 201 197 193 188 183 178 172 167 161 156 151 145 140 135 131 127 123 120 117 114 112 110 108 108 107 107 108 108 110 112 114 117 120 123 127 131 135 140 145 151 156 161 167 172 178 183 188 193 197 201 204 207 209 211 212 212 212 211 209 206 204 200 196 192 187 182 176 170 164 158 152 146 139 133 127 
127 134 141 149 156 163 170 177 184 190 196 201 206 210 214 217 219 221 222 222 221 220 218 215 212 208 203 198 192 187 181 174 168 162 156 150 144 138 133 127 124 119 115 112 109 106 104 103 102 101 101 102 103 104 106 109 112 115 119 124 127 133 138 144 150 156 162 168 174 181 187 192 198 203 208 212 215 218 220 221 222 222 221 219 217 214 210 206 201 196 190 184 177 170 163 156 149 141 134 127 
127 135 144 152 160 168 176 184 191 198 204 210 215 220 223 227 229 230 231 230 229 227 225 221 217 212 207 201 195 188 181 174 168 161 154 147 141 134 128 124 119 114 110 106 103 100 98 96 95 95 95 95 96 98 100 103 106 110 114 119 124 128 134 141 147 154 161 168 174 181 188 195 201 207 212 217 221 225 227 229 230 231 230 229 227 223 220 215 210 204 198 191 184 176 168 160 152 144 135 127 
127 136 145 155 164 173 182 190 198 205 212 218 223 228 232 235 237 238 238 237 235 233 229 225 220 214 208 202 195 187 180 172 165 157 150 143 136 129 124 118 113 108 103 99 96 93 91 89 88 88 88 88 89 91 93 96 99 103 108 113 118 124 129 136 143 150 157 165 172 180 187 195 202 208 214 220 225 229 233 235 237 238 238 237 235 232 228 223 218 212 205 198 190 182 173 164 155 145 136 127 
127 137 147 158 168 177 187 196 204 212 219 225 231 235 239 241 243 244 243 242 239 236 232 226 221 214 207 200 192 184 176 168 160 152 144 137 130 124 117 111 106 101 96 92 89 86 83 82 80 80 80 80 82 83 86 89 92 96 101 106 111 117 124 130 137 144 152 160 168 176 184 192 200 207 214 221 226 232 236 239 242 243 244 243 241 239 235 231 225 219 212 204 196 187 177 168 158 147 137 127 
127 138 149 160 171 182 192 201 210 218 225 232 237 241 244 247 248 248 247 244 241 237 232 226 219 212 204 196 188 180 171 162 154 145 137 130 123 116 109 103 98 93 88 84 81 78 75 74 73 72 72 73 74 75 78 81 84 88 93 98 103 109 116 123 130 137 145 154 162 171 180 188 196 204 212 219 226 232 237 241 244 247 248 248 247 244 241 237 232 225 218 210 201 192 182 171 160 149 138 127 
127 139 151 163 174 186 196 206 215 223 231 237 242 246 249 250 251 250 248 245 241 236 230 223 216 208 200 191 182 173 164 155 146 137 129 122 115 108 101 95 89 84 80 76 73 70 68 66 65 64 64 65 66 68 70 73 76 80 84 89 95 101 108 115 122 129 137 146 155 164 173 182 191 200 208 216 223 230 236 241 245 248 250 251 250 249 246 242 237 231 223 215 206 196 186 174 163 151 139 127 
127 140 152 165 177 189 200 210 220 228 235 241 246 250 252 253 252 251 248 244 239 233 226 219 210 202 193 183 174 165 155 146 137 128 121 113 106 99 92 86 81 76 72 68 65 62 60 58 57 56 56 57 58 60 62 65 68 72 76 81 86 92 99 106 113 121 128 137 146 155 165 174 183 193 202 210 219 226 233 239 244 248 251 252 253 252 250 246 241 235 228 220 210 200 189 177 165 152 140 127 
127 140 154 167 180 192 204 214 223 232 239 244 249 252 253 253 252 250 246 241 235 228 221 212 203 194 184 175 165 155 145 136 127 119 111 103 96 89 83 77 72 67 63 60 57 54 52 51 50 49 49 50 51 52 54 57 60 63 67 72 77 83 89 96 103 111 119 127 136 145 155 165 175 184 194 203 212 221 228 235 241 246 250 252 253 253 252 249 244 239 232 223 214 204 192 180 167 154 140 127 
127 141 155 169 182 195 206 217 227 235 241 247 250 253 253 253 251 247 242 237 230 222 213 204 195 185 175 165 154 145 135 127 118 109 101 93 86 80 74 69 64 59 56 52 50 47 45 44 43 43 43 43 44 45 47 50 52 56 59 64 69 74 80 86 93 101 109 118 127 135 145 154 165 175 185 195 204 213 222 230 237 242 247 251 253 253 253 250 247 241 235 227 217 206 195 182 169 155 141 127 
127 141 156 171 184 197 209 219 229 237 243 248 251 252 252 251 248 243 237 230 223 214 205 195 185 174 164 154 143 133 125 116 107 99 91 84 77 71 65 60 56 52 49 46 43 41 39 38 37 37 37 37 38 39 41 43 46 49 52 56 60 65 71 77 84 91 99 107 116 125 133 143 154 164 174 185 195 205 214 223 230 237 243 248 251 252 252 251 248 243 237 229 219 209 197 184 171 156 141 127 
127 142 157 172 186 199 211 221 230 238 244 248 250 251 250 247 243 238 231 223 214 205 195 185 174 163 153 142 132 123 114 105 96 88 81 74 68 63 57 53 49 45 42 40 38 36 34 33 33 32 32 33 33 34 36 38 40 42 45 49 53 57 63 68 74 81 88 96 105 114 123 132 142 153 163 174 185 195 205 214 223 231 238 243 247 250 251 250 248 244 238 230 221 211 199 186 172 157 142 127 
127 142 158 173 187 200 212 222 231 238 243 247 248 248 246 242 237 231 223 215 205 195 184 174 163 152 141 130 121 112 102 94 86 78 72 65 60 55 50 46 43 40 37 35 33 31 30 29 29 28 28 29 29 30 31 33 35 37 40 43 46 50 55 60 65 72 78 86 94 102 112 121 130 141 152 163 174 184 195 205 215 223 231 237 242 246 248 248 247 243 238 231 222 212 200 187 173 158 142 127 
127 142 158 173 187 200 212 222 230 237 242 244 245 244 241 237 230 223 215 205 195 184 173 162 151 140 129 120 110 100 92 84 76 69 63 57 52 48 44 41 38 35 33 31 29 28 27 26 26 26 26 26 26 27 28 29 31 33 35 38 41 44 48 52 57 63 69 76 84 92 100 110 120 129 140 151 162 173 184 195 205 215 223 230 237 241 244 245 244 242 237 230 222 212 200 187 173 158 142 127 
127 143 158 173 187 200 212 221 229 235 239 241 241 239 235 230 223 214 205 195 184 173 162 150 139 128 118 108 99 90 82 74 67 61 55 50 46 42 39 36 33 31 30 28 27 26 25 25 24 24 24 24 25 25 26 27 28 30 31 33 36 39 42 46 50 55 61 67 74 82 90 99 108 118 128 139 150 162 173 184 195 205 214 223 230 235 239 241 241 239 235 229 221 212 200 187 173 158 143 127 
127 143 158 173 187 200 211 220 227 233 236 237 236 233 228 222 214 205 195 184 173 162 150 138 127 117 107 97 88 80 72 65 59 53 49 44 41 37 35 32 30 29 27 26 26 25 24 24 24 24 24 24 24 24 25 26 26 27 29 30 32 35 37 41 44 49 53 59 65 72 80 88 97 107 117 127 138 150 162 173 184 195 205 214 222 228 233 236 237 236 233 227 220 211 200 187 173 158 143 127 
127 142 158 173 186 199 209 218 225 229 232 232 230 226 221 213 205 195 184 173 162 150 138 127 117 106 96 87 78 71 64 57 52 47 43 39 36 34 32 30 28 27 26 26 25 25 24 24 24 24 24 24 24 24 25 25 26 26 27 28 30 32 34 36 39 43 47 52 57 64 71 78 87 96 106 117 127 138 150 162 173 184 195 205 213 221 226 230 232 232 229 225 218 209 199 186 173 158 142 127 
127 142 157 172 185 197 207 215 221 225 226 226 223 219 212 204 195 185 174 162 150 138 127 116 106 95 86 77 69 62 56 51 46 42 38 35 33 31 30 28 27 27 26 26 26 25 25 25 25 25 25 25 25 25 25 26 26 26 27 27 28 30 31 33 35 38 42 46 51 56 62 69 77 86 95 106 116 127 138 150 162 174 185 195 204 212 219 223 226 226 225 221 215 207 197 185 172 157 142 127 
127 142 157 171 183 195 204 212 217 220 221 219 216 210 203 195 185 174 163 151 139 127 117 106 95 86 77 69 61 55 50 45 41 38 35 33 31 30 29 28 27 27 27 27 27 27 27 27 27 27 27 27 27 27 27 27 27 27 27 27 28 29 30 31 33 35 38 41 45 50 55 61 69 77 86 95 106 117 127 139 151 163 174 185 195 203 210 216 219 221 220 217 212 204 195 183 171 157 142 127 
127 141 156 169 181 192 201 208 212 214 214 212 208 202 194 185 174 163 152 140 128 117 106 95 86 76 68 61 54 49 44 40 37 34 32 31 30 29 28 28 28 28 28 29 29 29 29 29 30 30 30 30 29 29 29 29 29 28 28 28 28 28 29 30 31 32 34 37 40 44 49 54 61 68 76 86 95 106 117 128 140 152 163 174 185 194 202 208 212 214 214 212 208 201 192 181 169 156 141 127 
127 141 154 167 179 189 197 203 207 208 207 204 200 193 184 175 164 153 141 129 118 107 96 86 77 68 61 54 48 44 40 37 34 32 31 30 29 29 29 29 30 30 30 31 31 32 32 32 32 33 33 32 32 32 32 31 31 30 30 30 29 29 29 29 30 31 32 34 37 40 44 48 54 61 68 77 86 96 107 118 129 141 153 164 175 184 193 200 204 207 208 207 203 197 189 179 167 154 141 127 
127 140 153 165 176 185 193 198 201 202 200 196 191 183 175 165 154 142 130 120 108 97 87 77 69 61 54 48 43 39 36 34 32 31 30 30 30 30 30 31 32 32 33 34 34 35 35 35 36 36 36 36 35 35 35 34 34 33 32 32 31 30 30 30 30 30 31 32 34 36 39 43 48 54 61 69 77 87 97 108 120 130 142 154 165 175 183 191 196 200 202 201 198 193 185 176 165 153 140 127 
127 139 151 163 173 181 188 192 195 195 192 188 182 174 165 154 143 132 121 110 99 88 78 69 61 54 48 43 39 36 34 32 31 30 30 30 31 31 32 33 34 35 36 37 37 38 38 39 39 39 39 39 39 38 38 37 37 36 35 34 33 32 31 31 30 30 30 31 32 34 36 39 43 48 54 61 69 78 88 99 110 121 132 143 154 165 174 182 188 192 195 195 192 188 181 173 163 151 139 127 
127 138 150 160 170 177 183 187 188 187 184 180 173 165 155 145 133 123 112 100 90 80 71 62 55 49 44 39 36 34 32 31 30 30 31 31 32 33 34 35 37 38 39 40 41 41 42 42 43 43 43 43 42 42 41 41 40 39 38 37 35 34 33 32 31 31 30 30 31 32 34 36 39 44 49 55 62 71 80 90 100 112 123 133 145 155 165 173 180 184 187 188 187 183 177 170 160 150 138 127 
127 138 148 158 166 173 178 181 181 180 176 171 164 155 145 135 125 114 102 92 82 72 64 56 50 44 40 36 34 32 31 30 30 31 32 33 34 35 37 38 39 41 42 43 44 45 45 46 46 46 46 46 46 45 45 44 43 42 41 39 38 37 35 34 33 32 31 30 30 31 32 34 36 40 44 50 56 64 72 82 92 102 114 125 135 145 155 164 171 176 180 181 181 178 173 166 158 148 138 127 
127 137 146 155 162 168 172 174 174 172 168 162 155 146 136 127 116 105 94 84 74 65 57 51 45 40 37 34 32 31 30 30 31 32 33 35 36 38 39 41 42 44 45 46 47 48 49 49 50 50 50 50 49 49 48 47 46 45 44 42 41 39 38 36 35 33 32 31 30 30 31 32 34 37 40 45 51 57 65 74 84 94 105 116 127 136 146 155 162 168 172 174 174 172 168 162 155 146 137 127 
127 136 144 152 159 164 167 168 168 165 160 154 146 137 127 118 107 96 86 76 67 59 52 46 41 37 34 32 31 30 30 31 32 33 35 37 39 40 42 44 45 47 48 50 51 52 52 53 53 53 53 53 53 52 52 51 50 48 47 45 44 42 40 39 37 35 33 32 31 30 30 31 32 34 37 41 46 52 59 67 76 86 96 107 118 127 137 146 154 160 165 168 168 167 164 159 152 144 136 127 
127 135 142 149 155 159 161 162 161 157 152 145 137 128 119 109 99 88 78 69 61 53 47 42 38 34 32 31 30 30 31 32 33 35 37 39 41 43 45 47 48 50 51 53 54 55 55 56 56 56 56 56 56 55 55 54 53 51 50 48 47 45 43 41 39 37 35 33 32 31 30 30 31 32 34 38 42 47 53 61 69 78 88 99 109 119 128 137 145 152 157 161 162 161 159 155 149 142 135 127 
127 134 140 146 151 154 156 156 154 150 144 137 129 121 111 101 91 81 72 63 55 49 43 38 35 32 31 30 30 31 32 33 35 37 39 41 44 46 48 50 51 53 54 56 57 58 58 59 59 59 59 59 59 58 58 57 56 54 53 51 50 48 46 44 41 39 37 35 33 32 31 30 30 31 32 35 38 43 49 55 63 72 81 91 101 111 121 129 137 144 150 154 156 156 154 151 146 140 134 127 
127 133 138 143 147 150 151 150 147 143 137 130 122 113 103 93 84 74 65 57 50 44 39 35 33 31 30 30 30 31 33 35 37 39 41 44 46 48 50 52 54 56 57 58 59 60 61 62 62 62 62 62 62 61 60 59 58 57 56 54 52 50 48 46 44 41 39 37 35 33 31 30 30 30 31 33 35 39 44 50 57 65 74 84 93 103 113 122 130 137 143 147 150 151 150 147 143 138 133 127 
127 132 136 141 143 145 145 144 141 136 130 123 115 106 96 86 77 68 60 52 46 41 36 33 31 30 29 30 31 32 34 36 39 41 44 46 48 51 53 55 57 58 60 61 62 63 64 64 64 65 65 64 64 64 63 62 61 60 58 57 55 53 51 48 46 44 41 39 36 34 32 31 30 29 30 31 33 36 41 46 52 60 68 77 86 96 106 115 123 130 136 141 144 145 145 143 141 136 132 127 
127 131 135 138 140 141 140 138 134 129 124 116 108 99 89 80 71 63 55 48 42 37 34 31 30 29 29 30 31 33 35 38 40 43 46 48 51 53 55 57 59 61 62 63 64 65 66 66 67 67 67 67 66 66 65 64 63 62 61 59 57 55 53 51 48 46 43 40 38 35 33 31 30 29 29 30 31 34 37 42 48 55 63 71 80 89 99 108 116 124 129 134 138 140 141 140 138 135 131 127 
127 130 133 135 136 137 135 133 128 124 117 109 101 92 83 74 65 57 50 44 39 35 32 30 29 28 29 30 32 34 37 39 42 45 48 50 53 55 57 59 61 63 64 65 66 67 68 68 69 69 69 69 68 68 67 66 65 64 63 61 59 57 55 53 50 48 45 42 39 37 34 32 30 29 28 29 30 32 35 39 44 50 57 65 74 83 92 101 109 117 124 128 133 135 137 136 135 133 130 127 
127 129 131 133 133 133 131 127 124 118 111 103 95 86 77 69 60 53 46 41 36 32 30 28 28 28 29 31 33 35 38 41 44 47 50 52 55 57 59 61 63 65 66 67 68 69 70 70 71 71 71 71 70 70 69 68 67 66 65 63 61 59 57 55 52 50 47 44 41 38 35 33 31 29 28 28 28 30 32 36 41 46 53 60 69 77 86 95 103 111 118 124 127 131 133 133 133 131 129 127 
127 128 130 130 130 129 127 124 119 113 106 98 89 81 72 64 56 49 43 38 33 30 28 27 27 28 30 32 34 37 39 42 45 48 51 54 57 59 61 63 65 66 68 69 70 71 71 72 72 72 72 72 72 71 71 70 69 68 66 65 63 61 59 57 54 51 48 45 42 39 37 34 32 30 28 27 27 28 30 33 38 43 49 56 64 72 81 89 98 106 113 119 124 127 129 130 130 130 128 127 
127 127 128 128 127 126 123 119 114 108 101 93 84 76 67 59 52 45 40 35 31 29 27 27 27 28 30 32 35 38 41 44 47 50 53 56 58 61 63 65 66 68 69 70 71 72 73 73 73 74 74 73 73 73 72 71 70 69 68 66 65 63 61 58 56 53 50 47 44 41 38 35 32 30 28 27 27 27 29 31 35 40 45 52 59 67 76 84 93 101 108 114 119 123 126 127 128 128 127 127 
127 127 127 127 126 123 120 115 110 103 96 88 80 72 63 56 49 42 37 33 30 27 26 26 27 28 30 33 36 39 42 45 48 51 54 57 60 62 64 66 68 69 71 72 73 73 74 74 75 75 75 75 74 74 73 73 72 71 69 68 66 64 62 60 57 54 51 48 45 42 39 36 33 30 28 27 26 26 27 30 33 37 42 49 56 63 72 80 88 96 103 110 115 120 123 126 127 127 127 127 
127 127 126 125 123 121 117 112 106 99 92 84 76 68 60 52 46 40 35 31 28 26 26 26 27 29 31 34 37 40 43 46 50 53 56 58 61 63 65 67 69 70 72 73 74 74 75 75 76 76 76 76 75 75 74 74 73 72 70 69 67 65 63 61 58 56 53 50 46 43 40 37 34 31 29 27 26 26 26 28 31 35 40 46 52 60 68 76 84 92 99 106 112 117 121 123 125 126 127 127 
127 127 125 124 121 118 114 109 103 96 89 81 73 65 57 50 43 38 33 29 27 26 25 26 27 29 31 34 37 41 44 47 51 54 57 59 62 64 66 68 70 71 73 74 75 75 76 76 77 77 77 77 76 76 75 75 74 73 71 70 68 66 64 62 59 57 54 51 47 44 41 37 34 31 29 27 26 25 26 27 29 33 38 43 50 57 65 73 81 89 96 103 109 114 118 121 124 125 127 127 
127 126 125 123 120 116 112 106 100 93 86 78 70 62 54 47 41 36 31 28 26 25 25 25 27 29 32 35 38 41 45 48 52 55 58 60 63 65 67 69 71 72 73 74 75 76 77 77 77 77 77 77 77 77 76 75 74 73 72 71 69 67 65 63 60 58 55 52 48 45 41 38 35 32 29 27 25 25 25 26 28 31 36 41 47 54 62 70 78 86 93 100 106 112 116 120 123 125 126 127 
127 126 124 121 118 115 110 104 98 91 83 75 68 60 52 45 39 34 30 27 25 24 24 25 27 29 32 35 38 42 45 49 52 55 58 61 64 66 68 70 71 73 74 75 76 77 77 77 78 78 78 78 77 77 77 76 75 74 73 71 70 68 66 64 61 58 55 52 49 45 42 38 35 32 29 27 25 24 24 25 27 30 34 39 45 52 60 68 75 83 91 98 104 110 115 118 121 124 126 127 
127 126 123 121 117 113 108 103 96 89 82 74 66 58 51 44 38 33 29 26 25 24 24 25 27 29 32 35 39 42 46 49 53 56 59 62 64 66 68 70 72 73 74 75 76 77 77 78 78 78 78 78 78 77 77 76 75 74 73 72 70 68 66 64 62 59 56 53 49 46 42 39 35 32 29 27 25 24 24 25 26 29 33 38 44 51 58 66 74 82 89 96 103 108 113 117 121 123 126 127 
127 125 123 120 117 113 108 102 95 88 80 73 65 57 50 43 37 33 29 26 24 24 24 25 27 30 32 36 39 43 46 50 53 56 59 62 64 67 69 71 72 73 75 76 77 77 78 78 78 78 78 78 78 78 77 77 76 75 73 72 71 69 67 64 62 59 56 53 50 46 43 39 36 32 30 27 25 24 24 24 26 29 33 37 43 50 57 65 73 80 88 95 102 108 113 117 120 123 125 127 
127 125 123 120 116 112 107 101 95 88 80 72 64 56 49 43 37 32 28 26 24 24 24 25 27 30 33 36 39 43 46 50 53 56 59 62 65 67 69 71 72 74 75 76 77 77 78 78 78 79 79 78 78 78 77 77 76 75 74 72 71 69 67 65 62 59 56 53 50 46 43 39 36 33 30 27 25 24 24 24 26 28 32 37 43 49 56 64 72 80 88 95 101 107 112 116 120 123 125 127 
127 125 123 120 116 112 107 101 95 88 80 72 64 56 49 43 37 32 28 26 24 24 24 25 27 30 33 36 39 43 46 50 53 56 59 62 65 67 69 71 72 74 75 76 77 77 78 78 78 79 79 78 78 78 77 77 76 75 74 72 71 69 67 65 62 59 56 53 50 46 43 39 36 33 30 27 25 24 24 24 26 28 32 37 43 49 56 64 72 80 88 95 101 107 112 116 120 123 125 127 
127 125 123 120 117 113 108 102 95 88 80 73 65 57 50 43 37 33 29 26 24 24 24 25 27 30 32 36 39 43 46 50 53 56 59 62 64 67 69 71 72 73 75 76 77 77 78 78 78 78 78 78 78 78 77 77 76 75 73 72 71 69 67 64 62 59 56 53 50 46 43 39 36 32 30 27 25 24 24 24 26 29 33 37 43 50 57 65 73 80 88 95 102 108 113 117 120 123 125 127 
127 126 123 121 117 113 108 103 96 89 82 74 66 58 51 44 38 33 29 26 25 24 24 25 27 29 32 35 39 42 46 49 53 56 59 62 64 66 68 70 72 73 74 75 76 77 77 78 78 78 78 78 78 77 77 76 75 74 73 72 70 68 66 64 62 59 56 53 49 46 42 39 35 32 29 27 25 24 24 25 26 29 33 38 44 51 58 66 74 82 89 96 103 108 113 117 121 123 126 127 
127 126 124 121 118 115 110 104 98 91 83 75 68 60 52 45 39 34 30 27 25 24 24 25 27 29 32 35 38 42 45 49 52 55 58 61 64 66 68 70 71 73 74 75 76 77 77 77 78 78 78 78 77 77 77 76 75 74 73 71 70 68 66 64 61 58 55 52 49 45 42 38 35 32 29 27 25 24 24 25 27 30 34 39 45 52 60 68 75 83 91 98 104 110 115 118 121 124 126 127 
127 126 125 123 120 116 112 106 100 93 86 78 70 62 54 47 41 36 31 28 26 25 25 25 27 29 32 35 38 41 45 48 52 55 58 60 63 65 67 69 71 72 73 74 75 76 77 77 77 77 77 77 77 77 76 75 74 73 72 71 69 67 65 63 60 58 55 52 48 45 41 38 35 32 29 27 25 25 25 26 28 31 36 41 47 54 62 70 78 86 93 100 106 112 116 120 123 125 126 127 
127 127 125 124 121 118 114 109 103 96 89 81 73 65 57 50 43 38 33 29 27 26 25 26 27 29 31 34 37 41 44 47 51 54 57 59 62 64 66 68 70 71 73 74 75 75 76 76 77 77 77 77 76 76 75 75 74 73 71 70 68 66 64 62 59 57 54 51 47 44 41 37 34 31 29 27 26 25 26 27 29 33 38 43 50 57 65 73 81 89 96 103 109 114 118 121 124 125 127 127 
127 127 126 125 123 121 117 112 106 99 92 84 76 68 60 52 46 40 35 31 28 26 26 26 27 29 31 34 37 40 43 46 50 53 56 58 61 63 65 67 69 70 72 73 74 74 75 75 76 76 76 76 75 75 74 74 73 72 70 69 67 65 63 61 58 56 53 50 46 43 40 37 34 31 29 27 26 26 26 28 31 35 40 46 52 60 68 76 84 92 99 106 112 117 121 123 125 126 127 127 
127 127 127 127 126 123 120 115 110 103 96 88 80 72 63 56 49 42 37 33 30 27 26 26 27 28 30 33 36 39 42 45 48 51 54 57 60 62 64 66 68 69 71 72 73 73 74 74 75 75 75 75 74 74 73 73 72 71 69 68 66 64 62 60 57 54 51 48 45 42 39 36 33 30 28 27 26 26 27 30 33 37 42 49 56 63 72 80 88 96 103 110 115 120 123 126 127 127 127 127 
127 127 128 128 127 126 123 119 114 108 101 93 84 76 67 59 52 45 40 35 31 29 27 27 27 28 30 32 35 38 41 44 47 50 53 56 58 61 63 65 66 68 69 70 71 72 73 73 73 74 74 73 73 73 72 71 70 69 68 66 65 63 61 58 56 53 50 47 44 41 38 35 32 30 28 27 27 27 29 31 35 40 45 52 59 67 76 84 93 101 108 114 119 123 126 127 128 128 127 127 
127 128 130 130 130 129 127 124 119 113 106 98 89 81 72 64 56 49 43 38 33 30 28 27 27 28 30 32 34 37 39 42 45 48 51 54 57 59 61 63 65 66 68 69 70 71 71 72 72 72 72 72 72 71 71 70 69 68 66 65 63 61 59 57 54 51 48 45 42 39 37 34 32 30 28 27 27 28 30 33 38 43 49 56 64 72 81 89 98 106 113 119 124 127 129 130 130 130 128 127 
127 129 131 133 133 133 131 127 124 118 111 103 95 86 77 69 60 53 46 41 36 32 30 28 28 28 29 31 33 35 38 41 44 47 50 52 55 57 59 61 63 65 66 67 68 69 70 70 71 71 71 71 70 70 69 68 67 66 65 63 61 59 57 55 52 50 47 44 41 38 35 33 31 29 28 28 28 30 32 36 41 46 53 60 69 77 86 95 103 111 118 124 127 131 133 133 133 131 129 127 
127 130 133 135 136 137 135 133 128 124 117 109 101 92 83 74 65 57 50 44 39 35 32 30 29 28 29 30 32 34 37 39 42 45 48 50 53 55 57 59 61 63 64 65 66 67 68 68 69 69 69 69 68 68 67 66 65 64 63 61 59 57 55 53 50 48 45 42 39 37 34 32 30 29 28 29 30 32 35 39 44 50 57 65 74 83 92 101 109 117 124 128 133 135 137 136 135 133 130 127 
127 131 135 138 140 141 140 138 134 129 124 116 108 99 89 80 71 63 55 48 42 37 34 31 30 29 29 30 31 33 35 38 40 43 46 48 51 53 55 57 59 61 62 63 64 65 66 66 67 67 67 67 66 66 65 64 63 62 61 59 57 55 53 51 48 46 43 40 38 35 33 31 30 29 29 30 31 34 37 42 48 55 63 71 80 89 99 108 116 124 129 134 138 140 141 140 138 135 131 127 
127 132 136 141 143 145 145 144 141 136 130 123 115 106 96 86 77 68 60 52 46 41 36 33 31 30 29 30 31 32 34 36 39 41 44 46 48 51 53 55 57 58 60 61 62 63 64 64 64 65 65 64 64 64 63 62 61 60 58 57 55 53 51 48 46 44 41 39 36 34 32 31 30 29 30 31 33 36 41 46 52 60 68 77 86 96 106 115 123 130 136 141 144 145 145 143 141 136 132 127 
127 133 138 143 147 150 151 150 147 143 137 130 122 113 103 93 84 74 65 57 50 44 39 35 33 31 30 30 30 31 33 35 37 39 41 44 46 48 50 52 54 56 57 58 59 60 61 62 62 62 62 62 62 61 60 59 58 57 56 54 52 50 48 46 44 41 39 37 35 33 31 30 30 30 31 33 35 39 44 50 57 65 74 84 93 103 113 122 130 137 143 147 150 151 150 147 143 138 133 127 
127 134 140 146 151 154 156 156 154 150 144 137 129 121 111 101 91 81 72 63 55 49 43 38 35 32 31 30 30 31 32 33 35 37 39 41 44 46 48 50 51 53 54 56 57 58 58 59 59 59 59 59 59 58 58 57 56 54 53 51 50 48 46 44 41 39 37 35 33 32 31 30 30 31 32 35 38 43 49 55 63 72 81 91 101 111 121 129 137 144 150 154 156 156 154 151 146 140 134 127 
127 135 142 149 155 159 161 162 161 157 152 145 137 128 119 109 99 88 78 69 61 53 47 42 38 34 32 31 30 30 31 32 33 35 37 39 41 43 45 47 48 50 51 53 54 55 55 56 56 56 56 56 56 55 55 54 53 51 50 48 47 45 43 41 39 37 35 33 32 31 30 30 31 32 34 38 42 47 53 61 69 78 88 99 109 119 128 137 145 152 157 161 162 161 159 155 149 142 135 127 
127 136 144 152 159 164 167 168 168 165 160 154 146 137 127 118 107 96 86 76 67 59 52 46 41 37 34 32 31 30 30 31 32 33 35 37 39 40 42 44 45 47 48 50 51 52 52 53 53 53 53 53 53 52 52 51 50 48 47 45 44 42 40 39 37 35 33 32 31 30 30 31 32 34 37 41 46 52 59 67 76 86 96 107 118 127 137 146 154 160 165 168 168 167 164 159 152 144 136 127 
127 137 146 155 162 168 172 174 174 172 168 162 155 146 136 127 116 105 94 84 74 65 57 51 45 40 37 34 32 31 30 30 31 32 33 35 36 38 39 41 42 44 45 46 47 48 49 49 50 50 50 50 49 49 48 47 46 45 44 42 41 39 38 36 35 33 32 31 30 30 31 32 34 37 40 45 51 57 65 74 84 94 105 116 127 136 146 155 162 168 172 174 174 172 168 162 155 146 137 127 
127 138 148 158 166 173 178 181 181 180 176 171 164 155 145 135 125 114 102 92 82 72 64 56 50 44 40 36 34 32 31 30 30 31 32 33 34 35 37 38 39 41 42 43 44 45 45 46 46 46 46 46 46 45 45 44 43 42 41 39 38 37 35 34 33 32 31 30 30 31 32 34 36 40 44 50 56 64 72 82 92 102 114 125 135 145 155 164 171 176 180 181 181 178 173 166 158 148 138 127 
127 138 150 160 170 177 183 187 188 187 184 180 173 165 155 145 133 123 112 100 90 80 71 62 55 49 44 39 36 34 32 31 30 30 31 31 32 33 34 35 37 38 39 40 41 41 42 42 43 43 43 43 42 42 41 41 40 39 38 37 35 34 33 32 31 31 30 30 31 32 34 36 39 44 49 55 62 71 80 90 100 112 123 133 145 155 165 173 180 184 187 188 187 183 177 170 160 150 138 127 
127 139 151 163 173 181 188 192 195 195 192 188 182 174 165 154 143 132 121 110 99 88 78 69 61 54 48 43 39 36 34 32 31 30 30 30 31 31 32 33 34 35 36 37 37 38 38 39 39 39 39 39 39 38 38 37 37 36 35 34 33 32 31 31 30 30 30 31 32 34 36 39 43 48 54 61 69 78 88 99 110 121 132 143 154 165 174 182 188 192 195 195 192 188 181 173 163 151 139 127 
127 140 153 165 176 185 193 198 201 202 200 196 191 183 175 165 154 142 130 120 108 97 87 77 69 61 54 48 43 39 36 34 32 31 30 30 30 30 30 31 32 32 33 34 34 35 35 35 36 36 36 36 35 35 35 34 34 33 32 32 31 30 30 30 30 30 31 32 34 36 39 43 48 54 61 69 77 87 97 108 120 130 142 154 165 175 183 191 196 200 202 201 198 193 185 176 165 153 140 127 
127 141 154 167 179 189 197 203 207 208 207 204 200 193 184 175 164 153 141 129 118 107 96 86 77 68 61 54 48 44 40 37 34 32 31 30 29 29 29 29 30 30 30 31 31 32 32 32 32 33 33 32 32 32 32 31 31 30 30 30 29 29 29 29 30 31 32 34 37 40 44 48 54 61 68 77 86 96 107 118 129 141 153 164 175 184 193 200 204 207 208 207 203 197 189 179 167 154 141 127 
127 141 156 169 181 192 201 208 212 214 214 212 208 202 194 185 174 163 152 140 128 117 106 95 86 76 68 61 54 49 44 40 37 34 32 31 30 29 28 28 28 28 28 29 29 29 29 29 30 30 30 30 29 29 29 29 29 28 28 28 28 28 29 30 31 32 34 37 40 44 49 54 61 68 76 86 95 106 117 128 140 152 163 174 185 194 202 208 212 214 214 212 208 201 192 181 169 156 141 127 
127 142 157 171 183 195 204 212 217 220 221 219 216 210 203 195 185 174 163 151 139 127 117 106 95 86 77 69 61 55 50 45 41 38 35 33 31 30 29 28 27 27 27 27 27 27 27 27 27 27 27 27 27 27 27 27 27 27 27 27 28 29 30 31 33 35 38 41 45 50 55 61 69 77 86 95 106 117 127 139 151 163 174 185 195 203 210 216 219 221 220 217 212 204 195 183 171 157 142 127 
127 142 157 172 185 197 207 215 221 225 226 226 223 219 212 204 195 185 174 162 150 138 127 116 106 95 86 77 69 62 56 51 46 42 38 35 33 31 30 28 27 27 26 26 26 25 25 25 25 25 25 25 25 25 25 26 26 26 27 27 28 30 31 33 35 38 42 46 51 56 62 69 77 86 95 106 116 127 138 150 162 174 185 195 204 212 219 223 226 226 225 221 215 207 197 185 172 157 142 127 
127 142 158 173 186 199 209 218 225 229 232 232 230 226 221 213 205 195 184 173 162 150 138 127 117 106 96 87 78 71 64 57 52 47 43 39 36 34 32 30 28 27 26 26 25 25 24 24 24 24 24 24 24 24 25 25 26 26 27 28 30 32 34 36 39 43 47 52 57 64 71 78 87 96 106 117 127 138 150 162 173 184 195 205 213 221 226 230 232 232 229 225 218 209 199 186 173 158 142 127 
127 143 158 173 187 200 211 220 227 233 236 237 236 233 228 222 214 205 195 184 173 162 150 138 127 117 107 97 88 80 72 65 59 53 49 44 41 37 35 32 30 29 27 26 26 25 24 24 24 24 24 24 24 24 25 26 26 27 29 30 32 35 37 41 44 49 53 59 65 72 80 88 97 107 117 127 138 150 162 173 184 195 205 214 222 228 233 236 237 236 233 227 220 211 200 187 173 158 143 127 
127 143 158 173 187 200 212 221 229 235 239 241 241 239 235 230 223 214 205 195 184 173 162 150 139 128 118 108 99 90 82 74 67 61 55 50 46 42 39 36 33 31 30 28 27 26 25 25 24 24 24 24 25 25 26 27 28 30 31 33 36 39 42 46 50 55 61 67 74 82 90 99 108 118 128 139 150 162 173 184 195 205 214 223 230 235 239 241 241 239 235 229 221 212 200 187 173 158 143 127 
127 142 158 173 187 200 212 222 230 237 242 244 245 244 241 237 230 223 215 205 195 184 173 162 151 140 129 120 110 100 92 84 76 69 63 57 52 48 44 41 38 35 33 31 29 28 27 26 26 26 26 26 26 27 28 29 31 33 35 38 41 44 48 52 57 63 69 76 84 92 100 110 120 129 140 151 162 173 184 195 205 215 223 230 237 241 244 245 244 242 237 230 222 212 200 187 173 158 142 127 
127 142 158 173 187 200 212 222 231 238 243 247 248 248 246 242 237 231 223 215 205 195 184 174 163 152 141 130 121 112 102 94 86 78 72 65 60 55 50 46 43 40 37 35 33 31 30 29 29 28 28 29 29 30 31 33 35 37 40 43 46 50 55 60 65 72 78 86 94 102 112 121 130 141 152 163 174 184 195 205 215 223 231 237 242 246 248 248 247 243 238 231 222 212 200 187 173 158 142 127 
127 142 157 172 186 199 211 221 230 238 244 248 250 251 250 247 243 238 231 223 214 205 195 185 174 163 153 142 132 123 114 105 96 88 81 74 68 63 57 53 49 45 42 40 38 36 34 33 33 32 32 33 33 34 36 38 40 42 45 49 53 57 63 68 74 81 88 96 105 114 123 132 142 153 163 174 185 195 205 214 223 231 238 243 247 250 251 250 248 244 238 230 221 211 199 186 172 157 142 127 
127 141 156 171 184 197 209 219 229 237 243 248 251 252 252 251 248 243 237 230 223 214 205 195 185 174 164 154 143 133 125 116 107 99 91 84 77 71 65 60 56 52 49 46 43 41 39 38 37 37 37 37 38 39 41 43 46 49 52 56 60 65 71 77 84 91 99 107 116 125 133 143 154 164 174 185 195 205 214 223 230 237 243 248 251 252 252 251 248 243 237 229 219 209 197 184 171 156 141 127 
127 141 155 169 182 195 206 217 227 235 241 247 250 253 253 253 251 247 242 237 230 222 213 204 195 185 175 165 154 145 135 127 118 109 101 93 86 80 74 69 64 59 56 52 50 47 45 44 43 43 43 43 44 45 47 50 52 56 59 64 69 74 80 86 93 101 109 118 127 135 145 154 165 175 185 195 204 213 222 230 237 242 247 251 253 253 253 250 247 241 235 227 217 206 195 182 169 155 141 127 
127 140 154 167 180 192 204 214 223 232 239 244 249 252 253 253 252 250 246 241 235 228 221 212 203 194 184 175 165 155 145 136 127 119 111 103 96 89 83 77 72 67 63 60 57 54 52 51 50 49 49 50 51 52 54 57 60 63 67 72 77 83 89 96 103 111 119 127 136 145 155 165 175 184 194 203 212 221 228 235 241 246 250 252 254 253 252 249 244 239 232 223 214 204 192 180 167 154 140 127 
127 140 152 165 177 189 200 210 220 228 235 241 246 250 252 253 252 251 248 244 239 233 226 219 210 202 193 183 174 165 155 146 137 128 121 113 106 99 92 86 81 76 72 68 65 62 60 58 57 56 56 57 58 60 62 65 68 72 76 81 86 92 99 106 113 121 128 137 146 155 165 174 183 193 202 210 219 226 233 239 244 248 251 252 253 252 250 246 241 235 228 220 210 200 189 177 165 152 140 127 
127 139 151 163 174 186 196 206 215 223 231 237 242 246 249 250 251 250 248 245 241 236 230 223 216 208 200 191 182 173 164 155 146 137 129 122 115 108 101 95 89 84 80 76 73 70 68 66 65 64 64 65 66 68 70 73 76 80 84 89 95 101 108 115 122 129 137 146 155 164 173 182 191 200 208 216 223 230 236 241 245 248 250 251 250 249 246 242 237 231 223 215 206 196 186 174 163 151 139 127 
127 138 149 160 171 182 192 201 210 218 225 232 237 241 244 247 248 248 247 244 241 237 232 226 219 212 204 196 188 180 171 162 154 145 137 130 123 116 109 103 98 93 88 84 81 78 75 74 73 72 72 73 74 75 78 81 84 88 93 98 103 109 116 123 130 137 145 154 162 171 180 188 196 204 212 219 226 232 237 241 244 247 248 248 247 244 241 237 232 225 218 210 201 192 182 171 160 149 138 127 
127 137 147 158 168 177 187 196 204 212 219 225 231 235 239 241 243 244 243 242 239 236 232 226 221 214 207 200 192 184 176 168 160 152 144 137 130 124 117 111 106 101 96 92 89 86 83 82 80 80 80 80 82 83 86 89 92 96 101 106 111 117 124 130 137 144 152 160 168 176 184 192 200 207 214 221 226 232 236 239 242 243 244 243 241 239 235 231 225 219 212 204 196 187 177 168 158 147 137 127 
127 136 145 155 164 173 182 190 198 205 212 218 223 228 232 235 237 238 238 237 235 233 229 225 220 214 208 202 195 187 180 172 165 157 150 143 136 129 124 118 113 108 103 99 96 93 91 89 88 88 88 88 89 91 93 96 99 103 108 113 118 124 129 136 143 150 157 165 172 180 187 195 202 208 214 220 225 229 233 235 237 238 238 237 235 232 228 223 218 212 205 198 190 182 173 164 155 145 136 127 
127 135 144 152 160 168 176 184 191 198 204 210 215 220 223 227 229 230 231 230 229 227 225 221 217 212 207 201 195 188 181 174 168 161 154 147 141 134 128 124 119 114 110 106 103 100 98 96 95 95 95 95 96 98 100 103 106 110 114 119 124 128 134 141 147 154 161 168 174 181 188 195 201 207 212 217 221 225 227 229 230 231 230 229 227 223 220 215 210 204 198 191 184 176 168 160 152 144 135 127 
127 134 141 149 156 163 170 177 184 190 196 201 206 210 214 217 219 221 222 222 221 220 218 215 212 208 203 198 192 187 181 174 168 162 156 150 144 138 133 127 124 119 115 112 109 106 104 103 102 101 101 102 103 104 106 109 112 115 119 124 127 133 138 144 150 156 162 168 174 181 187 192 198 203 208 212 215 218 220 221 222 222 221 219 217 214 210 206 201 196 190 184 177 170 163 156 149 141 134 127 
127 133 139 146 152 158 164 170 176 182 187 192 196 200 204 206 209 211 212 212 212 211 209 207 204 201 197 193 188 183 178 172 167 161 156 151 145 140 135 131 127 123 120 117 114 112 110 108 108 107 107 108 108 110 112 114 117 120 123 127 131 135 140 145 151 156 161 167 172 178 183 188 193 197 201 204 207 209 211 212 212 212 211 209 206 204 200 196 192 187 182 176 170 164 158 152 146 139 133 127 
127 132 137 143 148 153 158 163 168 173 177 182 186 189 192 195 197 199 200 200 200 200 199 197 195 192 189 185 181 177 173 168 164 159 154 150 145 141 137 133 129 126 123 121 118 116 115 113 113 112 112 113 113 115 116 118 121 123 126 129 133 137 141 145 150 154 159 164 168 173 177 181 185 189 192 195 197 199 200 200 200 200 199 197 195 192 189 186 182 177 173 168 163 158 153 148 143 137 132 127 
127 131 135 139 144 148 152 156 160 164 168 171 174 177 180 182 184 186 187 187 187 187 186 185 183 181 179 176 173 170 166 162 159 155 151 147 143 140 136 133 130 127 126 123 121 120 118 117 117 116 116 117 117 118 120 121 123 126 127 130 133 136 140 143 147 151 155 159 162 166 170 173 176 179 181 183 185 186 187 187 187 187 186 184 182 180 177 174 171 168 164 160 156 152 148 144 139 135 131 127 
127 130 133 136 139 143 146 149 152 155 158 160 163 165 167 169 171 172 173 173 173 173 173 172 171 169 167 165 163 160 158 155 152 149 146 143 141 138 135 133 130 128 127 125 124 123 121 121 120 120 120 120 121 121 123 124 125 127 128 130 133 135 138 141 143 146 149 152 155 158 160 163 165 167 169 171 172 173 173 173 173 173 172 171 169 167 165 163 160 158 155 152 149 146 143 139 136 133 130 127 
127 129 131 133 135 137 139 141 144 145 147 149 151 152 154 155 156 157 158 158 158 158 158 157 157 156 154 153 151 150 148 146 144 142 140 138 136 135 133 131 130 128 127 126 125 125 124 123 123 123 123 123 123 124 125 125 126 127 128 130 131 133 135 136 138 140 142 144 146 148 150 151 153 154 156 157 157 158 158 158 158 158 157 156 155 154 152 151 149 147 145 144 141 139 137 135 133 131 129 127 
127 128 129 130 131 132 133 134 135 136 137 138 139 140 140 141 141 142 142 142 143 143 142 142 142 141 141 140 139 138 138 137 136 135 134 133 132 131 130 129 128 127 127 127 127 126 126 126 125 125 125 125 126 126 126 127 127 127 127 128 129 130 131 132 133 134 135 136 137 138 138 139 140 141 141 142 142 142 143 143 142 142 142 141 141 140 140 139 138 137 136 135 134 133 132 131 130 129 128 127 
127 127 127 127 127 127 127 127 127 127 127 127 127 127 127 127 127 127 127 127 127 127 127 127 127 127 127 127 127 127 127 127 127 127 127 127 127 127 127 127 127 127 127 127 127 127 127 127 127 127 127 127 127 127 127 127 127 127 127 127 127 127 127 127 127 127 127 127 127 127 127 127 127 127 127 127 127 127 127 127 127 127 127 127 127 127 127 127 127 127 127 127 127 127 127 127 127 127 127 127 
