P2
100 100
255
127 127 127 127 127 127 127 127 127 127 127 127 127 127 127 127 127 127 127 127 127 127 127 127 127 127 127 127 127 127 127 127 127 127 127 127 127 127 127 127 127 127 127 127 127 127 127 127 127 127 127 127 127 127 127 127 127 127 127 127 127 127 127 127 127 127 127 127 127 127 127 127 127 127 127 127 127 127 127 127 127 127 127 127 127 127 127 127 127 127 127 127 127 127 127 127 127 127 127 127 
127 127 127 127 127 127 127 127 127 127 127 127 127 127 127 127 127 127 127 127 127 127 127 127 127 127 127 127 127 127 127 127 127 127 127 127 127 127 127 127 127 128 128 128 128 128 128 128 128 128 128 128 128 128 128 128 128 128 128 127 127 127 127 127 127 127 127 127 127 127 127 127 127 127 127 127 127 127 127 127 127 127 127 127 127 127 127 127 127 127 127 127 127 127 127 127 127 127 127 127 
127 127 127 127 127 127 127 127 127 127 127 127 127 127 127 127 127 127 127 127 127 127 127 127 127 127 127 127 127 127 127 127 128 128 128 128 128 128 128 128 128 129 129 129 129 129 129 129 129 129 129 129 129 129 129 129 129 129 129 128 128 128 128 128 128 128 128 128 127 127 127 127 127 127 127 127 127 127 127 127 127 127 127 127 127 127 127 127 127 127 127 127 127 127 127 127 127 127 127 127 
127 127 127 127 127 127 127 127 127 127 127 127 127 127 127 127 127 127 127 127 127 127 127 127 127 127 127 127 128 128 128 128 128 128 129 129 129 129 129 129 130 130 130 130 130 130 130 130 130 131 131 130 130 130 130 130 130 130 130 130 129 129 129 129 129 129 128 128 128 128 128 128 127 127 127 127 127 127 127 127 127 127 127 127 127 127 127 127 127 127 127 127 127 127 127 127 127 127 127 127 
127 127 127 127 127 127 127 127 127 127 127 127 127 127 127 127 127 127 127 127 127 127 127 127 127 127 128 128 128 128 128 129 129 129 129 130 130 130 130 131 131 131 131 132 132 132 132 132 132 132 132 132 132 132 132 132 132 131 131 131 131 130 130 130 130 129 129 129 129 128 128 128 128 128 127 127 127 127 127 127 127 127 127 127 127 127 127 127 127 127 127 127 127 127 127 127 127 127 127 127 
127 127 127 127 127 127 127 127 127 127 127 127 127 127 127 127 127 127 127 127 127 127 127 128 128 128 128 128 129 129 129 129 130 130 130 131 131 131 132 132 132 133 133 133 134 134 134 134 134 134 134 134 134 134 134 134 133 133 133 132 132 132 131 131 131 130 130 130 129 129 129 129 128 128 128 128 128 127 127 127 127 127 127 127 127 127 127 127 127 127 127 127 127 127 127 127 127 127 127 127 
127 127 127 127 127 127 127 127 127 127 127 127 127 127 127 127 127 127 127 127 127 127 128 128 128 128 129 129 129 130 130 130 131 131 132 132 133 133 133 134 134 135 135 135 136 136 136 136 136 136 136 136 136 136 136 136 135 135 135 134 134 133 133 133 132 132 131 131 130 130 130 129 129 129 128 128 128 128 127 127 127 127 127 127 127 127 127 127 127 127 127 127 127 127 127 127 127 127 127 127 
127 127 127 127 127 127 127 127 127 127 127 127 127 127 127 127 127 127 127 127 128 128 128 128 129 129 129 130 130 130 131 131 132 133 133 134 134 135 135 136 136 137 137 138 138 138 139 139 139 139 139 139 139 139 138 138 138 137 137 136 136 135 135 134 134 133 133 132 131 131 130 130 130 129 129 129 128 128 128 128 127 127 127 127 127 127 127 127 127 127 127 127 127 127 127 127 127 127 127 127 
127 127 127 127 127 127 127 127 127 127 127 127 127 127 127 127 127 127 127 128 128 128 128 129 129 130 130 130 131 132 132 133 133 134 135 136 136 137 138 138 139 139 140 140 141 141 142 142 142 142 142 142 142 142 141 141 140 140 139 139 138 138 137 136 136 135 134 133 133 132 132 131 130 130 130 129 129 128 128 128 128 127 127 127 127 127 127 127 127 127 127 127 127 127 127 127 127 127 127 127 
127 127 127 127 127 127 127 127 127 127 127 127 127 127 127 127 127 127 128 128 128 129 129 129 130 130 131 132 132 133 134 134 135 136 137 138 139 139 140 141 142 143 143 144 144 145 145 145 146 146 146 146 145 145 145 144 144 143 143 142 141 140 139 139 138 137 136 135 134 134 133 132 132 131 130 130 129 129 129 128 128 128 127 127 127 127 127 127 127 127 127 127 127 127 127 127 127 127 127 127 
127 127 127 127 127 127 127 127 127 127 127 127 127 127 127 127 128 128 128 128 129 129 130 130 131 131 132 133 134 134 135 136 137 138 139 140 141 142 143 144 145 146 147 147 148 149 149 149 150 150 150 150 149 149 149 148 147 147 146 145 144 143 142 141 140 139 138 137 136 135 134 134 133 132 131 131 130 130 129 129 128 128 128 128 127 127 127 127 127 127 127 127 127 127 127 127 127 127 127 127 
127 127 127 127 127 127 127 127 127 127 127 127 127 127 127 128 128 128 128 129 129 130 130 131 132 133 133 134 135 136 137 139 140 141 142 143 145 146 147 148 149 150 151 152 152 153 154 154 154 154 154 154 154 154 153 152 152 151 150 149 148 147 146 145 143 142 141 140 139 137 136 135 134 133 133 132 131 130 130 129 129 128 128 128 128 127 127 127 127 127 127 127 127 127 127 127 127 127 127 127 
127 127 127 127 127 127 127 127 127 127 127 127 127 127 128 128 128 129 129 129 130 131 131 132 133 134 135 136 137 138 140 141 143 144 145 147 148 150 151 152 153 155 156 157 157 158 159 159 159 160 160 159 159 159 158 157 157 156 155 153 152 151 150 148 147 145 144 143 141 140 138 137 136 135 134 133 132 131 131 130 129 129 129 128 128 128 127 127 127 127 127 127 127 127 127 127 127 127 127 127 
127 127 127 127 127 127 127 127 127 127 127 127 127 128 128 128 129 129 130 130 131 132 132 133 134 136 137 138 140 141 143 144 146 147 149 151 152 154 156 157 158 160 161 162 163 164 164 165 165 165 165 165 165 164 164 163 162 161 160 158 157 156 154 152 151 149 147 146 144 143 141 140 138 137 136 134 133 132 132 131 130 130 129 129 128 128 128 127 127 127 127 127 127 127 127 127 127 127 127 127 
127 127 127 127 127 127 127 127 127 127 127 127 128 128 128 129 129 130 130 131 132 133 134 135 136 137 139 140 142 144 146 148 149 151 153 155 157 159 161 162 164 165 167 168 169 170 170 171 171 171 171 171 171 170 170 169 168 167 165 164 162 161 159 157 155 153 151 149 148 146 144 142 140 139 137 136 135 134 133 132 131 130 130 129 129 128 128 128 127 127 127 127 127 127 127 127 127 127 127 127 
127 127 127 127 127 127 127 127 127 127 127 128 128 128 129 129 130 130 131 132 133 134 135 137 138 140 141 143 145 147 149 151 153 156 158 160 162 164 166 168 170 171 173 174 175 176 177 177 178 178 178 178 177 177 176 175 174 173 171 170 168 166 164 162 160 158 156 153 151 149 147 145 143 141 140 138 137 135 134 133 132 131 130 130 129 129 128 128 128 127 127 127 127 127 127 127 127 127 127 127 
127 127 127 127 127 127 127 127 127 127 128 128 128 129 129 130 130 131 132 133 134 136 137 139 140 142 144 146 148 151 153 155 158 160 163 165 168 170 172 174 176 178 179 180 182 183 184 184 185 185 185 185 184 184 183 182 180 179 178 176 174 172 170 168 165 163 160 158 155 153 151 148 146 144 142 140 139 137 136 134 133 132 131 130 130 129 129 128 128 128 127 127 127 127 127 127 127 127 127 127 
127 127 127 127 127 127 127 127 127 127 128 128 129 129 130 130 131 132 133 134 136 137 139 141 143 145 147 150 152 155 157 160 163 166 168 171 173 176 178 180 182 184 186 187 189 190 190 191 191 192 192 191 191 190 190 189 187 186 184 182 180 178 176 173 171 168 166 163 160 157 155 152 150 147 145 143 141 139 137 136 134 133 132 131 130 130 129 129 128 128 127 127 127 127 127 127 127 127 127 127 
127 127 127 127 127 127 127 127 127 128 128 128 129 130 130 131 132 133 134 136 137 139 141 143 146 148 151 153 156 159 162 165 168 171 174 177 179 182 185 187 189 191 193 194 195 196 197 198 198 199 199 198 198 197 196 195 194 193 191 189 187 185 182 179 177 174 171 168 165 162 159 156 153 151 148 146 143 141 139 137 136 134 133 132 131 130 130 129 128 128 128 127 127 127 127 127 127 127 127 127 
127 127 127 127 127 127 127 127 128 128 128 129 129 130 131 132 133 134 136 137 139 141 144 146 149 151 154 157 161 164 167 170 174 177 180 183 186 189 191 193 196 198 199 201 202 203 204 205 205 205 205 205 205 204 203 202 201 199 198 196 193 191 189 186 183 180 177 174 170 167 164 161 157 154 151 149 146 144 141 139 137 136 134 133 132 131 130 129 129 128 128 128 127 127 127 127 127 127 127 127 
127 127 127 127 127 127 127 128 128 128 129 129 130 131 132 133 134 136 137 139 141 144 146 149 152 155 158 162 165 169 172 176 179 183 186 189 192 195 198 200 202 204 206 207 209 210 210 211 211 212 212 211 211 210 210 209 207 206 204 202 200 198 195 192 189 186 183 179 176 172 169 165 162 158 155 152 149 146 144 141 139 137 136 134 133 132 131 130 129 129 128 128 128 127 127 127 127 127 127 127 
127 127 127 127 127 127 127 128 128 129 129 130 131 132 133 134 136 137 139 141 144 146 149 152 156 159 163 166 170 174 178 181 185 189 192 195 198 201 204 206 208 210 212 213 214 215 216 217 217 217 217 217 217 216 215 214 213 212 210 208 206 204 201 198 195 192 189 185 181 178 174 170 166 163 159 156 152 149 146 144 141 139 137 136 134 133 132 131 130 129 129 128 128 127 127 127 127 127 127 127 
127 127 127 127 127 127 128 128 128 129 130 130 131 132 134 135 137 139 141 144 146 149 152 156 159 163 167 171 175 179 183 187 191 195 198 201 205 207 210 212 214 216 217 218 219 220 221 221 222 222 222 222 221 221 220 219 218 217 216 214 212 210 207 205 201 198 195 191 187 183 179 175 171 167 163 159 156 152 149 146 144 141 139 137 135 134 132 131 130 130 129 128 128 128 127 127 127 127 127 127 
127 127 127 127 127 128 128 128 129 129 130 131 132 133 135 137 139 141 143 146 149 152 156 160 164 168 172 176 180 185 189 193 197 201 204 207 210 213 215 217 219 220 222 223 224 224 225 225 225 225 225 225 225 225 224 224 223 222 220 219 217 215 213 210 207 204 201 197 193 189 185 180 176 172 168 164 160 156 152 149 146 143 141 139 137 135 133 132 131 130 129 129 128 128 128 127 127 127 127 127 
127 127 127 127 127 128 128 129 129 130 131 132 133 134 136 138 140 143 146 149 152 156 159 164 168 172 177 181 186 190 195 199 203 206 210 213 215 218 220 222 223 224 225 226 227 227 227 227 228 228 228 228 227 227 227 227 226 225 224 223 222 220 218 215 213 210 206 203 199 195 190 186 181 177 172 168 164 159 156 152 149 146 143 140 138 136 134 133 132 131 130 129 129 128 128 127 127 127 127 127 
127 127 127 127 127 128 128 129 130 130 131 133 134 136 137 140 142 145 148 151 155 159 163 168 172 177 182 186 191 196 200 204 208 211 215 217 220 222 224 225 226 227 227 228 228 228 228 228 228 228 228 228 228 228 228 228 228 227 227 226 225 224 222 220 217 215 211 208 204 200 196 191 186 182 177 172 168 163 159 155 151 148 145 142 140 137 136 134 133 131 130 130 129 128 128 127 127 127 127 127 
127 127 127 127 128 128 129 129 130 131 132 133 135 137 139 141 144 147 151 154 158 163 167 172 177 182 187 191 196 201 205 209 213 216 219 221 224 225 226 227 228 228 228 228 228 228 228 227 227 227 227 227 227 228 228 228 228 228 228 228 227 226 225 224 221 219 216 213 209 205 201 196 191 187 182 177 172 167 163 158 154 151 147 144 141 139 137 135 133 132 131 130 129 129 128 128 127 127 127 127 
127 127 127 127 128 128 129 130 130 132 133 134 136 138 140 143 146 150 153 157 162 166 171 176 181 186 191 196 201 206 210 214 217 220 223 225 226 227 228 228 228 228 228 227 226 226 225 225 224 224 224 224 225 225 226 226 227 228 228 228 228 228 227 226 225 223 220 217 214 210 206 201 196 191 186 181 176 171 166 162 157 153 150 146 143 140 138 136 134 133 132 130 130 129 128 128 127 127 127 127 
127 127 127 128 128 129 129 130 131 132 134 135 137 140 142 145 148 152 156 161 165 170 175 180 186 191 196 201 206 210 214 218 221 224 225 227 228 228 228 228 227 226 225 224 223 222 221 220 220 219 219 220 220 221 222 223 224 225 226 227 228 228 228 228 227 225 224 221 218 214 210 206 201 196 191 186 180 175 170 165 161 156 152 148 145 142 140 137 135 134 132 131 130 129 129 128 128 127 127 127 
127 127 127 128 128 129 130 130 132 133 134 136 138 141 144 147 151 155 159 164 169 174 179 185 190 196 201 206 210 215 218 222 224 226 227 228 228 228 227 226 225 223 221 220 218 216 215 214 213 213 213 213 214 215 216 218 220 221 223 225 226 227 228 228 228 227 226 224 222 218 215 210 206 201 196 190 185 179 174 169 164 159 155 151 147 144 141 138 136 134 133 132 130 130 129 128 128 127 127 127 
127 127 127 128 128 129 130 131 132 134 135 137 140 143 146 149 153 157 162 167 172 178 183 189 195 200 205 210 214 218 222 224 226 228 228 228 228 226 225 223 221 218 216 213 211 209 207 206 205 204 204 205 206 207 209 211 213 216 218 221 223 225 226 228 228 228 228 226 224 222 218 214 210 205 200 195 189 183 178 172 167 162 157 153 149 146 143 140 137 135 134 132 131 130 129 128 128 127 127 127 
127 127 127 128 129 129 130 131 133 134 136 139 141 144 148 151 155 160 165 170 176 181 187 193 199 204 209 214 218 222 224 226 228 228 228 227 226 224 221 218 215 212 209 205 203 200 198 196 195 194 194 195 196 198 200 203 205 209 212 215 218 221 224 226 227 228 228 228 226 224 222 218 214 209 204 199 193 187 181 176 170 165 160 155 151 148 144 141 139 136 134 133 131 130 129 129 128 127 127 127 
127 127 128 128 129 130 131 132 133 135 137 140 143 146 149 153 158 163 168 174 179 185 191 197 203 208 213 217 221 224 226 228 228 228 227 225 223 220 216 212 208 204 200 196 193 190 187 185 184 183 183 184 185 187 190 193 196 200 204 208 212 216 220 223 225 227 228 228 228 226 224 221 217 213 208 203 197 191 185 179 174 168 163 158 153 149 146 143 140 137 135 133 132 131 130 129 128 128 127 127 
127 127 128 128 129 130 131 133 134 136 138 141 144 147 151 156 160 166 171 177 183 189 195 201 206 211 216 220 224 226 228 228 228 227 225 222 218 214 210 205 200 195 190 186 181 178 175 172 171 170 170 171 172 175 178 181 186 190 195 200 205 210 214 218 222 225 227 228 228 228 226 224 220 216 211 206 201 195 189 183 177 171 166 160 156 151 147 144 141 138 136 134 133 131 130 129 128 128 127 127 
127 127 128 129 129 130 132 133 135 137 139 142 145 149 153 158 163 168 174 180 186 192 198 204 210 215 219 223 225 227 228 228 227 225 222 218 213 208 203 197 191 185 179 174 169 165 162 159 157 156 156 157 159 162 165 169 174 179 185 191 197 203 208 213 218 222 225 227 228 228 227 225 223 219 215 210 204 198 192 186 180 174 168 163 158 153 149 145 142 139 137 135 133 132 130 129 129 128 127 127 
127 127 128 129 130 131 132 134 136 138 140 143 147 151 155 160 165 171 177 183 189 195 201 207 213 217 221 225 227 228 228 227 225 222 218 213 207 201 194 188 181 174 168 162 156 151 148 145 143 141 141 143 145 148 151 156 162 168 174 181 188 194 201 207 213 218 222 225 227 228 228 227 225 221 217 213 207 201 195 189 183 177 171 165 160 155 151 147 143 140 138 136 134 132 131 130 129 128 127 127 
127 127 128 129 130 131 133 134 136 139 141 145 148 152 157 162 168 173 179 186 192 198 205 210 215 220 224 226 228 228 228 226 223 218 213 207 201 193 186 178 170 162 155 149 143 137 133 130 128 127 127 128 130 133 137 143 149 155 162 170 178 186 193 201 207 213 218 223 226 228 228 228 226 224 220 215 210 205 198 192 186 179 173 168 162 157 152 148 145 141 139 136 134 133 131 130 129 128 127 127 
127 127 128 129 130 131 133 135 137 139 142 146 150 154 159 164 170 176 182 189 195 201 207 213 218 222 225 227 228 228 226 224 220 214 208 201 193 185 176 168 159 150 143 135 129 124 119 116 114 112 112 114 116 119 124 129 135 143 150 159 168 176 185 193 201 208 214 220 224 226 228 228 227 225 222 218 213 207 201 195 189 182 176 170 164 159 154 150 146 142 139 137 135 133 131 130 129 128 127 127 
127 127 128 129 130 132 133 135 138 140 143 147 151 156 161 166 172 178 185 191 198 204 210 215 220 224 226 228 228 227 225 221 216 210 203 194 186 176 167 157 148 138 130 123 116 110 105 101 99 97 97 99 101 105 110 116 123 130 138 148 157 167 176 186 194 203 210 216 221 225 227 228 228 226 224 220 215 210 204 198 191 185 178 172 166 161 156 151 147 143 140 138 135 133 132 130 129 128 127 127 
127 127 128 129 131 132 134 136 138 141 144 148 152 157 162 168 174 180 187 193 200 206 212 217 222 225 227 228 228 226 223 218 212 205 197 188 178 168 157 147 136 127 118 110 102 96 91 87 84 83 83 84 87 91 96 102 110 118 127 136 147 157 168 178 188 197 205 212 218 223 226 228 228 227 225 222 217 212 206 200 193 187 180 174 168 162 157 152 148 144 141 138 136 134 132 131 129 128 127 127 
127 127 128 130 131 132 134 136 139 142 145 149 153 158 164 170 176 182 189 196 202 208 214 219 223 226 228 228 227 225 221 215 208 200 191 181 170 159 148 136 126 116 106 97 89 83 77 73 70 69 69 70 73 77 83 89 97 106 116 126 136 148 159 170 181 191 200 208 215 221 225 227 228 228 226 223 219 214 208 202 196 189 182 176 170 164 158 153 149 145 142 139 136 134 132 131 130 128 127 127 
127 128 129 130 131 133 135 137 139 143 146 150 155 160 165 171 178 184 191 198 204 210 216 220 224 227 228 228 226 223 218 212 204 195 185 174 162 150 138 127 116 105 95 85 77 70 65 60 57 56 56 57 60 65 70 77 85 95 105 116 127 138 150 162 174 185 195 204 212 218 223 226 228 228 227 224 220 216 210 204 198 191 184 178 171 165 160 155 150 146 143 139 137 135 133 131 130 129 128 127 
127 128 129 130 131 133 135 137 140 143 147 151 156 161 167 173 179 186 193 199 206 212 217 222 225 227 228 228 225 221 216 209 200 190 179 168 155 143 130 118 106 95 84 74 66 59 53 49 46 44 44 46 49 53 59 66 74 84 95 106 118 130 143 155 168 179 190 200 209 216 221 225 228 228 227 225 222 217 212 206 199 193 186 179 173 167 161 156 151 147 143 140 137 135 133 131 130 129 128 127 
127 128 129 130 132 133 135 138 140 144 147 152 157 162 168 174 180 187 194 201 207 213 218 223 226 228 228 227 224 220 213 205 196 186 174 162 149 135 123 110 97 85 74 65 56 49 43 38 35 33 33 35 38 43 49 56 65 74 85 97 110 123 135 149 162 174 186 196 205 213 220 224 227 228 228 226 223 218 213 207 201 194 187 180 174 168 162 157 152 147 144 140 138 135 133 132 130 129 128 127 
127 128 129 130 132 134 136 138 141 144 148 152 157 163 169 175 182 189 195 202 209 214 219 224 227 228 228 226 223 218 211 203 193 181 169 156 143 129 116 102 89 77 66 56 47 40 33 29 26 24 24 26 29 33 40 47 56 66 77 89 102 116 129 143 156 169 181 193 203 211 218 223 226 228 228 227 224 219 214 209 202 195 189 182 175 169 163 157 152 148 144 141 138 136 134 132 130 129 128 127 
127 128 129 130 132 134 136 138 141 145 149 153 158 164 170 176 183 190 196 203 210 215 220 224 227 228 228 226 222 216 209 200 190 178 165 151 137 124 110 96 83 70 59 49 40 32 26 21 18 16 16 18 21 26 32 40 49 59 70 83 96 110 124 137 151 165 178 190 200 209 216 222 226 228 228 227 224 220 215 210 203 196 190 183 176 170 164 158 153 149 145 141 138 136 134 132 130 129 128 127 
127 128 129 130 132 134 136 139 142 145 149 154 159 164 170 177 184 190 197 204 210 216 221 225 227 228 228 225 221 215 207 198 187 175 162 148 133 119 105 91 77 65 53 43 33 26 19 15 12 10 10 12 15 19 26 33 43 53 65 77 91 105 119 133 148 162 175 187 198 207 215 221 225 228 228 227 225 221 216 210 204 197 190 184 177 170 164 159 154 149 145 142 139 136 134 132 130 129 128 127 
127 128 129 130 132 134 136 139 142 145 149 154 159 165 171 177 184 191 198 205 211 217 221 225 227 228 227 225 220 214 206 196 185 172 159 145 130 116 101 87 73 60 49 38 29 21 15 10 7 5 5 7 10 15 21 29 38 49 60 73 87 101 116 130 145 159 172 185 196 206 214 220 225 227 228 227 225 221 217 211 205 198 191 184 177 171 165 159 154 149 145 142 139 136 134 132 130 129 128 127 
127 128 129 130 132 134 136 139 142 146 150 154 159 165 171 178 185 191 198 205 211 217 222 225 228 228 227 224 220 213 205 195 184 171 157 143 128 114 99 84 70 57 46 35 26 18 12 7 4 2 2 4 7 12 18 26 35 46 57 70 84 99 114 128 143 157 171 184 195 205 213 220 224 227 228 228 225 222 217 211 205 198 191 185 178 171 165 159 154 150 146 142 139 136 134 132 130 129 128 127 
127 128 129 131 132 134 136 139 142 146 150 154 160 165 171 178 185 192 199 205 212 217 222 225 228 228 227 224 219 213 204 194 183 170 156 141 127 112 97 83 69 56 44 33 24 16 10 5 2 0 1 2 5 10 16 24 33 44 56 69 83 97 112 127 141 156 170 183 194 204 213 219 224 227 228 228 225 222 217 212 205 199 192 185 178 171 165 160 154 150 146 142 139 136 134 132 131 129 128 127 
127 128 129 131 132 134 136 139 142 146 150 154 160 165 171 178 185 192 199 205 212 217 222 225 228 228 227 224 219 213 204 194 183 170 156 141 127 112 97 83 69 56 44 33 24 16 10 5 2 1 1 2 5 10 16 24 33 44 56 69 83 97 112 127 141 156 170 183 194 204 213 219 224 227 228 228 225 222 217 212 205 199 192 185 178 171 165 160 154 150 146 142 139 136 134 132 131 129 128 127 
127 128 129 130 132 134 136 139 142 146 150 154 159 165 171 178 185 191 198 205 211 217 222 225 228 228 227 224 220 213 205 195 184 171 157 143 128 114 99 84 70 57 46 35 26 18 12 7 4 2 2 4 7 12 18 26 35 46 57 70 84 99 114 128 143 157 171 184 195 205 213 220 224 227 228 228 225 222 217 211 205 198 191 185 178 171 165 159 154 150 146 142 139 136 134 132 130 129 128 127 
127 128 129 130 132 134 136 139 142 145 149 154 159 165 171 177 184 191 198 205 211 217 221 225 227 228 227 225 220 214 206 196 185 172 159 145 130 116 101 87 73 60 49 38 29 21 15 10 7 5 5 7 10 15 21 29 38 49 60 73 87 101 116 130 145 159 172 185 196 206 214 220 225 227 228 227 225 221 217 211 205 198 191 184 177 171 165 159 154 149 145 142 139 136 134 132 130 129 128 127 
127 128 129 130 132 134 136 139 142 145 149 154 159 164 170 177 184 190 197 204 210 216 221 225 227 228 228 225 221 215 207 198 187 175 162 148 133 119 105 91 77 65 53 43 33 26 19 15 12 10 10 12 15 19 26 33 43 53 65 77 91 105 119 133 148 162 175 187 198 207 215 221 225 228 228 227 225 221 216 210 204 197 190 184 177 170 164 159 154 149 145 142 139 136 134 132 130 129 128 127 
127 128 129 130 132 134 136 138 141 145 149 153 158 164 170 176 183 190 196 203 210 215 220 224 227 228 228 226 222 216 209 200 190 178 165 151 137 124 110 96 83 70 59 49 40 32 26 21 18 16 16 18 21 26 32 40 49 59 70 83 96 110 124 137 151 165 178 190 200 209 216 222 226 228 228 227 224 220 215 210 203 196 190 183 176 170 164 158 153 149 145 141 138 136 134 132 130 129 128 127 
127 128 129 130 132 134 136 138 141 144 148 152 157 163 169 175 182 189 195 202 209 214 219 224 227 228 228 226 223 218 211 203 193 181 169 156 143 129 116 102 89 77 66 56 47 40 33 29 26 24 24 26 29 33 40 47 56 66 77 89 102 116 129 143 156 169 181 193 203 211 218 223 226 228 228 227 224 219 214 209 202 195 189 182 175 169 163 157 152 148 144 141 138 136 134 132 130 129 128 127 
127 128 129 130 132 133 135 138 140 144 147 152 157 162 168 174 180 187 194 201 207 213 218 223 226 228 228 227 224 220 213 205 196 186 174 162 149 135 123 110 97 85 74 65 56 49 43 38 35 33 33 35 38 43 49 56 65 74 85 97 110 123 135 149 162 174 186 196 205 213 220 224 227 228 228 226 223 218 213 207 201 194 187 180 174 168 162 157 152 147 144 140 138 135 133 132 130 129 128 127 
127 128 129 130 131 133 135 137 140 143 147 151 156 161 167 173 179 186 193 199 206 212 217 222 225 227 228 228 225 221 216 209 200 190 179 168 155 143 130 118 106 95 84 74 66 59 53 49 46 44 44 46 49 53 59 66 74 84 95 106 118 130 143 155 168 179 190 200 209 216 221 225 228 228 227 225 222 217 212 206 199 193 186 179 173 167 161 156 151 147 143 140 137 135 133 131 130 129 128 127 
127 128 129 130 131 133 135 137 139 143 146 150 155 160 165 171 178 184 191 198 204 210 216 220 224 227 228 228 226 223 218 212 204 195 185 174 162 150 138 127 116 105 95 85 77 70 65 60 57 56 56 57 60 65 70 77 85 95 105 116 127 138 150 162 174 185 195 204 212 218 223 226 228 228 227 224 220 216 210 204 198 191 184 178 171 165 160 155 150 146 143 139 137 135 133 131 130 129 128 127 
127 127 128 130 131 132 134 136 139 142 145 149 153 158 164 170 176 182 189 196 202 208 214 219 223 226 228 228 227 225 221 215 208 200 191 181 170 159 148 136 126 116 106 97 89 83 77 73 70 69 69 70 73 77 83 89 97 106 116 126 136 148 159 170 181 191 200 208 215 221 225 227 228 228 226 223 219 214 208 202 196 189 182 176 170 164 158 153 149 145 142 139 136 134 132 131 130 128 127 127 
127 127 128 129 131 132 134 136 138 141 144 148 152 157 162 168 174 180 187 193 200 206 212 217 222 225 227 228 228 226 223 218 212 205 197 188 178 168 157 147 136 127 118 110 102 96 91 87 84 83 83 84 87 91 96 102 110 118 127 136 147 157 168 178 188 197 205 212 218 223 226 228 228 227 225 222 217 212 206 200 193 187 180 174 168 162 157 152 148 144 141 138 136 134 132 131 129 128 127 127 
127 127 128 129 130 132 133 135 138 140 143 147 151 156 161 166 172 178 185 191 198 204 210 215 220 224 226 228 228 227 225 221 216 210 203 194 186 176 167 157 148 138 130 123 116 110 105 101 99 97 97 99 101 105 110 116 123 130 138 148 157 167 176 186 194 203 210 216 221 225 227 228 228 226 224 220 215 210 204 198 191 185 178 172 166 161 156 151 147 143 140 138 135 133 132 130 129 128 127 127 
127 127 128 129 130 131 133 135 137 139 142 146 150 154 159 164 170 176 182 189 195 201 207 213 218 222 225 227 228 228 226 224 220 214 208 201 193 185 176 168 159 150 143 135 129 124 119 116 114 112 112 114 116 119 124 129 135 143 150 159 168 176 185 193 201 208 214 220 224 226 228 228 227 225 222 218 213 207 201 195 189 182 176 170 164 159 154 150 146 142 139 137 135 133 131 130 129 128 127 127 
127 127 128 129 130 131 133 134 136 139 141 145 148 152 157 162 168 173 179 186 192 198 205 210 215 220 224 226 228 228 228 226 223 218 213 207 201 193 186 178 170 162 155 149 143 137 133 130 128 127 127 128 130 133 137 143 149 155 162 170 178 186 193 201 207 213 218 223 226 228 228 228 226 224 220 215 210 205 198 192 186 179 173 168 162 157 152 148 145 141 139 136 134 133 131 130 129 128 127 127 
127 127 128 129 130 131 132 134 136 138 140 143 147 151 155 160 165 171 177 183 189 195 201 207 213 217 221 225 227 228 228 227 225 222 218 213 207 201 194 188 181 174 168 162 156 151 148 145 143 141 141 143 145 148 151 156 162 168 174 181 188 194 201 207 213 218 222 225 227 228 228 227 225 221 217 213 207 201 195 189 183 177 171 165 160 155 151 147 143 140 138 136 134 132 131 130 129 128 127 127 
127 127 128 129 129 130 132 133 135 137 139 142 145 149 153 158 163 168 174 180 186 192 198 204 210 215 219 223 225 227 228 228 227 225 222 218 213 208 203 197 191 185 179 174 169 165 162 159 157 156 156 157 159 162 165 169 174 179 185 191 197 203 208 213 218 222 225 227 228 228 227 225 223 219 215 210 204 198 192 186 180 174 168 163 158 153 149 145 142 139 137 135 133 132 130 129 129 128 127 127 
127 127 128 128 129 130 131 133 134 136 138 141 144 147 151 156 160 166 171 177 183 189 195 201 206 211 216 220 224 226 228 228 228 227 225 222 218 214 210 205 200 195 190 186 181 178 175 172 171 170 170 171 172 175 178 181 186 190 195 200 205 210 214 218 222 225 227 228 228 228 226 224 220 216 211 206 201 195 189 183 177 171 166 160 156 151 147 144 141 138 136 134 133 131 130 129 128 128 127 127 
127 127 128 128 129 130 131 132 133 135 137 140 143 146 149 153 158 163 168 174 179 185 191 197 203 208 213 217 221 224 226 228 228 228 227 225 223 220 216 212 208 204 200 196 193 190 187 185 184 183 183 184 185 187 190 193 196 200 204 208 212 216 220 223 225 227 228 228 228 226 224 221 217 213 208 203 197 191 185 179 174 168 163 158 153 149 146 143 140 137 135 133 132 131 130 129 128 128 127 127 
127 127 127 128 129 129 130 131 133 134 136 139 141 144 148 151 155 160 165 170 176 181 187 193 199 204 209 214 218 222 224 226 228 228 228 227 226 224 221 218 215 212 209 205 203 200 198 196 195 194 194 195 196 198 200 203 205 209 212 215 218 221 224 226 227 228 228 228 226 224 222 218 214 209 204 199 193 187 181 176 170 165 160 155 151 148 144 141 139 136 134 133 131 130 129 129 128 127 127 127 
127 127 127 128 128 129 130 131 132 134 135 137 140 143 146 149 153 157 162 167 172 178 183 189 195 200 205 210 214 218 222 224 226 228 228 228 228 226 225 223 221 218 216 213 211 209 207 206 205 204 204 205 206 207 209 211 213 216 218 221 223 225 226 228 228 228 228 226 224 222 218 214 210 205 200 195 189 183 178 172 167 162 157 153 149 146 143 140 137 135 134 132 131 130 129 128 128 127 127 127 
127 127 127 128 128 129 130 130 132 133 134 136 138 141 144 147 151 155 159 164 169 174 179 185 190 196 201 206 210 215 218 222 224 226 227 228 228 228 227 226 225 223 221 220 218 216 215 214 213 213 213 213 214 215 216 218 220 221 223 225 226 227 228 228 228 227 226 224 222 218 215 210 206 201 196 190 185 179 174 169 164 159 155 151 147 144 141 138 136 134 133 132 130 130 129 128 128 127 127 127 
127 127 127 128 128 129 129 130 131 132 134 135 137 140 142 145 148 152 156 161 165 170 175 180 186 191 196 201 206 210 214 218 221 224 225 227 228 228 228 228 227 226 225 224 223 222 221 220 220 219 219 220 220 221 222 223 224 225 226 227 228 228 228 228 227 225 224 221 218 214 210 206 201 196 191 186 180 175 170 165 161 156 152 148 145 142 140 137 135 134 132 131 130 129 129 128 128 127 127 127 
127 127 127 127 128 128 129 130 130 132 133 134 136 138 140 143 146 150 153 157 162 166 171 176 181 186 191 196 201 206 210 214 217 220 223 225 226 227 228 228 228 228 228 227 226 226 225 225 224 224 224 224 225 225 226 226 227 228 228 228 228 228 227 226 225 223 220 217 214 210 206 201 196 191 186 181 176 171 166 162 157 153 150 146 143 140 138 136 134 133 132 130 130 129 128 128 127 127 127 127 
127 127 127 127 128 128 129 129 130 131 132 133 135 137 139 141 144 147 151 154 158 163 167 172 177 182 187 191 196 201 205 209 213 216 219 221 224 225 226 227 228 228 228 228 228 228 228 227 227 227 227 227 227 228 228 228 228 228 228 228 227 226 225 224 221 219 216 213 209 205 201 196 191 187 182 177 172 167 163 158 154 151 147 144 141 139 137 135 133 132 131 130 129 129 128 128 127 127 127 127 
127 127 127 127 127 128 128 129 130 130 131 133 134 136 137 140 142 145 148 151 155 159 163 168 172 177 182 186 191 196 200 204 208 211 215 217 220 222 224 225 226 227 227 228 228 228 228 228 228 228 228 228 228 228 228 228 228 227 227 226 225 224 222 220 217 215 211 208 204 200 196 191 186 182 177 172 168 163 159 155 151 148 145 142 140 137 136 134 133 131 130 130 129 128 128 127 127 127 127 127 
127 127 127 127 127 128 128 129 129 130 131 132 133 134 136 138 140 143 146 149 152 156 159 164 168 172 177 181 186 190 195 199 203 206 210 213 215 218 220 222 223 224 225 226 227 227 227 227 228 228 228 228 227 227 227 227 226 225 224 223 222 220 218 215 213 210 206 203 199 195 190 186 181 177 172 168 164 159 156 152 149 146 143 140 138 136 134 133 132 131 130 129 129 128 128 127 127 127 127 127 
127 127 127 127 127 128 128 128 129 129 130 131 132 133 135 137 139 141 143 146 149 152 156 160 164 168 172 176 180 185 189 193 197 201 204 207 210 213 215 217 219 220 222 223 224 224 225 225 225 225 225 225 225 225 224 224 223 222 220 219 217 215 213 210 207 204 201 197 193 189 185 180 176 172 168 164 160 156 152 149 146 143 141 139 137 135 133 132 131 130 129 129 128 128 128 127 127 127 127 127 
127 127 127 127 127 127 128 128 128 129 130 130 131 132 134 135 137 139 141 144 146 149 152 156 159 163 167 171 175 179 183 187 191 195 198 201 205 207 210 212 214 216 217 218 219 220 221 221 222 222 222 222 221 221 220 219 218 217 216 214 212 210 207 205 201 198 195 191 187 183 179 175 171 167 163 159 156 152 149 146 144 141 139 137 135 134 132 131 130 130 129 128 128 128 127 127 127 127 127 127 
127 127 127 127 127 127 127 128 128 129 129 130 131 132 133 134 136 137 139 141 144 146 149 152 156 159 163 166 170 174 178 181 185 189 192 195 198 201 204 206 208 210 212 213 214 215 216 217 217 217 217 217 217 216 215 214 213 212 210 208 206 204 201 198 195 192 189 185 181 178 174 170 166 163 159 156 152 149 146 144 141 139 137 136 134 133 132 131 130 129 129 128 128 127 127 127 127 127 127 127 
127 127 127 127 127 127 127 128 128 128 129 129 130 131 132 133 134 136 137 139 141 144 146 149 152 155 158 162 165 169 172 176 179 183 186 189 192 195 198 200 202 204 206 207 209 210 210 211 211 212 212 211 211 210 210 209 207 206 204 202 200 198 195 192 189 186 183 179 176 172 169 165 162 158 155 152 149 146 144 141 139 137 136 134 133 132 131 130 129 129 128 128 128 127 127 127 127 127 127 127 
127 127 127 127 127 127 127 127 128 128 128 129 129 130 131 132 133 134 136 137 139 141 144 146 149 151 154 157 161 164 167 170 174 177 180 183 186 189 191 193 196 198 199 201 202 203 204 205 205 205 205 205 205 204 203 202 201 199 198 196 193 191 189 186 183 180 177 174 170 167 164 161 157 154 151 149 146 144 141 139 137 136 134 133 132 131 130 129 129 128 128 128 127 127 127 127 127 127 127 127 
127 127 127 127 127 127 127 127 127 128 128 128 129 130 130 131 132 133 134 136 137 139 141 143 146 148 151 153 156 159 162 165 168 171 174 177 179 182 185 187 189 191 193 194 195 196 197 198 198 199 199 198 198 197 196 195 194 193 191 189 187 185 182 179 177 174 171 168 165 162 159 156 153 151 148 146 143 141 139 137 136 134 133 132 131 130 130 129 128 128 128 127 127 127 127 127 127 127 127 127 
127 127 127 127 127 127 127 127 127 127 128 128 129 129 130 130 131 132 133 134 136 137 139 141 143 145 147 150 152 155 157 160 163 166 168 171 173 176 178 180 182 184 186 187 189 190 190 191 191 192 192 191 191 190 190 189 187 186 184 182 180 178 176 173 171 168 166 163 160 157 155 152 150 147 145 143 141 139 137 136 134 133 132 131 130 130 129 129 128 128 127 127 127 127 127 127 127 127 127 127 
127 127 127 127 127 127 127 127 127 127 128 128 128 129 129 130 130 131 132 133 134 136 137 139 140 142 144 146 148 151 153 155 158 160 163 165 168 170 172 174 176 178 179 180 182 183 184 184 185 185 185 185 184 184 183 182 180 179 178 176 174 172 170 168 165 163 160 158 155 153 151 148 146 144 142 140 139 137 136 134 133 132 131 130 130 129 129 128 128 128 127 127 127 127 127 127 127 127 127 127 
127 127 127 127 127 127 127 127 127 127 127 128 128 128 129 129 130 130 131 132 133 134 135 137 138 140 141 143 145 147 149 151 153 156 158 160 162 164 166 168 170 171 173 174 175 176 177 177 178 178 178 178 177 177 176 175 174 173 171 170 168 166 164 162 160 158 156 153 151 149 147 145 143 141 140 138 137 135 134 133 132 131 130 130 129 129 128 128 128 127 127 127 127 127 127 127 127 127 127 127 
127 127 127 127 127 127 127 127 127 127 127 127 128 128 128 129 129 130 130 131 132 133 134 135 136 137 139 140 142 144 146 148 149 151 153 155 157 159 161 162 164 165 167 168 169 170 170 171 171 171 171 171 171 170 170 169 168 167 165 164 162 161 159 157 155 153 151 149 148 146 144 142 140 139 137 136 135 134 133 132 131 130 130 129 129 128 128 128 127 127 127 127 127 127 127 127 127 127 127 127 
127 127 127 127 127 127 127 127 127 127 127 127 127 128 128 128 129 129 130 130 131 132 132 133 134 136 137 138 140 141 143 144 146 147 149 151 152 154 156 157 158 160 161 162 163 164 164 165 165 165 165 165 165 164 164 163 162 161 160 158 157 156 154 152 151 149 147 146 144 143 141 140 138 137 136 134 133 132 132 131 130 130 129 129 128 128 128 127 127 127 127 127 127 127 127 127 127 127 127 127 
127 127 127 127 127 127 127 127 127 127 127 127 127 127 128 128 128 129 129 129 130 131 131 132 133 134 135 136 137 138 140 141 143 144 145 147 148 150 151 152 153 155 156 157 157 158 159 159 159 160 160 159 159 159 158 157 157 156 155 153 152 151 150 148 147 145 144 143 141 140 138 137 136 135 134 133 132 131 131 130 129 129 129 128 128 128 127 127 127 127 127 127 127 127 127 127 127 127 127 127 
127 127 127 127 127 127 127 127 127 127 127 127 127 127 127 128 128 128 128 129 129 130 130 131 132 133 133 134 135 136 137 139 140 141 142 143 145 146 147 148 149 150 151 152 152 153 154 154 154 154 154 154 154 154 153 152 152 151 150 149 148 147 146 145 143 142 141 140 139 137 136 135 134 133 133 132 131 130 130 129 129 128 128 128 128 127 127 127 127 127 127 127 127 127 127 127 127 127 127 127 
127 127 127 127 127 127 127 127 127 127 127 127 127 127 127 127 128 128 128 128 129 129 130 130 131 131 132 133 134 134 135 136 137 138 139 140 141 142 143 144 145 146 147 147 148 149 149 149 150 150 150 150 149 149 149 148 147 147 146 145 144 143 142 141 140 139 138 137 136 135 134 134 133 132 131 131 130 130 129 129 128 128 128 128 127 127 127 127 127 127 127 127 127 127 127 127 127 127 127 127 
127 127 127 127 127 127 127 127 127 127 127 127 127 127 127 127 127 127 128 128 128 129 129 129 130 130 131 132 132 133 134 134 135 136 137 138 139 139 140 141 142 143 143 144 144 145 145 145 146 146 146 146 145 145 145 144 144 143 143 142 141 140 139 139 138 137 136 135 134 134 133 132 132 131 130 130 129 129 129 128 128 128 127 127 127 127 127 127 127 127 127 127 127 127 127 127 127 127 127 127 
127 127 127 127 127 127 127 127 127 127 127 127 127 127 127 127 127 127 127 128 128 128 128 129 129 130 130 130 131 132 132 133 133 134 135 136 136 137 138 138 139 139 140 140 141 141 142 142 142 142 142 142 142 142 141 141 140 140 139 139 138 138 137 136 136 135 134 133 133 132 132 131 130 130 130 129 129 128 128 128 128 127 127 127 127 127 127 127 127 127 127 127 127 127 127 127 127 127 127 127 
127 127 127 127 127 127 127 127 127 127 127 127 127 127 127 127 127 127 127 127 128 128 128 128 129 129 129 130 130 130 131 131 132 133 133 134 134 135 135 136 136 137 137 138 138 138 139 139 139 139 139 139 139 139 138 138 138 137 137 136 136 135 135 134 134 133 133 132 131 131 130 130 130 129 129 129 128 128 128 128 127 127 127 127 127 127 127 127 127 127 127 127 127 127 127 127 127 127 127 127 
127 127 127 127 127 127 127 127 127 127 127 127 127 127 127 127 127 127 127 127 127 127 128 128 128 128 129 129 129 130 130 130 131 131 132 132 133 133 133 134 134 135 135 135 136 136 136 136 136 136 136 136 136 136 136 136 135 135 135 134 134 133 133 133 132 132 131 131 130 130 130 129 129 129 128 128 128 128 127 127 127 127 127 127 127 127 127 127 127 127 127 127 127 127 127 127 127 127 127 127 
127 127 127 127 127 127 127 127 127 127 127 127 127 127 127 127 127 127 127 127 127 127 127 128 128 128 128 128 129 129 129 129 130 130 130 131 131 131 132 132 132 133 133 133 134 134 134 134 134 134 134 134 134 134 134 134 133 133 133 132 132 132 131 131 131 130 130 130 129 129 129 129 128 128 128 128 128 127 127 127 127 127 127 127 127 127 127 127 127 127 127 127 127 127 127 127 127 127 127 127 
127 127 127 127 127 127 127 127 127 127 127 127 127 127 127 127 127 127 127 127 127 127 127 127 127 127 128 128 128 128 128 129 129 129 129 130 130 130 130 131 131 131 131 132 132 132 132 132 132 132 132 132 132 132 132 132 132 131 131 131 131 130 130 130 130 129 129 129 129 128 128 128 128 128 127 127 127 127 127 127 127 127 127 127 127 127 127 127 127 127 127 127 127 127 127 127 127 127 127 127 
127 127 127 127 127 127 127 127 127 127 127 127 127 127 127 127 127 127 127 127 127 127 127 127 127 127 127 127 128 128 128 128 128 128 129 129 129 129 129 129 130 130 130 130 130 130 130 130 130 131 131 130 130 130 130 130 130 130 130 130 129 129 129 129 129 129 128 128 128 128 128 128 127 127 127 127 127 127 127 127 127 127 127 127 127 127 127 127 127 127 127 127 127 127 127 127 127 127 127 127 
127 127 127 127 127 127 127 127 127 127 127 127 127 127 127 127 127 127 127 127 127 127 127 127 127 127 127 127 127 127 127 127 128 128 128 128 128 128 128 128 128 129 129 129 129 129 129 129 129 129 129 129 129 129 129 129 129 129 129 128 128 128 128 128 128 128 128 128 127 127 127 127 127 127 127 127 127 127 127 127 127 127 127 127 127 127 127 127 127 127 127 127 127 127 127 127 127 127 127 127 
127 127 127 127 127 127 127 127 127 127 127 127 127 127 127 127 127 127 127 127 127 127 127 127 127 127 127 127 127 127 127 127 127 127 127 127 127 127 127 127 127 128 128 128 128 128 128 128 128 128 128 128 128 128 128 128 128 128 128 127 127 127 127 127 127 127 127 127 127 127 127 127 127 127 127 127 127 127 127 127 127 127 127 127 127 127 127 127 127 127 127 127 127 127 127 127 127 127 127 127 
127 127 127 127 127 127 127 127 127 127 127 127 127 127 127 127 127 127 127 127 127 127 127 127 127 127 127 127 127 127 127 127 127 127 127 127 127 127 127 127 127 127 127 127 127 127 127 127 127 127 127 127 127 127 127 127 127 127 127 127 127 127 127 127 127 127 127 127 127 127 127 127 127 127 127 127 127 127 127 127 127 127 127 127 127 127 127 127 127 127 127 127 127 127 127 127 127 127 127 127 
